NotoNaskhArabic-Bold.ufo
<glyph name="uni0021" format="2">
  <advance width="260"/>
  <unicode hex="0021"/>
  <outline>
    <contour>
      <point x="117" y="157" type="curve"/>
      <point x="179" y="172" type="line"/>
      <point x="183" y="295"/>
      <point x="185" y="426"/>
      <point x="185" y="641" type="curve"/>
      <point x="130" y="621"/>
      <point x="89" y="602"/>
      <point x="61" y="583" type="curve"/>
      <point x="80" y="459"/>
      <point x="96" y="342"/>
    </contour>
    <contour>
      <point x="162" y="-57" type="curve"/>
      <point x="198" y="-5"/>
      <point x="216" y="26"/>
      <point x="216" y="35" type="curve" smooth="yes"/>
      <point x="216" y="41"/>
      <point x="208" y="50"/>
      <point x="193" y="63" type="curve" smooth="yes"/>
      <point x="178" y="76"/>
      <point x="153" y="93"/>
      <point x="118" y="114" type="curve"/>
      <point x="106" y="97"/>
      <point x="96" y="80"/>
      <point x="87" y="63" type="curve" smooth="yes"/>
      <point x="79" y="46"/>
      <point x="69" y="29"/>
      <point x="59" y="12" type="curve"/>
      <point x="94" y="-8"/>
      <point x="129" y="-31"/>
    </contour>
  </outline>
</glyph>
<glyph name="uni002E" format="2">
  <advance width="245"/>
  <unicode hex="002E"/>
  <outline>
    <contour>
      <point x="162" y="-57" type="curve"/>
      <point x="198" y="-5"/>
      <point x="216" y="26"/>
      <point x="216" y="35" type="curve" smooth="yes"/>
      <point x="216" y="54"/>
      <point x="154" y="92"/>
      <point x="118" y="114" type="curve"/>
      <point x="106" y="97"/>
      <point x="96" y="80"/>
      <point x="87" y="64" type="curve" smooth="yes"/>
      <point x="79" y="47"/>
      <point x="69" y="30"/>
      <point x="59" y="12" type="curve"/>
      <point x="93" y="-7"/>
      <point x="127" y="-30"/>
    </contour>
  </outline>
</glyph>
<glyph name="uni0032" format="2">
  <advance width="572"/>
  <unicode hex="0032"/>
  <outline>
    <contour>
      <point x="40" y="0" type="line"/>
      <point x="539" y="0" type="line"/>
      <point x="539" y="127" type="line"/>
      <point x="228" y="127" type="line"/>
      <point x="228" y="134" type="line"/>
      <point x="320" y="220" type="line" smooth="yes"/>
      <point x="381" y="276"/>
      <point x="424" y="319"/>
      <point x="448" y="350" type="curve" smooth="yes"/>
      <point x="497" y="411"/>
      <point x="519" y="465"/>
      <point x="519" y="531" type="curve" smooth="yes"/>
      <point x="519" y="569"/>
      <point x="510" y="602"/>
      <point x="491" y="631" type="curve" smooth="yes"/>
      <point x="453" y="690"/>
      <point x="382" y="724"/>
      <point x="293" y="724" type="curve" smooth="yes"/>
      <point x="186" y="724"/>
      <point x="124" y="695"/>
      <point x="38" y="622" type="curve"/>
      <point x="120" y="525" type="line"/>
      <point x="177" y="572"/>
      <point x="227" y="598"/>
      <point x="282" y="598" type="curve" smooth="yes"/>
      <point x="335" y="598"/>
      <point x="369" y="570"/>
      <point x="369" y="513" type="curve" smooth="yes"/>
      <point x="369" y="471"/>
      <point x="357" y="443"/>
      <point x="323" y="399" type="curve" smooth="yes"/>
      <point x="307" y="378"/>
      <point x="272" y="340"/>
      <point x="219" y="286" type="curve" smooth="yes"/>
      <point x="40" y="105" type="line"/>
    </contour>
  </outline>
</glyph>
<glyph name="uni0036" format="2">
  <advance width="572"/>
  <unicode hex="0036"/>
  <outline>
    <contour>
      <point x="296" y="-10" type="curve" smooth="yes"/>
      <point x="448" y="-10"/>
      <point x="539" y="85"/>
      <point x="539" y="238" type="curve" smooth="yes"/>
      <point x="539" y="379"/>
      <point x="463" y="464"/>
      <point x="335" y="464" type="curve" smooth="yes"/>
      <point x="264" y="464"/>
      <point x="212" y="436"/>
      <point x="180" y="381" type="curve"/>
      <point x="174" y="381" type="line"/>
      <point x="177" y="437"/>
      <point x="186" y="481"/>
      <point x="203" y="511" type="curve" smooth="yes"/>
      <point x="235" y="572"/>
      <point x="299" y="604"/>
      <point x="403" y="604" type="curve" smooth="yes"/>
      <point x="431" y="604"/>
      <point x="460" y="601"/>
      <point x="489" y="594" type="curve"/>
      <point x="489" y="715" type="line"/>
      <point x="466" y="720"/>
      <point x="434" y="722"/>
      <point x="393" y="722" type="curve" smooth="yes"/>
      <point x="155" y="722"/>
      <point x="35" y="586"/>
      <point x="35" y="303" type="curve" smooth="yes"/>
      <point x="35" y="237"/>
      <point x="46" y="181"/>
      <point x="67" y="134" type="curve" smooth="yes"/>
      <point x="110" y="40"/>
      <point x="190" y="-10"/>
    </contour>
    <contour>
      <point x="293" y="111" type="curve" smooth="yes"/>
      <point x="270" y="111"/>
      <point x="249" y="119"/>
      <point x="232" y="133" type="curve" smooth="yes"/>
      <point x="203" y="158"/>
      <point x="185" y="200"/>
      <point x="185" y="249" type="curve" smooth="yes"/>
      <point x="185" y="270"/>
      <point x="193" y="290"/>
      <point x="206" y="306" type="curve" smooth="yes"/>
      <point x="226" y="331"/>
      <point x="259" y="348"/>
      <point x="296" y="348" type="curve" smooth="yes"/>
      <point x="361" y="348"/>
      <point x="393" y="306"/>
      <point x="393" y="236" type="curve" smooth="yes"/>
      <point x="393" y="156"/>
      <point x="357" y="111"/>
    </contour>
  </outline>
</glyph>
<glyph name="uni003A" format="2">
  <advance width="274"/>
  <unicode hex="003A"/>
  <outline>
    <contour>
      <point x="162" y="280" type="curve"/>
      <point x="198" y="332"/>
      <point x="216" y="363"/>
      <point x="216" y="372" type="curve" smooth="yes"/>
      <point x="216" y="391"/>
      <point x="154" y="429"/>
      <point x="118" y="451" type="curve"/>
      <point x="106" y="434"/>
      <point x="96" y="417"/>
      <point x="87" y="400" type="curve" smooth="yes"/>
      <point x="79" y="383"/>
      <point x="69" y="366"/>
      <point x="59" y="349" type="curve"/>
      <point x="94" y="329"/>
      <point x="129" y="306"/>
    </contour>
    <contour>
      <point x="162" y="-57" type="curve"/>
      <point x="198" y="-5"/>
      <point x="216" y="26"/>
      <point x="216" y="35" type="curve" smooth="yes"/>
      <point x="216" y="50"/>
      <point x="183" y="76"/>
      <point x="118" y="114" type="curve"/>
      <point x="106" y="97"/>
      <point x="96" y="80"/>
      <point x="87" y="64" type="curve" smooth="yes"/>
      <point x="79" y="47"/>
      <point x="69" y="30"/>
      <point x="59" y="12" type="curve"/>
      <point x="93" y="-7"/>
      <point x="127" y="-30"/>
    </contour>
  </outline>
</glyph>
<glyph name="uni00AB" format="2">
  <advance width="485"/>
  <unicode hex="00AB"/>
  <outline>
    <contour>
      <point x="382" y="116" type="curve" smooth="yes"/>
      <point x="412" y="116"/>
      <point x="436" y="127"/>
      <point x="456" y="149" type="curve"/>
      <point x="425" y="181"/>
      <point x="392" y="217"/>
      <point x="357" y="258" type="curve" smooth="yes"/>
      <point x="329" y="291" type="line"/>
      <point x="423" y="425" type="line"/>
      <point x="379" y="473" type="line"/>
      <point x="240" y="281" type="line"/>
      <point x="288" y="197"/>
      <point x="318" y="149"/>
      <point x="329" y="136" type="curve" smooth="yes"/>
      <point x="341" y="123"/>
      <point x="359" y="116"/>
    </contour>
    <contour>
      <point x="199" y="91" type="curve" smooth="yes"/>
      <point x="229" y="91"/>
      <point x="254" y="102"/>
      <point x="274" y="124" type="curve"/>
      <point x="243" y="155"/>
      <point x="210" y="192"/>
      <point x="175" y="233" type="curve" smooth="yes"/>
      <point x="146" y="266" type="line"/>
      <point x="241" y="400" type="line"/>
      <point x="197" y="448" type="line"/>
      <point x="59" y="255" type="line"/>
      <point x="106" y="173"/>
      <point x="135" y="125"/>
      <point x="147" y="111" type="curve" smooth="yes"/>
      <point x="159" y="98"/>
      <point x="176" y="91"/>
    </contour>
  </outline>
</glyph>
<glyph name="uni00BB" format="2">
  <advance width="485"/>
  <unicode hex="00BB"/>
  <outline>
    <contour>
      <point x="288" y="105" type="line"/>
      <point x="426" y="298" type="line"/>
      <point x="379" y="380"/>
      <point x="350" y="428"/>
      <point x="338" y="442" type="curve" smooth="yes"/>
      <point x="326" y="456"/>
      <point x="309" y="462"/>
      <point x="286" y="462" type="curve" smooth="yes"/>
      <point x="256" y="462"/>
      <point x="231" y="451"/>
      <point x="211" y="430" type="curve"/>
      <point x="242" y="398"/>
      <point x="275" y="362"/>
      <point x="310" y="320" type="curve" smooth="yes"/>
      <point x="338" y="288" type="line"/>
      <point x="244" y="153" type="line"/>
    </contour>
    <contour>
      <point x="106" y="80" type="line"/>
      <point x="245" y="272" type="line"/>
      <point x="198" y="352"/>
      <point x="169" y="399"/>
      <point x="157" y="415" type="curve" smooth="yes"/>
      <point x="146" y="430"/>
      <point x="128" y="437"/>
      <point x="103" y="437" type="curve" smooth="yes"/>
      <point x="73" y="437"/>
      <point x="49" y="426"/>
      <point x="29" y="404" type="curve"/>
      <point x="66" y="365"/>
      <point x="99" y="329"/>
      <point x="128" y="295" type="curve" smooth="yes"/>
      <point x="156" y="262" type="line"/>
      <point x="62" y="128" type="line"/>
    </contour>
  </outline>
</glyph>
<glyph name="uni0601" format="2">
  <advance width="125"/>
  <unicode hex="0601"/>
  <outline>
    <contour>
      <point x="109" y="-167" type="curve" smooth="yes"/>
      <point x="120" y="-167"/>
      <point x="132" y="-160"/>
      <point x="144" y="-147" type="curve" smooth="yes"/>
      <point x="155" y="-134"/>
      <point x="171" y="-110"/>
      <point x="189" y="-76" type="curve" smooth="yes"/>
      <point x="223" y="-15"/>
      <point x="252" y="13"/>
      <point x="281" y="13" type="curve" smooth="yes"/>
      <point x="288" y="13"/>
      <point x="295" y="10"/>
      <point x="302" y="2" type="curve" smooth="yes"/>
      <point x="309" y="-6"/>
      <point x="320" y="-20"/>
      <point x="334" y="-42" type="curve" smooth="yes"/>
      <point x="359" y="-79"/>
      <point x="384" y="-98"/>
      <point x="410" y="-98" type="curve" smooth="yes"/>
      <point x="436" y="-98"/>
      <point x="457" y="-71"/>
      <point x="478" y="-39" type="curve" smooth="yes"/>
      <point x="487" y="-26"/>
      <point x="493" y="-19"/>
      <point x="496" y="-19" type="curve" smooth="yes"/>
      <point x="499" y="-19"/>
      <point x="505" y="-21"/>
      <point x="513" y="-24" type="curve" smooth="yes"/>
      <point x="613" y="-68"/>
      <point x="738" y="-90"/>
      <point x="889" y="-90" type="curve" smooth="yes"/>
      <point x="956" y="-90"/>
      <point x="1029" y="-84"/>
      <point x="1110" y="-72" type="curve" smooth="yes"/>
      <point x="1272" y="-47"/>
      <point x="1465" y="7"/>
      <point x="1526" y="27" type="curve" smooth="yes"/>
      <point x="1541" y="31"/>
      <point x="1553" y="34"/>
      <point x="1559" y="34" type="curve" smooth="yes"/>
      <point x="1562" y="34"/>
      <point x="1563" y="32"/>
      <point x="1563" y="30" type="curve" smooth="yes"/>
      <point x="1563" y="11"/>
      <point x="1525" y="-31"/>
      <point x="1504" y="-52" type="curve"/>
      <point x="1542" y="-86" type="line"/>
      <point x="1597" y="-32"/>
      <point x="1625" y="23"/>
      <point x="1625" y="81" type="curve" smooth="yes"/>
      <point x="1625" y="113"/>
      <point x="1603" y="137"/>
      <point x="1571" y="137" type="curve" smooth="yes"/>
      <point x="1554" y="137"/>
      <point x="1516" y="130"/>
      <point x="1458" y="114" type="curve" smooth="yes"/>
      <point x="1246" y="57"/>
      <point x="1062" y="29"/>
      <point x="906" y="29" type="curve" smooth="yes"/>
      <point x="745" y="29"/>
      <point x="615" y="51"/>
      <point x="517" y="95" type="curve" smooth="yes"/>
      <point x="509" y="99"/>
      <point x="503" y="101"/>
      <point x="500" y="101" type="curve" smooth="yes"/>
      <point x="478" y="101"/>
      <point x="456" y="21"/>
      <point x="425" y="21" type="curve" smooth="yes"/>
      <point x="397" y="21"/>
      <point x="373" y="40"/>
      <point x="352" y="77" type="curve" smooth="yes"/>
      <point x="331" y="115"/>
      <point x="314" y="133"/>
      <point x="293" y="133" type="curve" smooth="yes"/>
      <point x="256" y="133"/>
      <point x="219" y="101"/>
      <point x="184" y="43" type="curve" smooth="yes"/>
      <point x="161" y="5"/>
      <point x="145" y="-19"/>
      <point x="135" y="-31" type="curve" smooth="yes"/>
      <point x="125" y="-42"/>
      <point x="116" y="-48"/>
      <point x="108" y="-48" type="curve" smooth="yes"/>
      <point x="94" y="-48"/>
      <point x="84" y="-31"/>
      <point x="84" y="-6" type="curve" smooth="yes"/>
      <point x="84" y="22"/>
      <point x="93" y="53"/>
      <point x="110" y="87" type="curve"/>
      <point x="65" y="110" type="line"/>
      <point x="32" y="37"/>
      <point x="23" y="2"/>
      <point x="23" y="-35" type="curve" smooth="yes"/>
      <point x="23" y="-116"/>
      <point x="57" y="-167"/>
    </contour>
  </outline>
</glyph>
<glyph name="uni0602" format="2">
  <advance width="124"/>
  <unicode hex="0602"/>
  <outline>
    <contour>
      <point x="211" y="-43" type="curve" smooth="yes"/>
      <point x="428" y="-43"/>
      <point x="644" y="-43"/>
      <point x="860" y="-43" type="curve" smooth="yes"/>
      <point x="976" y="-43"/>
      <point x="1200" y="-32"/>
      <point x="1267" y="-17" type="curve" smooth="yes"/>
      <point x="1305" y="-8"/>
      <point x="1324" y="18"/>
      <point x="1324" y="63" type="curve" smooth="yes"/>
      <point x="1324" y="73"/>
      <point x="1322" y="86"/>
      <point x="1320" y="99" type="curve"/>
      <point x="1184" y="80"/>
      <point x="1068" y="72"/>
      <point x="882" y="72" type="curve" smooth="yes"/>
      <point x="678" y="72"/>
      <point x="474" y="72"/>
      <point x="270" y="72" type="curve"/>
      <point x="281" y="91"/>
      <point x="288" y="118"/>
      <point x="288" y="140" type="curve" smooth="yes"/>
      <point x="288" y="208"/>
      <point x="243" y="257"/>
      <point x="184" y="257" type="curve" smooth="yes"/>
      <point x="101" y="257"/>
      <point x="39" y="191"/>
      <point x="39" y="103" type="curve" smooth="yes"/>
      <point x="39" y="10"/>
      <point x="99" y="-43"/>
    </contour>
    <contour>
      <point x="217" y="72" type="curve"/>
      <point x="187" y="72"/>
      <point x="164" y="74"/>
      <point x="149" y="76" type="curve" smooth="yes"/>
      <point x="114" y="82"/>
      <point x="93" y="94"/>
      <point x="93" y="117" type="curve" smooth="yes"/>
      <point x="93" y="145"/>
      <point x="127" y="164"/>
      <point x="168" y="164" type="curve" smooth="yes"/>
      <point x="203" y="164"/>
      <point x="224" y="143"/>
      <point x="224" y="106" type="curve" smooth="yes"/>
      <point x="224" y="97"/>
      <point x="221" y="86"/>
    </contour>
  </outline>
</glyph>
<glyph name="uni0603" format="2">
  <advance width="64"/>
  <unicode hex="0603"/>
  <outline>
    <contour>
      <point x="946" y="-74" type="line"/>
      <point x="969" y="-37" type="line"/>
      <point x="1005" y="-46"/>
      <point x="1042" y="-51"/>
      <point x="1081" y="-51" type="curve" smooth="yes"/>
      <point x="1111" y="-51"/>
      <point x="1141" y="-43"/>
      <point x="1170" y="-28" type="curve" smooth="yes"/>
      <point x="1227" y="3"/>
      <point x="1264" y="59"/>
      <point x="1264" y="120" type="curve" smooth="yes"/>
      <point x="1264" y="142"/>
      <point x="1259" y="163"/>
      <point x="1249" y="184" type="curve" smooth="yes"/>
      <point x="1228" y="225"/>
      <point x="1191" y="252"/>
      <point x="1148" y="252" type="curve" smooth="yes"/>
      <point x="1110" y="252"/>
      <point x="1068" y="214"/>
      <point x="1021" y="147" type="curve" smooth="yes"/>
      <point x="1009" y="131"/>
      <point x="993" y="107"/>
      <point x="974" y="75" type="curve"/>
      <point x="957" y="79"/>
      <point x="941" y="84"/>
      <point x="927" y="90" type="curve"/>
      <point x="934" y="107"/>
      <point x="944" y="131"/>
      <point x="957" y="160" type="curve"/>
      <point x="947" y="167"/>
      <point x="937" y="171"/>
      <point x="926" y="171" type="curve" smooth="yes"/>
      <point x="908" y="171"/>
      <point x="893" y="162"/>
      <point x="880" y="144" type="curve" smooth="yes"/>
      <point x="862" y="116"/>
      <point x="848" y="99"/>
      <point x="838" y="91" type="curve" smooth="yes"/>
      <point x="815" y="73"/>
      <point x="784" y="71"/>
      <point x="726" y="71" type="curve" smooth="yes"/>
      <point x="308" y="71" type="line" smooth="yes"/>
      <point x="201" y="71"/>
      <point x="153" y="73"/>
      <point x="21" y="96" type="curve"/>
      <point x="6" y="38"/>
      <point x="28" y="-12"/>
      <point x="83" y="-23" type="curve" smooth="yes"/>
      <point x="155" y="-37"/>
      <point x="202" y="-39"/>
      <point x="285" y="-39" type="curve" smooth="yes"/>
      <point x="724" y="-39" type="line" smooth="yes"/>
      <point x="792" y="-39"/>
      <point x="851" y="-26"/>
      <point x="872" y="-2" type="curve"/>
      <point x="887" y="-9"/>
      <point x="902" y="-16"/>
      <point x="917" y="-21" type="curve"/>
      <point x="912" y="-29"/>
      <point x="908" y="-38"/>
      <point x="903" y="-47" type="curve"/>
    </contour>
    <contour>
      <point x="1083" y="64" type="curve" smooth="yes"/>
      <point x="1068" y="64"/>
      <point x="1053" y="64"/>
      <point x="1038" y="65" type="curve"/>
      <point x="1050" y="81"/>
      <point x="1061" y="94"/>
      <point x="1071" y="104" type="curve" smooth="yes"/>
      <point x="1098" y="130"/>
      <point x="1122" y="144"/>
      <point x="1145" y="144" type="curve" smooth="yes"/>
      <point x="1169" y="144"/>
      <point x="1188" y="131"/>
      <point x="1213" y="106" type="curve"/>
      <point x="1176" y="78"/>
      <point x="1133" y="64"/>
    </contour>
  </outline>
</glyph>
<glyph name="uni0604" format="2">
  <advance width="191"/>
  <unicode hex="0604"/>
  <outline>
    <contour>
      <point x="1495" y="-137" type="curve"/>
      <point x="1508" y="-112"/>
      <point x="1515" y="-78"/>
      <point x="1515" y="-52" type="curve" smooth="yes"/>
      <point x="1515" y="-30"/>
      <point x="1511" y="-17"/>
      <point x="1503" y="-14" type="curve" smooth="yes"/>
      <point x="1430" y="15"/>
      <point x="1386" y="37"/>
      <point x="1386" y="100" type="curve" smooth="yes"/>
      <point x="1386" y="143"/>
      <point x="1412" y="182"/>
      <point x="1448" y="182" type="curve" smooth="yes"/>
      <point x="1472" y="182"/>
      <point x="1503" y="163"/>
      <point x="1538" y="141" type="curve" smooth="yes"/>
      <point x="1581" y="114"/>
      <point x="1626" y="101"/>
      <point x="1673" y="101" type="curve" smooth="yes"/>
      <point x="1730" y="101"/>
      <point x="1789" y="113"/>
      <point x="1798" y="128" type="curve" smooth="yes"/>
      <point x="1802" y="134"/>
      <point x="1806" y="142"/>
      <point x="1811" y="152" type="curve"/>
      <point x="1843" y="137"/>
      <point x="1879" y="125"/>
      <point x="1918" y="116" type="curve" smooth="yes"/>
      <point x="1964" y="106"/>
      <point x="2007" y="101"/>
      <point x="2049" y="101" type="curve"/>
      <point x="2068" y="137"/>
      <point x="2091" y="210"/>
      <point x="2091" y="243" type="curve" smooth="yes"/>
      <point x="2091" y="269"/>
      <point x="2083" y="311"/>
      <point x="2049" y="484" type="curve"/>
      <point x="1999" y="459"/>
      <point x="1958" y="414"/>
      <point x="1958" y="382" type="curve" smooth="yes"/>
      <point x="1958" y="363"/>
      <point x="1972" y="333"/>
      <point x="1985" y="306" type="curve" smooth="yes"/>
      <point x="1978" y="322"/>
      <point x="2022" y="233"/>
      <point x="2033" y="211" type="curve"/>
      <point x="1960" y="218"/>
      <point x="1899" y="229"/>
      <point x="1847" y="256" type="curve"/>
      <point x="1866" y="319"/>
      <point x="1880" y="363"/>
      <point x="1889" y="385" type="curve"/>
      <point x="1878" y="392"/>
      <point x="1866" y="396"/>
      <point x="1854" y="396" type="curve" smooth="yes"/>
      <point x="1829" y="396"/>
      <point x="1811" y="383"/>
      <point x="1804" y="366" type="curve" smooth="yes"/>
      <point x="1774" y="285"/>
      <point x="1759" y="247"/>
      <point x="1749" y="231" type="curve"/>
      <point x="1720" y="222"/>
      <point x="1710" y="220"/>
      <point x="1678" y="220" type="curve" smooth="yes"/>
      <point x="1636" y="220"/>
      <point x="1594" y="233"/>
      <point x="1552" y="260" type="curve" smooth="yes"/>
      <point x="1506" y="289"/>
      <point x="1480" y="300"/>
      <point x="1453" y="300" type="curve" smooth="yes"/>
      <point x="1437" y="300"/>
      <point x="1418" y="288"/>
      <point x="1396" y="265" type="curve" smooth="yes"/>
      <point x="1351" y="219"/>
      <point x="1317" y="146"/>
      <point x="1317" y="87" type="curve" smooth="yes"/>
      <point x="1317" y="59"/>
      <point x="1323" y="33"/>
      <point x="1333" y="9" type="curve"/>
      <point x="1183" y="33"/>
      <point x="1017" y="44"/>
      <point x="853" y="44" type="curve" smooth="yes"/>
      <point x="572" y="44" type="line" smooth="yes"/>
      <point x="365" y="44"/>
      <point x="198" y="28"/>
      <point x="109" y="2" type="curve" smooth="yes"/>
      <point x="66" y="-10"/>
      <point x="49" y="-40"/>
      <point x="50" y="-94" type="curve"/>
      <point x="209" y="-71"/>
      <point x="278" y="-70"/>
      <point x="540" y="-70" type="curve" smooth="yes"/>
      <point x="833" y="-70" type="line" smooth="yes"/>
      <point x="1001" y="-70"/>
      <point x="1129" y="-73"/>
      <point x="1217" y="-78" type="curve" smooth="yes"/>
      <point x="1289" y="-83"/>
      <point x="1361" y="-91"/>
      <point x="1433" y="-102" type="curve"/>
      <point x="1451" y="-115"/>
      <point x="1472" y="-126"/>
    </contour>
  </outline>
</glyph>
<glyph name="uni0608" format="2">
  <advance width="836"/>
  <unicode hex="0608"/>
  <outline>
    <contour>
      <point x="361" y="-252" type="curve" smooth="yes"/>
      <point x="444" y="-252"/>
      <point x="543" y="-216"/>
      <point x="608" y="-162" type="curve" smooth="yes"/>
      <point x="674" y="-108"/>
      <point x="710" y="-35"/>
      <point x="710" y="50" type="curve" smooth="yes"/>
      <point x="710" y="60" type="line"/>
      <point x="763" y="89"/>
      <point x="795" y="111"/>
      <point x="806" y="125" type="curve" smooth="yes"/>
      <point x="818" y="140"/>
      <point x="824" y="155"/>
      <point x="824" y="172" type="curve" smooth="yes"/>
      <point x="824" y="197"/>
      <point x="812" y="216"/>
      <point x="787" y="230" type="curve"/>
      <point x="766" y="215"/>
      <point x="736" y="195"/>
      <point x="697" y="169" type="curve"/>
      <point x="685" y="216"/>
      <point x="669" y="253"/>
      <point x="652" y="280" type="curve" smooth="yes"/>
      <point x="617" y="335"/>
      <point x="569" y="366"/>
      <point x="520" y="366" type="curve" smooth="yes"/>
      <point x="496" y="366"/>
      <point x="472" y="355"/>
      <point x="449" y="333" type="curve" smooth="yes"/>
      <point x="404" y="290"/>
      <point x="374" y="213"/>
      <point x="374" y="138" type="curve" smooth="yes"/>
      <point x="374" y="50"/>
      <point x="421" y="0"/>
      <point x="503" y="0" type="curve" smooth="yes"/>
      <point x="546" y="0"/>
      <point x="590" y="9"/>
      <point x="637" y="26" type="curve"/>
      <point x="640" y="7"/>
      <point x="642" y="-12"/>
      <point x="644" y="-31" type="curve"/>
      <point x="618" y="-52"/>
      <point x="590" y="-69"/>
      <point x="563" y="-83" type="curve" smooth="yes"/>
      <point x="498" y="-117"/>
      <point x="433" y="-134"/>
      <point x="372" y="-134" type="curve" smooth="yes"/>
      <point x="281" y="-134"/>
      <point x="236" y="-89"/>
      <point x="236" y="0" type="curve" smooth="yes"/>
      <point x="236" y="25"/>
      <point x="244" y="62"/>
      <point x="254" y="90" type="curve"/>
      <point x="214" y="110" type="line"/>
      <point x="159" y="83"/>
      <point x="65" y="25"/>
      <point x="54" y="13" type="curve" smooth="yes"/>
      <point x="43" y="2"/>
      <point x="37" y="-16"/>
      <point x="37" y="-35" type="curve" smooth="yes"/>
      <point x="37" y="-54"/>
      <point x="42" y="-71"/>
      <point x="51" y="-86" type="curve"/>
      <point x="106" y="-56"/>
      <point x="148" y="-34"/>
      <point x="178" y="-21" type="curve"/>
      <point x="178" y="-29"/>
      <point x="178" y="-38"/>
      <point x="177" y="-47" type="curve" smooth="yes"/>
      <point x="177" y="-180"/>
      <point x="241" y="-252"/>
    </contour>
    <contour>
      <point x="520" y="110" type="curve" smooth="yes"/>
      <point x="462" y="110"/>
      <point x="427" y="132"/>
      <point x="427" y="171" type="curve" smooth="yes"/>
      <point x="427" y="181"/>
      <point x="429" y="190"/>
      <point x="433" y="199" type="curve" smooth="yes"/>
      <point x="443" y="226"/>
      <point x="470" y="246"/>
      <point x="502" y="246" type="curve" smooth="yes"/>
      <point x="515" y="246"/>
      <point x="528" y="242"/>
      <point x="540" y="235" type="curve" smooth="yes"/>
      <point x="567" y="218"/>
      <point x="591" y="183"/>
      <point x="612" y="128" type="curve"/>
      <point x="577" y="116"/>
      <point x="546" y="110"/>
    </contour>
  </outline>
</glyph>
<glyph name="uni060D" format="2">
  <advance width="300"/>
  <unicode hex="060D"/>
  <outline>
    <contour>
      <point x="75" y="-160" type="curve"/>
      <point x="104" y="-69"/>
      <point x="153" y="7"/>
      <point x="233" y="87" type="curve"/>
      <point x="202" y="190" type="line"/>
      <point x="166" y="153"/>
      <point x="135" y="116"/>
      <point x="109" y="80" type="curve" smooth="yes"/>
      <point x="56" y="8"/>
      <point x="29" y="-58"/>
      <point x="29" y="-98" type="curve" smooth="yes"/>
      <point x="29" y="-131"/>
      <point x="44" y="-151"/>
    </contour>
  </outline>
</glyph>
<glyph name="uni060E" format="2">
  <advance width="854"/>
  <unicode hex="060E"/>
  <outline>
    <contour>
      <point x="342" y="0" type="curve" smooth="yes"/>
      <point x="456" y="0"/>
      <point x="549" y="6"/>
      <point x="623" y="20" type="curve" smooth="yes"/>
      <point x="703" y="35"/>
      <point x="759" y="60"/>
      <point x="795" y="95" type="curve" smooth="yes"/>
      <point x="812" y="112"/>
      <point x="832" y="141"/>
      <point x="854" y="183" type="curve"/>
      <point x="817" y="215" type="line"/>
      <point x="802" y="197"/>
      <point x="774" y="180"/>
      <point x="733" y="166" type="curve" smooth="yes"/>
      <point x="651" y="137"/>
      <point x="514" y="118"/>
      <point x="387" y="116" type="curve"/>
      <point x="394" y="169"/>
      <point x="394" y="205"/>
      <point x="375" y="251" type="curve" smooth="yes"/>
      <point x="352" y="304"/>
      <point x="309" y="337"/>
      <point x="252" y="337" type="curve" smooth="yes"/>
      <point x="219" y="337"/>
      <point x="186" y="328"/>
      <point x="156" y="310" type="curve" smooth="yes"/>
      <point x="95" y="273"/>
      <point x="62" y="209"/>
      <point x="62" y="148" type="curve" smooth="yes"/>
      <point x="62" y="96"/>
      <point x="80" y="60"/>
      <point x="121" y="36" type="curve" smooth="yes"/>
      <point x="165" y="11"/>
      <point x="236" y="0"/>
    </contour>
    <contour>
      <point x="333" y="115" type="curve"/>
      <point x="250" y="115"/>
      <point x="193" y="119"/>
      <point x="162" y="126" type="curve" smooth="yes"/>
      <point x="131" y="133"/>
      <point x="116" y="146"/>
      <point x="116" y="163" type="curve" smooth="yes"/>
      <point x="116" y="172"/>
      <point x="121" y="181"/>
      <point x="130" y="188" type="curve" smooth="yes"/>
      <point x="151" y="207"/>
      <point x="191" y="220"/>
      <point x="237" y="220" type="curve" smooth="yes"/>
      <point x="254" y="220"/>
      <point x="271" y="217"/>
      <point x="284" y="210" type="curve" smooth="yes"/>
      <point x="314" y="196"/>
      <point x="333" y="167"/>
      <point x="333" y="127" type="curve" smooth="yes"/>
      <point x="333" y="124"/>
      <point x="333" y="119"/>
    </contour>
  </outline>
</glyph>
<glyph name="uni060F" format="2">
  <advance width="664"/>
  <unicode hex="060F"/>
  <anchor x="338" y="-335" name="bottom"/>
  <anchor x="228" y="636" name="top"/>
  <outline>
    <contour>
      <point x="73" y="-293" type="line"/>
      <point x="101" y="-252"/>
      <point x="128" y="-215"/>
      <point x="157" y="-183" type="curve"/>
      <point x="197" y="-242"/>
      <point x="258" y="-272"/>
      <point x="338" y="-272" type="curve" smooth="yes"/>
      <point x="384" y="-272"/>
      <point x="425" y="-264"/>
      <point x="462" y="-247" type="curve" smooth="yes"/>
      <point x="535" y="-214"/>
      <point x="578" y="-150"/>
      <point x="578" y="-75" type="curve" smooth="yes"/>
      <point x="578" y="36"/>
      <point x="519" y="106"/>
      <point x="425" y="106" type="curve" smooth="yes"/>
      <point x="338" y="106"/>
      <point x="259" y="59"/>
      <point x="172" y="-47" type="curve"/>
      <point x="167" y="-33"/>
      <point x="165" y="-17"/>
      <point x="165" y="0" type="curve" smooth="yes"/>
      <point x="165" y="39"/>
      <point x="185" y="78"/>
      <point x="225" y="115" type="curve" smooth="yes"/>
      <point x="265" y="153"/>
      <point x="332" y="192"/>
      <point x="425" y="231" type="curve" smooth="yes"/>
      <point x="440" y="237"/>
      <point x="452" y="244"/>
      <point x="461" y="252" type="curve" smooth="yes"/>
      <point x="481" y="268"/>
      <point x="491" y="288"/>
      <point x="491" y="314" type="curve" smooth="yes"/>
      <point x="491" y="338"/>
      <point x="487" y="355"/>
      <point x="479" y="365" type="curve"/>
      <point x="412" y="344"/>
      <point x="352" y="316"/>
      <point x="300" y="282" type="curve"/>
      <point x="198" y="294"/>
      <point x="144" y="344"/>
      <point x="140" y="421" type="curve"/>
      <point x="182" y="444"/>
      <point x="214" y="453"/>
      <point x="261" y="453" type="curve" smooth="yes"/>
      <point x="291" y="453"/>
      <point x="326" y="445"/>
      <point x="367" y="430" type="curve"/>
      <point x="388" y="470" type="line"/>
      <point x="332" y="532"/>
      <point x="282" y="563"/>
      <point x="235" y="563" type="curve" smooth="yes"/>
      <point x="209" y="563"/>
      <point x="183" y="553"/>
      <point x="157" y="532" type="curve" smooth="yes"/>
      <point x="106" y="490"/>
      <point x="68" y="409"/>
      <point x="68" y="349" type="curve" smooth="yes"/>
      <point x="68" y="328"/>
      <point x="74" y="307"/>
      <point x="86" y="286" type="curve" smooth="yes"/>
      <point x="110" y="245"/>
      <point x="155" y="213"/>
      <point x="204" y="202" type="curve"/>
      <point x="148" y="140"/>
      <point x="114" y="66"/>
      <point x="114" y="-11" type="curve" smooth="yes"/>
      <point x="114" y="-47"/>
      <point x="118" y="-80"/>
      <point x="125" y="-109" type="curve"/>
      <point x="95" y="-153"/>
      <point x="64" y="-204"/>
      <point x="32" y="-263" type="curve"/>
    </contour>
    <contour>
      <point x="356" y="-161" type="curve" smooth="yes"/>
      <point x="307" y="-161"/>
      <point x="263" y="-146"/>
      <point x="222" y="-115" type="curve"/>
      <point x="297" y="-48"/>
      <point x="367" y="-14"/>
      <point x="432" y="-14" type="curve" smooth="yes"/>
      <point x="482" y="-14"/>
      <point x="525" y="-43"/>
      <point x="525" y="-77" type="curve" smooth="yes"/>
      <point x="525" y="-97"/>
      <point x="515" y="-114"/>
      <point x="496" y="-127" type="curve" smooth="yes"/>
      <point x="467" y="-148"/>
      <point x="417" y="-161"/>
    </contour>
  </outline>
</glyph>
<glyph name="uni0610" format="2">
  <unicode hex="0610"/>
  <anchor x="99" y="478" name="_top"/>
  <anchor x="99" y="478" name="_top2"/>
  <anchor x="99" y="478" name="_top3"/>
  <anchor x="73" y="696" name="top3"/>
  <outline>
    <contour>
      <point x="7" y="466" type="curve"/>
      <point x="17" y="468"/>
      <point x="26" y="474"/>
      <point x="33" y="486" type="curve"/>
      <point x="37" y="496"/>
      <point x="39" y="512"/>
      <point x="39" y="535" type="curve"/>
      <point x="52" y="532"/>
      <point x="65" y="530"/>
      <point x="80" y="530" type="curve" smooth="yes"/>
      <point x="139" y="530"/>
      <point x="181" y="566"/>
      <point x="181" y="620" type="curve" smooth="yes"/>
      <point x="181" y="644"/>
      <point x="155" y="671"/>
      <point x="129" y="671" type="curve" smooth="yes"/>
      <point x="98" y="671"/>
      <point x="66" y="644"/>
      <point x="33" y="589" type="curve"/>
      <point x="27" y="601"/>
      <point x="20" y="618"/>
      <point x="12" y="640" type="curve"/>
      <point x="5" y="631"/>
      <point x="-2" y="617"/>
      <point x="-10" y="598" type="curve"/>
      <point x="4" y="567"/>
      <point x="11" y="540"/>
      <point x="11" y="516" type="curve" smooth="yes"/>
      <point x="11" y="499"/>
      <point x="10" y="482"/>
    </contour>
    <contour>
      <point x="81" y="566" type="curve" smooth="yes"/>
      <point x="65" y="566"/>
      <point x="53" y="568"/>
      <point x="44" y="572" type="curve"/>
      <point x="66" y="611"/>
      <point x="91" y="630"/>
      <point x="119" y="630" type="curve" smooth="yes"/>
      <point x="140" y="630"/>
      <point x="155" y="619"/>
      <point x="162" y="597" type="curve"/>
      <point x="149" y="577"/>
      <point x="122" y="566"/>
    </contour>
  </outline>
</glyph>
<glyph name="uni0611" format="2">
  <unicode hex="0611"/>
  <anchor x="91" y="478" name="_top"/>
  <anchor x="91" y="478" name="_top2"/>
  <anchor x="91" y="478" name="_top3"/>
  <anchor x="66" y="694" name="top3"/>
  <outline>
    <contour>
      <point x="5" y="466" type="curve"/>
      <point x="27" y="468"/>
      <point x="38" y="490"/>
      <point x="38" y="531" type="curve"/>
      <point x="47" y="529"/>
      <point x="58" y="528"/>
      <point x="71" y="528" type="curve" smooth="yes"/>
      <point x="89" y="528"/>
      <point x="107" y="530"/>
      <point x="126" y="534" type="curve" smooth="yes"/>
      <point x="166" y="543"/>
      <point x="190" y="554"/>
      <point x="190" y="580" type="curve" smooth="yes"/>
      <point x="190" y="584"/>
      <point x="189" y="588"/>
      <point x="187" y="593" type="curve"/>
      <point x="174" y="586"/>
      <point x="155" y="580"/>
      <point x="132" y="573" type="curve"/>
      <point x="131" y="574" type="line"/>
      <point x="121" y="576" type="line"/>
      <point x="95" y="583"/>
      <point x="83" y="600"/>
      <point x="83" y="625" type="curve"/>
      <point x="97" y="633"/>
      <point x="110" y="637"/>
      <point x="122" y="637" type="curve" smooth="yes"/>
      <point x="134" y="637"/>
      <point x="147" y="634"/>
      <point x="160" y="628" type="curve"/>
      <point x="169" y="642" type="line"/>
      <point x="143" y="665"/>
      <point x="132" y="669"/>
      <point x="117" y="669" type="curve" smooth="yes"/>
      <point x="87" y="669"/>
      <point x="58" y="630"/>
      <point x="58" y="596" type="curve" smooth="yes"/>
      <point x="58" y="587"/>
      <point x="60" y="578"/>
      <point x="66" y="569" type="curve"/>
      <point x="71" y="563" type="line"/>
      <point x="69" y="563" type="line" smooth="yes"/>
      <point x="56" y="563"/>
      <point x="46" y="567"/>
      <point x="52" y="567" type="curve"/>
      <point x="46" y="569"/>
      <point x="42" y="573"/>
      <point x="38" y="579" type="curve" smooth="yes"/>
      <point x="33" y="585"/>
      <point x="24" y="605"/>
      <point x="9" y="639" type="curve"/>
      <point x="0" y="627"/>
      <point x="-7" y="613"/>
      <point x="-12" y="598" type="curve"/>
      <point x="2" y="567"/>
      <point x="9" y="540"/>
      <point x="9" y="516" type="curve" smooth="yes"/>
      <point x="9" y="503"/>
      <point x="8" y="486"/>
    </contour>
  </outline>
</glyph>
<glyph name="uni0612" format="2">
  <unicode hex="0612"/>
  <anchor x="28" y="497" name="_top"/>
  <anchor x="28" y="497" name="_top2"/>
  <anchor x="28" y="497" name="_top3"/>
  <anchor x="48" y="732" name="top3"/>
  <outline>
    <contour>
      <point x="-52" y="511" type="curve"/>
      <point x="-36" y="511" type="line"/>
      <point x="-35" y="559"/>
      <point x="18" y="604"/>
      <point x="89" y="616" type="curve" smooth="yes"/>
      <point x="90" y="616" type="line"/>
      <point x="114" y="617" type="line"/>
      <point x="128" y="654" type="line"/>
      <point x="99" y="652" type="line" smooth="yes"/>
      <point x="83" y="652"/>
      <point x="63" y="656"/>
      <point x="39" y="665" type="curve" smooth="yes"/>
      <point x="15" y="673"/>
      <point x="-5" y="677"/>
      <point x="-20" y="677" type="curve" smooth="yes"/>
      <point x="-47" y="677"/>
      <point x="-67" y="664"/>
      <point x="-67" y="644" type="curve" smooth="yes"/>
      <point x="-67" y="636"/>
      <point x="-64" y="630"/>
      <point x="-58" y="625" type="curve"/>
      <point x="-49" y="635"/>
      <point x="-36" y="640"/>
      <point x="-19" y="640" type="curve" smooth="yes"/>
      <point x="-11" y="640"/>
      <point x="-2" y="639"/>
      <point x="6" y="636" type="curve" smooth="yes"/>
      <point x="26" y="630" type="line"/>
      <point x="-24" y="607"/>
      <point x="-52" y="563"/>
    </contour>
    <contour>
      <point x="107" y="507" type="curve" smooth="yes"/>
      <point x="156" y="507"/>
      <point x="192" y="555"/>
      <point x="192" y="616" type="curve" smooth="yes"/>
      <point x="192" y="627"/>
      <point x="187" y="648"/>
      <point x="175" y="681" type="curve" smooth="yes"/>
      <point x="164" y="717" type="line"/>
      <point x="145" y="709"/>
      <point x="136" y="699"/>
      <point x="136" y="687" type="curve" smooth="yes"/>
      <point x="136" y="677"/>
      <point x="140" y="666"/>
      <point x="147" y="653" type="curve" smooth="yes"/>
      <point x="154" y="642"/>
      <point x="162" y="625"/>
      <point x="173" y="604" type="curve"/>
      <point x="161" y="568"/>
      <point x="137" y="543"/>
      <point x="98" y="543" type="curve" smooth="yes"/>
      <point x="90" y="543"/>
      <point x="76" y="545"/>
      <point x="56" y="550" type="curve"/>
      <point x="49" y="535" type="line"/>
      <point x="63" y="522"/>
      <point x="95" y="507"/>
    </contour>
  </outline>
</glyph>
<glyph name="uni0613" format="2">
  <unicode hex="0613"/>
  <anchor x="39" y="460" name="_top"/>
  <anchor x="39" y="460" name="_top2"/>
  <anchor x="39" y="460" name="_top3"/>
  <anchor x="81" y="736" name="top3"/>
  <outline>
    <contour>
      <point x="-38" y="465" type="curve"/>
      <point x="-28" y="466"/>
      <point x="-20" y="473"/>
      <point x="-12" y="485" type="curve"/>
      <point x="-8" y="493"/>
      <point x="-6" y="509"/>
      <point x="-6" y="534" type="curve"/>
      <point x="6" y="531"/>
      <point x="20" y="529"/>
      <point x="34" y="529" type="curve" smooth="yes"/>
      <point x="93" y="529"/>
      <point x="136" y="564"/>
      <point x="136" y="619" type="curve" smooth="yes"/>
      <point x="136" y="643"/>
      <point x="110" y="670"/>
      <point x="83" y="670" type="curve" smooth="yes"/>
      <point x="52" y="670"/>
      <point x="20" y="643"/>
      <point x="-12" y="589" type="curve"/>
      <point x="-19" y="602"/>
      <point x="-27" y="619"/>
      <point x="-34" y="639" type="curve"/>
      <point x="-42" y="630"/>
      <point x="-49" y="616"/>
      <point x="-55" y="597" type="curve"/>
      <point x="-42" y="565"/>
      <point x="-35" y="538"/>
      <point x="-35" y="515" type="curve" smooth="yes"/>
      <point x="-35" y="505"/>
      <point x="-36" y="488"/>
    </contour>
    <contour>
      <point x="35" y="565" type="curve" smooth="yes"/>
      <point x="19" y="565"/>
      <point x="7" y="567"/>
      <point x="-1" y="571" type="curve"/>
      <point x="20" y="610"/>
      <point x="44" y="629"/>
      <point x="73" y="629" type="curve" smooth="yes"/>
      <point x="96" y="629"/>
      <point x="110" y="618"/>
      <point x="117" y="597" type="curve"/>
      <point x="103" y="576"/>
      <point x="76" y="565"/>
    </contour>
    <contour>
      <point x="0" y="656" type="line"/>
      <point x="5" y="659"/>
      <point x="9" y="663"/>
      <point x="13" y="669" type="curve" smooth="yes"/>
      <point x="17" y="674"/>
      <point x="20" y="679"/>
      <point x="23" y="684" type="curve"/>
      <point x="11" y="697"/>
      <point x="0" y="706"/>
      <point x="-8" y="712" type="curve"/>
      <point x="-31" y="683" type="line"/>
    </contour>
    <contour>
      <point x="135" y="470" type="curve" smooth="yes"/>
      <point x="184" y="470"/>
      <point x="220" y="519"/>
      <point x="220" y="579" type="curve" smooth="yes"/>
      <point x="220" y="593"/>
      <point x="214" y="614"/>
      <point x="203" y="644" type="curve" smooth="yes"/>
      <point x="198" y="656"/>
      <point x="195" y="668"/>
      <point x="192" y="681" type="curve"/>
      <point x="174" y="673"/>
      <point x="165" y="665"/>
      <point x="165" y="650" type="curve" smooth="yes"/>
      <point x="165" y="640"/>
      <point x="168" y="629"/>
      <point x="175" y="617" type="curve" smooth="yes"/>
      <point x="186" y="598"/>
      <point x="194" y="582"/>
      <point x="201" y="567" type="curve"/>
      <point x="188" y="527"/>
      <point x="163" y="506"/>
      <point x="126" y="506" type="curve" smooth="yes"/>
      <point x="118" y="506"/>
      <point x="104" y="509"/>
      <point x="83" y="513" type="curve"/>
      <point x="78" y="498" type="line"/>
      <point x="92" y="486"/>
      <point x="122" y="470"/>
    </contour>
  </outline>
</glyph>
<glyph name="uni0614" format="2">
  <unicode hex="0614"/>
  <anchor x="44" y="510" name="_top"/>
  <anchor x="44" y="510" name="_top2"/>
  <anchor x="44" y="510" name="_top3"/>
  <anchor x="66" y="638" name="top3"/>
  <outline>
    <contour>
      <point x="137" y="520" type="curve" smooth="yes"/>
      <point x="168" y="520"/>
      <point x="194" y="548"/>
      <point x="215" y="604" type="curve"/>
      <point x="203" y="615" type="line"/>
      <point x="183" y="581"/>
      <point x="165" y="563"/>
      <point x="149" y="563" type="curve" smooth="yes"/>
      <point x="135" y="563"/>
      <point x="119" y="581"/>
      <point x="119" y="600" type="curve" smooth="yes"/>
      <point x="119" y="608" type="line"/>
      <point x="105" y="614" type="line"/>
      <point x="90" y="596"/>
      <point x="76" y="584"/>
      <point x="63" y="578" type="curve" smooth="yes"/>
      <point x="37" y="567"/>
      <point x="-8" y="563"/>
      <point x="-91" y="563" type="curve" smooth="yes"/>
      <point x="-130" y="563" type="line"/>
      <point x="-130" y="558" type="line" smooth="yes"/>
      <point x="-130" y="545"/>
      <point x="-122" y="537"/>
      <point x="-104" y="533" type="curve" smooth="yes"/>
      <point x="-86" y="529"/>
      <point x="-60" y="527"/>
      <point x="-26" y="527" type="curve" smooth="yes"/>
      <point x="22" y="527"/>
      <point x="61" y="533"/>
      <point x="89" y="556" type="curve"/>
      <point x="101" y="532"/>
      <point x="117" y="520"/>
    </contour>
  </outline>
</glyph>
<glyph name="uni0615" format="2">
  <unicode hex="0615"/>
  <anchor x="48" y="437" name="_top"/>
  <anchor x="48" y="437" name="_top2"/>
  <anchor x="48" y="437" name="_top3"/>
  <anchor x="73" y="659" name="top3"/>
  <outline>
    <contour>
      <point x="39" y="446" type="curve" smooth="yes"/>
      <point x="107" y="446"/>
      <point x="147" y="472"/>
      <point x="147" y="515" type="curve" smooth="yes"/>
      <point x="147" y="535"/>
      <point x="114" y="561"/>
      <point x="90" y="561" type="curve" smooth="yes"/>
      <point x="66" y="561"/>
      <point x="40" y="545"/>
      <point x="11" y="513" type="curve"/>
      <point x="10" y="537"/>
      <point x="8" y="566"/>
      <point x="4" y="600" type="curve"/>
      <point x="14" y="607" type="line"/>
      <point x="1" y="649" type="line"/>
      <point x="-14" y="646"/>
      <point x="-22" y="637"/>
      <point x="-22" y="622" type="curve" smooth="yes"/>
      <point x="-22" y="611"/>
      <point x="-19" y="589"/>
      <point x="-13" y="558" type="curve" smooth="yes"/>
      <point x="-2" y="498" type="line"/>
      <point x="-20" y="477" type="line"/>
      <point x="-76" y="488" type="line"/>
      <point x="-80" y="476" type="line"/>
      <point x="-50" y="456"/>
      <point x="-38" y="446"/>
    </contour>
    <contour>
      <point x="43" y="473" type="curve" smooth="yes"/>
      <point x="-1" y="474" type="line"/>
      <point x="30" y="513"/>
      <point x="58" y="532"/>
      <point x="82" y="532" type="curve" smooth="yes"/>
      <point x="102" y="532"/>
      <point x="119" y="521"/>
      <point x="131" y="498" type="curve"/>
      <point x="100" y="479"/>
      <point x="76" y="473"/>
    </contour>
  </outline>
</glyph>
<glyph name="uni0616" format="2">
  <unicode hex="0616"/>
  <anchor x="0" y="488" name="_top"/>
  <anchor x="0" y="488" name="_top2"/>
  <anchor x="0" y="488" name="_top3"/>
  <anchor x="0" y="833" name="top3"/>
  <outline>
    <contour>
      <point x="-28" y="498" type="curve" smooth="yes"/>
      <point x="40" y="498"/>
      <point x="148" y="506"/>
      <point x="87" y="503" type="curve"/>
      <point x="130" y="507"/>
      <point x="156" y="510"/>
      <point x="163" y="514" type="curve" smooth="yes"/>
      <point x="171" y="518"/>
      <point x="175" y="524"/>
      <point x="175" y="530" type="curve" smooth="yes"/>
      <point x="175" y="535"/>
      <point x="173" y="539"/>
      <point x="169" y="543" type="curve"/>
      <point x="129" y="535"/>
      <point x="26" y="527"/>
      <point x="-26" y="527" type="curve" smooth="yes"/>
      <point x="-102" y="527"/>
      <point x="-152" y="531"/>
      <point x="-176" y="538" type="curve"/>
      <point x="-152" y="553"/>
      <point x="-123" y="561"/>
      <point x="-95" y="570" type="curve"/>
      <point x="-25" y="588" type="line"/>
      <point x="-18" y="600"/>
      <point x="-12" y="619"/>
      <point x="-12" y="628" type="curve" smooth="yes"/>
      <point x="-12" y="652"/>
      <point x="-13" y="679"/>
      <point x="-15" y="708" type="curve" smooth="yes"/>
      <point x="-21" y="808" type="line"/>
      <point x="-29" y="802"/>
      <point x="-37" y="795"/>
      <point x="-45" y="787" type="curve"/>
      <point x="-37" y="717"/>
      <point x="-31" y="660"/>
      <point x="-28" y="613" type="curve"/>
      <point x="-111" y="598"/>
      <point x="-152" y="580"/>
      <point x="-184" y="552" type="curve"/>
      <point x="-188" y="546"/>
      <point x="-194" y="524"/>
      <point x="-194" y="521" type="curve" smooth="yes"/>
      <point x="-194" y="515"/>
      <point x="-177" y="509"/>
      <point x="-145" y="505" type="curve" smooth="yes"/>
      <point x="-112" y="500"/>
      <point x="-73" y="498"/>
    </contour>
    <contour>
      <point x="21" y="578" type="line"/>
      <point x="38" y="581" type="line"/>
      <point x="41" y="666" type="line"/>
      <point x="41" y="687" type="line"/>
      <point x="39" y="755" type="line"/>
      <point x="49" y="764" type="line"/>
      <point x="35" y="809" type="line"/>
      <point x="17" y="805"/>
      <point x="11" y="796"/>
      <point x="11" y="781" type="curve"/>
      <point x="18" y="684" type="line"/>
      <point x="21" y="612" type="line"/>
    </contour>
  </outline>
</glyph>
<glyph name="uni0617" format="2">
  <unicode hex="0617"/>
  <anchor x="0" y="417" name="_top"/>
  <anchor x="0" y="417" name="_top2"/>
  <anchor x="0" y="417" name="_top3"/>
  <anchor x="1" y="730" name="top3"/>
  <outline>
    <contour>
      <point x="-22" y="427" type="curve" smooth="yes"/>
      <point x="28" y="427"/>
      <point x="62" y="475"/>
      <point x="62" y="535" type="curve" smooth="yes"/>
      <point x="62" y="547"/>
      <point x="59" y="563"/>
      <point x="51" y="584" type="curve" smooth="yes"/>
      <point x="34" y="634" type="line"/>
      <point x="19" y="627"/>
      <point x="11" y="620"/>
      <point x="11" y="607" type="curve" smooth="yes"/>
      <point x="11" y="592"/>
      <point x="24" y="569"/>
      <point x="37" y="547" type="curve" smooth="yes"/>
      <point x="48" y="523" type="line"/>
      <point x="34" y="479"/>
      <point x="7" y="457"/>
      <point x="-31" y="457" type="curve" smooth="yes"/>
      <point x="-42" y="457"/>
      <point x="-54" y="458"/>
      <point x="-67" y="460" type="curve"/>
      <point x="-72" y="448" type="line"/>
      <point x="-57" y="437"/>
      <point x="-34" y="427"/>
    </contour>
    <contour>
      <point x="15" y="654" type="curve"/>
      <point x="25" y="663"/>
      <point x="33" y="672"/>
      <point x="40" y="682" type="curve"/>
      <point x="33" y="687"/>
      <point x="24" y="695"/>
      <point x="15" y="706" type="curve"/>
      <point x="-12" y="678" type="line"/>
      <point x="-5" y="671"/>
      <point x="4" y="663"/>
    </contour>
  </outline>
</glyph>
<glyph name="uni0618" format="2">
  <unicode hex="0618"/>
  <anchor x="0" y="456" name="_top"/>
  <anchor x="0" y="456" name="_top2"/>
  <anchor x="0" y="456" name="_top3"/>
  <anchor x="-3" y="580" name="top3"/>
  <outline>
    <contour>
      <point x="-55" y="471" type="line"/>
      <point x="-29" y="479" type="line" smooth="yes"/>
      <point x="-7" y="486"/>
      <point x="19" y="496"/>
      <point x="50" y="509" type="curve" smooth="yes"/>
      <point x="66" y="515"/>
      <point x="73" y="527"/>
      <point x="73" y="544" type="curve"/>
      <point x="72" y="555" type="line"/>
      <point x="39" y="542"/>
      <point x="-1" y="528"/>
      <point x="-50" y="513" type="curve"/>
    </contour>
  </outline>
</glyph>
<glyph name="uni0619" format="2">
  <unicode hex="0619"/>
  <anchor x="0" y="447" name="_top"/>
  <anchor x="0" y="447" name="_top2"/>
  <anchor x="0" y="447" name="_top3"/>
  <anchor x="0" y="636" name="top3"/>
  <outline>
    <contour>
      <point x="-25" y="457" type="curve" smooth="yes"/>
      <point x="-9" y="457"/>
      <point x="10" y="470"/>
      <point x="32" y="498" type="curve"/>
      <point x="57" y="498"/>
      <point x="68" y="505"/>
      <point x="70" y="525" type="curve"/>
      <point x="49" y="526" type="line"/>
      <point x="53" y="537"/>
      <point x="55" y="548"/>
      <point x="55" y="559" type="curve" smooth="yes"/>
      <point x="55" y="597"/>
      <point x="39" y="612"/>
      <point x="23" y="612" type="curve" smooth="yes"/>
      <point x="-2" y="612"/>
      <point x="-32" y="582"/>
      <point x="-32" y="550" type="curve" smooth="yes"/>
      <point x="-32" y="532"/>
      <point x="-21" y="517"/>
      <point x="1" y="504" type="curve"/>
      <point x="-10" y="496"/>
      <point x="-28" y="488"/>
      <point x="-54" y="482" type="curve"/>
      <point x="-54" y="466"/>
      <point x="-43" y="457"/>
    </contour>
    <contour>
      <point x="25" y="531" type="line"/>
      <point x="3" y="539"/>
      <point x="-8" y="551"/>
      <point x="-8" y="565" type="curve" smooth="yes"/>
      <point x="-8" y="571"/>
      <point x="2" y="580"/>
      <point x="11" y="580" type="curve" smooth="yes"/>
      <point x="23" y="580"/>
      <point x="30" y="569"/>
      <point x="30" y="548" type="curve" smooth="yes"/>
      <point x="30" y="545"/>
      <point x="29" y="540"/>
      <point x="27" y="535" type="curve" smooth="yes"/>
    </contour>
  </outline>
</glyph>
<glyph name="uni061A" format="2">
  <unicode hex="061A"/>
  <anchor x="0" y="-81" name="_bottom"/>
  <anchor x="0" y="-81" name="_bottom2"/>
  <anchor x="0" y="-81" name="_bottom3"/>
  <anchor x="7" y="-180" name="bottom3"/>
  <outline>
    <contour>
      <point x="-55" y="-170" type="line"/>
      <point x="-29" y="-161" type="line" smooth="yes"/>
      <point x="-7" y="-154"/>
      <point x="19" y="-144"/>
      <point x="50" y="-131" type="curve" smooth="yes"/>
      <point x="66" y="-125"/>
      <point x="73" y="-113"/>
      <point x="73" y="-96" type="curve"/>
      <point x="72" y="-85" type="line"/>
      <point x="39" y="-98"/>
      <point x="-1" y="-112"/>
      <point x="-50" y="-127" type="curve"/>
    </contour>
  </outline>
</glyph>
<glyph name="uni0621" format="2">
  <advance width="452"/>
  <unicode hex="0621"/>
  <unicode hex="FE80"/>
  <anchor x="256" y="-81" name="bottom"/>
  <anchor x="235" y="385" name="top"/>
  <outline>
    <contour>
      <point x="85" y="-32" type="line"/>
      <point x="156" y="-21"/>
      <point x="207" y="-14"/>
      <point x="255" y="-10" type="curve" smooth="yes"/>
      <point x="305" y="-4"/>
      <point x="349" y="-2"/>
      <point x="379" y="1" type="curve" smooth="yes"/>
      <point x="411" y="4"/>
      <point x="431" y="33"/>
      <point x="431" y="64" type="curve" smooth="yes"/>
      <point x="431" y="86"/>
      <point x="419" y="109"/>
      <point x="408" y="121" type="curve"/>
      <point x="398" y="120"/>
      <point x="386" y="118"/>
      <point x="374" y="116" type="curve" smooth="yes"/>
      <point x="350" y="112"/>
      <point x="325" y="107"/>
      <point x="301" y="102" type="curve" smooth="yes"/>
      <point x="292" y="100"/>
      <point x="282" y="97"/>
      <point x="273" y="95" type="curve"/>
      <point x="260" y="95"/>
      <point x="233" y="100"/>
      <point x="221" y="104" type="curve" smooth="yes"/>
      <point x="195" y="111"/>
      <point x="178" y="121"/>
      <point x="159" y="145" type="curve"/>
      <point x="192" y="191"/>
      <point x="224" y="205"/>
      <point x="255" y="205" type="curve" smooth="yes"/>
      <point x="265" y="205"/>
      <point x="277" y="203"/>
      <point x="290" y="198" type="curve"/>
      <point x="288" y="189"/>
      <point x="287" y="182"/>
      <point x="285" y="174" type="curve"/>
      <point x="295" y="168"/>
      <point x="312" y="161"/>
      <point x="330" y="156" type="curve"/>
      <point x="347" y="174"/>
      <point x="354" y="201"/>
      <point x="354" y="221" type="curve" smooth="yes"/>
      <point x="354" y="276"/>
      <point x="312" y="312"/>
      <point x="260" y="312" type="curve" smooth="yes"/>
      <point x="246" y="312"/>
      <point x="233" y="309"/>
      <point x="220" y="303" type="curve" smooth="yes"/>
      <point x="156" y="272"/>
      <point x="108" y="186"/>
      <point x="108" y="118" type="curve" smooth="yes"/>
      <point x="108" y="99"/>
      <point x="114" y="82"/>
      <point x="125" y="66" type="curve" smooth="yes"/>
      <point x="130" y="60"/>
      <point x="135" y="54"/>
      <point x="141" y="49" type="curve"/>
      <point x="131" y="45"/>
      <point x="85" y="25"/>
      <point x="68" y="17" type="curve"/>
    </contour>
  </outline>
</glyph>
<glyph name="uni0627" format="2">
  <advance width="284"/>
  <unicode hex="0627"/>
  <unicode hex="FE8D"/>
  <anchor x="151" y="-58" name="bottom"/>
  <anchor x="142" y="729" name="top"/>
  <outline>
    <contour>
      <point x="121" y="9" type="curve"/>
      <point x="185" y="17" type="line"/>
      <point x="192" y="245"/>
      <point x="193" y="420"/>
      <point x="190" y="531" type="curve"/>
      <point x="225" y="557" type="line"/>
      <point x="209" y="597"/>
      <point x="195" y="638"/>
      <point x="184" y="680" type="curve"/>
      <point x="124" y="680"/>
      <point x="71" y="645"/>
      <point x="77" y="595" type="curve" smooth="yes"/>
      <point x="96" y="404"/>
      <point x="107" y="284"/>
    </contour>
  </outline>
</glyph>
<glyph name="uni062D" format="2">
  <advance width="655"/>
  <unicode hex="062D"/>
  <unicode hex="FEA1"/>
  <anchor x="373" y="-337" name="bottom"/>
  <anchor x="342" y="483" name="top"/>
  <outline>
    <contour>
      <point x="373" y="-288" type="curve" smooth="yes"/>
      <point x="415" y="-288"/>
      <point x="520" y="-247"/>
      <point x="630" y="-184" type="curve"/>
      <point x="616" y="-142" type="line"/>
      <point x="523" y="-163"/>
      <point x="443" y="-173"/>
      <point x="375" y="-173" type="curve" smooth="yes"/>
      <point x="247" y="-173"/>
      <point x="156" y="-119"/>
      <point x="156" y="-29" type="curve" smooth="yes"/>
      <point x="156" y="27"/>
      <point x="190" y="81"/>
      <point x="249" y="128" type="curve" smooth="yes"/>
      <point x="308" y="175"/>
      <point x="397" y="213"/>
      <point x="464" y="224" type="curve"/>
      <point x="497" y="221"/>
      <point x="559" y="222"/>
      <point x="585" y="226" type="curve"/>
      <point x="626" y="338" type="line"/>
      <point x="535" y="336" type="line" smooth="yes"/>
      <point x="484" y="336"/>
      <point x="433" y="347"/>
      <point x="361" y="374" type="curve" smooth="yes"/>
      <point x="287" y="400"/>
      <point x="245" y="410"/>
      <point x="201" y="410" type="curve" smooth="yes"/>
      <point x="119" y="410"/>
      <point x="68" y="372"/>
      <point x="68" y="312" type="curve" smooth="yes"/>
      <point x="68" y="290"/>
      <point x="79" y="264"/>
      <point x="91" y="252" type="curve"/>
      <point x="138" y="281"/>
      <point x="160" y="291"/>
      <point x="199" y="291" type="curve" smooth="yes"/>
      <point x="236" y="291"/>
      <point x="272" y="277"/>
      <point x="318" y="260" type="curve"/>
      <point x="277" y="240"/>
      <point x="242" y="215"/>
      <point x="212" y="187" type="curve" smooth="yes"/>
      <point x="143" y="124"/>
      <point x="105" y="42"/>
      <point x="105" y="-44" type="curve" smooth="yes"/>
      <point x="105" y="-197"/>
      <point x="204" y="-288"/>
    </contour>
  </outline>
</glyph>
<glyph name="uni062F" format="2">
  <advance width="435"/>
  <unicode hex="062F"/>
  <unicode hex="FEA9"/>
  <anchor x="214" y="-58" name="bottom"/>
  <anchor x="229" y="523" name="top"/>
  <outline>
    <contour>
      <point x="168" y="0" type="curve" smooth="yes"/>
      <point x="238" y="0"/>
      <point x="309" y="15"/>
      <point x="357" y="39" type="curve"/>
      <point x="373" y="70"/>
      <point x="392" y="131"/>
      <point x="392" y="149" type="curve" smooth="yes"/>
      <point x="392" y="185"/>
      <point x="377" y="229"/>
      <point x="358" y="280" type="curve" smooth="yes"/>
      <point x="341" y="324"/>
      <point x="312" y="398"/>
      <point x="297" y="450" type="curve"/>
      <point x="253" y="437"/>
      <point x="213" y="393"/>
      <point x="213" y="350" type="curve" smooth="yes"/>
      <point x="213" y="324"/>
      <point x="239" y="283"/>
      <point x="277" y="229" type="curve" smooth="yes"/>
      <point x="292" y="208"/>
      <point x="309" y="178"/>
      <point x="331" y="140" type="curve"/>
      <point x="287" y="126"/>
      <point x="243" y="119"/>
      <point x="200" y="119" type="curve" smooth="yes"/>
      <point x="137" y="119"/>
      <point x="97" y="132"/>
      <point x="64" y="159" type="curve"/>
      <point x="47" y="141"/>
      <point x="34" y="106"/>
      <point x="34" y="78" type="curve" smooth="yes"/>
      <point x="34" y="26"/>
      <point x="79" y="0"/>
    </contour>
  </outline>
</glyph>
<glyph name="uni0631" format="2">
  <advance width="377"/>
  <unicode hex="0631"/>
  <unicode hex="FEAD"/>
  <anchor x="104" y="-244" name="bottom"/>
  <anchor x="196" y="456" name="top"/>
  <outline>
    <contour>
      <point x="102" y="-195" type="curve" smooth="yes"/>
      <point x="146" y="-195"/>
      <point x="186" y="-183"/>
      <point x="222" y="-158" type="curve" smooth="yes"/>
      <point x="293" y="-108"/>
      <point x="335" y="-15"/>
      <point x="335" y="89" type="curve" smooth="yes"/>
      <point x="335" y="132"/>
      <point x="322" y="180"/>
      <point x="305" y="230" type="curve" smooth="yes"/>
      <point x="291" y="271"/>
      <point x="267" y="341"/>
      <point x="256" y="383" type="curve"/>
      <point x="207" y="358"/>
      <point x="173" y="317"/>
      <point x="173" y="278" type="curve" smooth="yes"/>
      <point x="173" y="235"/>
      <point x="209" y="179"/>
      <point x="248" y="119" type="curve" smooth="yes"/>
      <point x="261" y="99"/>
      <point x="272" y="78"/>
      <point x="282" y="58" type="curve"/>
      <point x="251" y="-35"/>
      <point x="182" y="-86"/>
      <point x="83" y="-86" type="curve" smooth="yes"/>
      <point x="52" y="-86"/>
      <point x="18" y="-81"/>
      <point x="-18" y="-72" type="curve"/>
      <point x="-34" y="-114" type="line"/>
      <point x="24" y="-163"/>
      <point x="79" y="-195"/>
    </contour>
  </outline>
</glyph>
<glyph name="uni0633" format="2">
  <advance width="1061"/>
  <unicode hex="0633"/>
  <unicode hex="FEB1"/>
  <anchor x="748" y="-76" name="bottom"/>
  <anchor x="690" y="396" name="top"/>
  <outline>
    <contour>
      <point x="251" y="-252" type="curve" smooth="yes"/>
      <point x="306" y="-252"/>
      <point x="357" y="-242"/>
      <point x="403" y="-220" type="curve" smooth="yes"/>
      <point x="495" y="-177"/>
      <point x="552" y="-96"/>
      <point x="552" y="-7" type="curve" smooth="yes"/>
      <point x="552" y="2" type="line"/>
      <point x="563" y="1"/>
      <point x="574" y="0"/>
      <point x="585" y="0" type="curve" smooth="yes"/>
      <point x="620" y="0"/>
      <point x="649" y="3"/>
      <point x="674" y="8" type="curve" smooth="yes"/>
      <point x="698" y="13"/>
      <point x="713" y="20"/>
      <point x="718" y="29" type="curve" smooth="yes"/>
      <point x="729" y="51" type="line"/>
      <point x="795" y="21"/>
      <point x="886" y="0"/>
      <point x="968" y="0" type="curve"/>
      <point x="988" y="38"/>
      <point x="1010" y="111"/>
      <point x="1010" y="142" type="curve" smooth="yes"/>
      <point x="1010" y="160"/>
      <point x="1005" y="195"/>
      <point x="995" y="248" type="curve" smooth="yes"/>
      <point x="986" y="292"/>
      <point x="977" y="338"/>
      <point x="968" y="383" type="curve"/>
      <point x="918" y="358"/>
      <point x="877" y="313"/>
      <point x="877" y="281" type="curve" smooth="yes"/>
      <point x="877" y="254"/>
      <point x="892" y="227"/>
      <point x="908" y="197" type="curve" smooth="yes"/>
      <point x="923" y="168"/>
      <point x="938" y="139"/>
      <point x="952" y="110" type="curve"/>
      <point x="873" y="118"/>
      <point x="816" y="129"/>
      <point x="765" y="155" type="curve"/>
      <point x="784" y="214"/>
      <point x="799" y="262"/>
      <point x="808" y="283" type="curve"/>
      <point x="796" y="290"/>
      <point x="783" y="293"/>
      <point x="770" y="293" type="curve" smooth="yes"/>
      <point x="747" y="293"/>
      <point x="731" y="284"/>
      <point x="724" y="265" type="curve" smooth="yes"/>
      <point x="714" y="241"/>
      <point x="705" y="217"/>
      <point x="695" y="192" type="curve" smooth="yes"/>
      <point x="683" y="161"/>
      <point x="674" y="140"/>
      <point x="668" y="130" type="curve"/>
      <point x="632" y="119"/>
      <point x="623" y="119"/>
      <point x="597" y="119" type="curve" smooth="yes"/>
      <point x="580" y="119"/>
      <point x="560" y="121"/>
      <point x="537" y="124" type="curve"/>
      <point x="524" y="196"/>
      <point x="516" y="244"/>
      <point x="513" y="270" type="curve"/>
      <point x="444" y="236"/>
      <point x="412" y="194"/>
      <point x="412" y="138" type="curve" smooth="yes"/>
      <point x="412" y="111"/>
      <point x="451" y="43"/>
      <point x="497" y="-45" type="curve"/>
      <point x="426" y="-109"/>
      <point x="359" y="-134"/>
      <point x="254" y="-134" type="curve" smooth="yes"/>
      <point x="165" y="-134"/>
      <point x="123" y="-88"/>
      <point x="123" y="7" type="curve" smooth="yes"/>
      <point x="123" y="30"/>
      <point x="128" y="57"/>
      <point x="137" y="87" type="curve"/>
      <point x="93" y="98" type="line"/>
      <point x="76" y="35"/>
      <point x="68" y="-13"/>
      <point x="68" y="-47" type="curve" smooth="yes"/>
      <point x="68" y="-180"/>
      <point x="132" y="-252"/>
    </contour>
  </outline>
</glyph>
<glyph name="uni0635" format="2">
  <advance width="1131"/>
  <unicode hex="0635"/>
  <unicode hex="FEB9"/>
  <anchor x="810" y="-76" name="bottom"/>
  <anchor x="666" y="473" name="top"/>
  <outline>
    <contour>
      <point x="251" y="-252" type="curve" smooth="yes"/>
      <point x="306" y="-252"/>
      <point x="357" y="-242"/>
      <point x="403" y="-220" type="curve" smooth="yes"/>
      <point x="495" y="-177"/>
      <point x="552" y="-96"/>
      <point x="552" y="-7" type="curve"/>
      <point x="552" y="3"/>
      <point x="551" y="13"/>
      <point x="551" y="23" type="curve"/>
      <point x="617" y="8"/>
      <point x="680" y="0"/>
      <point x="741" y="0" type="curve" smooth="yes"/>
      <point x="801" y="0"/>
      <point x="858" y="10"/>
      <point x="914" y="30" type="curve" smooth="yes"/>
      <point x="1025" y="69"/>
      <point x="1081" y="139"/>
      <point x="1081" y="226" type="curve" smooth="yes"/>
      <point x="1081" y="245"/>
      <point x="1069" y="269"/>
      <point x="1045" y="297" type="curve" smooth="yes"/>
      <point x="997" y="354"/>
      <point x="927" y="400"/>
      <point x="878" y="400" type="curve" smooth="yes"/>
      <point x="800" y="400"/>
      <point x="694" y="312"/>
      <point x="561" y="135" type="curve"/>
      <point x="534" y="144" type="line"/>
      <point x="521" y="217"/>
      <point x="513" y="268"/>
      <point x="513" y="270" type="curve"/>
      <point x="444" y="236"/>
      <point x="412" y="194"/>
      <point x="412" y="144" type="curve" smooth="yes"/>
      <point x="412" y="106"/>
      <point x="450" y="43"/>
      <point x="497" y="-45" type="curve"/>
      <point x="426" y="-109"/>
      <point x="359" y="-134"/>
      <point x="254" y="-134" type="curve" smooth="yes"/>
      <point x="165" y="-134"/>
      <point x="123" y="-88"/>
      <point x="123" y="7" type="curve" smooth="yes"/>
      <point x="123" y="30"/>
      <point x="128" y="57"/>
      <point x="137" y="87" type="curve"/>
      <point x="93" y="98" type="line"/>
      <point x="76" y="35"/>
      <point x="68" y="-13"/>
      <point x="68" y="-47" type="curve" smooth="yes"/>
      <point x="68" y="-180"/>
      <point x="132" y="-252"/>
    </contour>
    <contour>
      <point x="751" y="110" type="curve" smooth="yes"/>
      <point x="717" y="110"/>
      <point x="675" y="114"/>
      <point x="626" y="120" type="curve"/>
      <point x="693" y="197"/>
      <point x="783" y="282"/>
      <point x="854" y="282" type="curve" smooth="yes"/>
      <point x="906" y="282"/>
      <point x="963" y="248"/>
      <point x="1022" y="179" type="curve"/>
      <point x="925" y="132"/>
      <point x="847" y="110"/>
    </contour>
  </outline>
</glyph>
<glyph name="uni0637" format="2">
  <advance width="792"/>
  <unicode hex="0637"/>
  <unicode hex="FEC1"/>
  <anchor x="401" y="-58" name="bottom"/>
  <anchor x="526" y="493" name="top"/>
  <outline>
    <contour>
      <point x="402" y="0" type="curve" smooth="yes"/>
      <point x="463" y="0"/>
      <point x="520" y="10"/>
      <point x="576" y="30" type="curve" smooth="yes"/>
      <point x="686" y="71"/>
      <point x="741" y="138"/>
      <point x="741" y="226" type="curve" smooth="yes"/>
      <point x="741" y="244"/>
      <point x="729" y="268"/>
      <point x="706" y="297" type="curve" smooth="yes"/>
      <point x="658" y="354"/>
      <point x="587" y="400"/>
      <point x="539" y="400" type="curve" smooth="yes"/>
      <point x="478" y="400"/>
      <point x="399" y="346"/>
      <point x="304" y="238" type="curve"/>
      <point x="302" y="262"/>
      <point x="301" y="282"/>
      <point x="300" y="299" type="curve" smooth="yes"/>
      <point x="288" y="461"/>
      <point x="296" y="352"/>
      <point x="282" y="533" type="curve"/>
      <point x="314" y="557" type="line"/>
      <point x="298" y="597"/>
      <point x="285" y="638"/>
      <point x="273" y="680" type="curve"/>
      <point x="217" y="680"/>
      <point x="172" y="637"/>
      <point x="172" y="582" type="curve" smooth="yes"/>
      <point x="172" y="544"/>
      <point x="200" y="414"/>
      <point x="252" y="175" type="curve"/>
      <point x="239" y="158"/>
      <point x="226" y="140"/>
      <point x="212" y="123" type="curve"/>
      <point x="173" y="129"/>
      <point x="119" y="139"/>
      <point x="49" y="156" type="curve"/>
      <point x="34" y="113" type="line"/>
      <point x="86" y="67"/>
      <point x="148" y="24"/>
      <point x="175" y="16" type="curve" smooth="yes"/>
      <point x="209" y="6"/>
      <point x="325" y="0"/>
    </contour>
    <contour>
      <point x="412" y="110" type="curve" smooth="yes"/>
      <point x="370" y="110"/>
      <point x="327" y="112"/>
      <point x="283" y="115" type="curve"/>
      <point x="385" y="231"/>
      <point x="458" y="282"/>
      <point x="514" y="282" type="curve" smooth="yes"/>
      <point x="567" y="282"/>
      <point x="624" y="248"/>
      <point x="684" y="179" type="curve"/>
      <point x="589" y="133"/>
      <point x="510" y="110"/>
    </contour>
  </outline>
</glyph>
<glyph name="uni0639" format="2">
  <advance width="604"/>
  <unicode hex="0639"/>
  <unicode hex="FEC9"/>
  <anchor x="367" y="-350" name="bottom"/>
  <anchor x="239" y="548" name="top"/>
  <outline>
    <contour>
      <point x="367" y="-301" type="curve" smooth="yes"/>
      <point x="408" y="-301"/>
      <point x="498" y="-263"/>
      <point x="613" y="-192" type="curve"/>
      <point x="600" y="-150" type="line"/>
      <point x="530" y="-166"/>
      <point x="481" y="-176"/>
      <point x="453" y="-180" type="curve" smooth="yes"/>
      <point x="424" y="-184"/>
      <point x="396" y="-186"/>
      <point x="369" y="-186" type="curve" smooth="yes"/>
      <point x="236" y="-186"/>
      <point x="164" y="-141"/>
      <point x="164" y="-65" type="curve" smooth="yes"/>
      <point x="164" y="-41"/>
      <point x="171" y="-17"/>
      <point x="185" y="5" type="curve" smooth="yes"/>
      <point x="213" y="49"/>
      <point x="263" y="82"/>
      <point x="379" y="128" type="curve" smooth="yes"/>
      <point x="415" y="143"/>
      <point x="439" y="154"/>
      <point x="450" y="162" type="curve" smooth="yes"/>
      <point x="475" y="179"/>
      <point x="486" y="201"/>
      <point x="486" y="229" type="curve" smooth="yes"/>
      <point x="486" y="253"/>
      <point x="482" y="270"/>
      <point x="475" y="280" type="curve"/>
      <point x="403" y="256"/>
      <point x="339" y="227"/>
      <point x="281" y="193" type="curve"/>
      <point x="205" y="211"/>
      <point x="158" y="261"/>
      <point x="154" y="333" type="curve"/>
      <point x="197" y="356"/>
      <point x="229" y="365"/>
      <point x="276" y="365" type="curve" smooth="yes"/>
      <point x="306" y="365"/>
      <point x="341" y="358"/>
      <point x="381" y="342" type="curve"/>
      <point x="402" y="382" type="line"/>
      <point x="347" y="444"/>
      <point x="296" y="475"/>
      <point x="250" y="475" type="curve" smooth="yes"/>
      <point x="223" y="475"/>
      <point x="197" y="465"/>
      <point x="172" y="444" type="curve" smooth="yes"/>
      <point x="121" y="402"/>
      <point x="83" y="321"/>
      <point x="83" y="261" type="curve" smooth="yes"/>
      <point x="83" y="244"/>
      <point x="87" y="227"/>
      <point x="95" y="209" type="curve" smooth="yes"/>
      <point x="111" y="173"/>
      <point x="145" y="138"/>
      <point x="188" y="118" type="curve"/>
      <point x="138" y="64"/>
      <point x="113" y="1"/>
      <point x="113" y="-71" type="curve" smooth="yes"/>
      <point x="113" y="-212"/>
      <point x="210" y="-301"/>
    </contour>
  </outline>
</glyph>
<glyph name="uni0640" format="2">
  <advance width="210"/>
  <unicode hex="0640"/>
  <anchor x="99" y="-135" name="bottom"/>
  <anchor x="99" y="461" name="top"/>
  <outline>
    <contour>
      <point x="0" y="9" type="curve" smooth="yes"/>
      <point x="215" y="9" type="line" smooth="yes"/>
      <point x="221" y="9"/>
      <point x="224" y="12"/>
      <point x="224" y="17" type="curve" smooth="yes"/>
      <point x="224" y="119" type="line" smooth="yes"/>
      <point x="224" y="125"/>
      <point x="221" y="127"/>
      <point x="215" y="127" type="curve" smooth="yes"/>
      <point x="0" y="127" type="line" smooth="yes"/>
      <point x="-6" y="127"/>
      <point x="-8" y="125"/>
      <point x="-8" y="119" type="curve" smooth="yes"/>
      <point x="-8" y="17" type="line" smooth="yes"/>
      <point x="-8" y="12"/>
      <point x="-6" y="9"/>
    </contour>
  </outline>
</glyph>
<glyph name="uni0643" format="2">
  <advance width="618"/>
  <unicode hex="0643"/>
  <unicode hex="FED9"/>
  <anchor x="267" y="-58" name="bottom"/>
  <anchor x="257" y="458" name="top"/>
  <outline>
    <contour>
      <point x="264" y="1" type="curve" smooth="yes"/>
      <point x="358" y="1"/>
      <point x="443" y="6"/>
      <point x="520" y="17" type="curve"/>
      <point x="543" y="46"/>
      <point x="559" y="96"/>
      <point x="559" y="130" type="curve" smooth="yes"/>
      <point x="559" y="187"/>
      <point x="548" y="321"/>
      <point x="527" y="533" type="curve"/>
      <point x="559" y="557" type="line"/>
      <point x="544" y="594"/>
      <point x="531" y="635"/>
      <point x="519" y="680" type="curve"/>
      <point x="459" y="680"/>
      <point x="411" y="634"/>
      <point x="411" y="577" type="curve" smooth="yes"/>
      <point x="411" y="547"/>
      <point x="437" y="424"/>
      <point x="452" y="366" type="curve" smooth="yes"/>
      <point x="458" y="339"/>
      <point x="476" y="267"/>
      <point x="508" y="139" type="curve"/>
      <point x="435" y="126"/>
      <point x="360" y="119"/>
      <point x="283" y="119" type="curve" smooth="yes"/>
      <point x="212" y="119"/>
      <point x="112" y="128"/>
      <point x="60" y="140" type="curve"/>
      <point x="46" y="112"/>
      <point x="34" y="59"/>
      <point x="34" y="20" type="curve" smooth="yes"/>
      <point x="34" y="15"/>
      <point x="62" y="10"/>
      <point x="116" y="7" type="curve" smooth="yes"/>
      <point x="171" y="3"/>
      <point x="220" y="1"/>
    </contour>
    <contour>
      <point x="214" y="225" type="curve" smooth="yes"/>
      <point x="262" y="225"/>
      <point x="331" y="278"/>
      <point x="331" y="306" type="curve" smooth="yes"/>
      <point x="331" y="313"/>
      <point x="328" y="320"/>
      <point x="321" y="324" type="curve" smooth="yes"/>
      <point x="304" y="337"/>
      <point x="261" y="336"/>
      <point x="239" y="346" type="curve"/>
      <point x="244" y="368"/>
      <point x="275" y="395"/>
      <point x="291" y="395" type="curve" smooth="yes"/>
      <point x="295" y="395"/>
      <point x="299" y="393"/>
      <point x="302" y="390" type="curve"/>
      <point x="318" y="397" type="line"/>
      <point x="314" y="416"/>
      <point x="303" y="425"/>
      <point x="285" y="425" type="curve" smooth="yes"/>
      <point x="248" y="425"/>
      <point x="206" y="380"/>
      <point x="206" y="348" type="curve" smooth="yes"/>
      <point x="206" y="308"/>
      <point x="242" y="300"/>
      <point x="305" y="299" type="curve"/>
      <point x="301" y="292"/>
      <point x="294" y="285"/>
      <point x="283" y="277" type="curve" smooth="yes"/>
      <point x="260" y="262"/>
      <point x="226" y="248"/>
      <point x="191" y="245" type="curve"/>
      <point x="191" y="234"/>
      <point x="198" y="225"/>
    </contour>
  </outline>
</glyph>
<glyph name="uni0644" format="2">
  <advance width="612"/>
  <unicode hex="0644"/>
  <unicode hex="FEDD"/>
  <anchor x="310" y="-301" name="bottom"/>
  <anchor x="430" y="729" name="top"/>
  <outline>
    <contour>
      <point x="251" y="-252" type="curve" smooth="yes"/>
      <point x="305" y="-252"/>
      <point x="355" y="-242"/>
      <point x="401" y="-220" type="curve" smooth="yes"/>
      <point x="492" y="-178"/>
      <point x="549" y="-97"/>
      <point x="549" y="-7" type="curve" smooth="yes"/>
      <point x="549" y="66"/>
      <point x="542" y="123"/>
      <point x="532" y="221" type="curve" smooth="yes"/>
      <point x="502" y="533" type="line"/>
      <point x="534" y="557" type="line"/>
      <point x="519" y="594"/>
      <point x="506" y="635"/>
      <point x="494" y="680" type="curve"/>
      <point x="435" y="680"/>
      <point x="386" y="634"/>
      <point x="386" y="578" type="curve" smooth="yes"/>
      <point x="386" y="551"/>
      <point x="442" y="219"/>
      <point x="471" y="72" type="curve" smooth="yes"/>
      <point x="493" y="-45" type="line"/>
      <point x="472" y="-64"/>
      <point x="451" y="-81"/>
      <point x="430" y="-93" type="curve" smooth="yes"/>
      <point x="380" y="-122"/>
      <point x="326" y="-134"/>
      <point x="253" y="-134" type="curve" smooth="yes"/>
      <point x="165" y="-134"/>
      <point x="123" y="-88"/>
      <point x="123" y="7" type="curve" smooth="yes"/>
      <point x="123" y="30"/>
      <point x="127" y="57"/>
      <point x="136" y="87" type="curve"/>
      <point x="92" y="98" type="line"/>
      <point x="76" y="35"/>
      <point x="67" y="-13"/>
      <point x="67" y="-47" type="curve" smooth="yes"/>
      <point x="67" y="-180"/>
      <point x="131" y="-252"/>
    </contour>
  </outline>
</glyph>
<glyph name="uni0645" format="2">
  <advance width="502"/>
  <unicode hex="0645"/>
  <unicode hex="FEE1"/>
  <anchor x="303" y="-58" name="bottom"/>
  <anchor x="227" y="456" name="top"/>
  <outline>
    <contour>
      <point x="74" y="-328" type="curve"/>
      <point x="107" y="-316"/>
      <point x="140" y="-297"/>
      <point x="175" y="-272" type="curve"/>
      <point x="163" y="-213"/>
      <point x="151" y="-155"/>
      <point x="139" y="-97" type="curve" smooth="yes"/>
      <point x="131" y="-60"/>
      <point x="123" y="-22"/>
      <point x="115" y="15" type="curve"/>
      <point x="162" y="32"/>
      <point x="312" y="51"/>
      <point x="422" y="51" type="curve"/>
      <point x="468" y="170" type="line"/>
      <point x="427" y="199"/>
      <point x="391" y="241"/>
      <point x="348" y="304" type="curve" smooth="yes"/>
      <point x="308" y="361"/>
      <point x="282" y="383"/>
      <point x="250" y="383" type="curve" smooth="yes"/>
      <point x="195" y="383"/>
      <point x="137" y="318"/>
      <point x="99" y="219" type="curve"/>
      <point x="140" y="198" type="line"/>
      <point x="172" y="243"/>
      <point x="200" y="266"/>
      <point x="231" y="266" type="curve" smooth="yes"/>
      <point x="263" y="266"/>
      <point x="290" y="224"/>
      <point x="324" y="180" type="curve" smooth="yes"/>
      <point x="343" y="159" type="line"/>
      <point x="289" y="159"/>
      <point x="102" y="136"/>
      <point x="93" y="118" type="curve" smooth="yes"/>
      <point x="65" y="58"/>
      <point x="51" y="18"/>
      <point x="51" y="0" type="curve" smooth="yes"/>
      <point x="51" y="-24"/>
      <point x="55" y="-70"/>
      <point x="62" y="-138" type="curve" smooth="yes"/>
      <point x="70" y="-205"/>
      <point x="74" y="-268"/>
    </contour>
  </outline>
</glyph>
<glyph name="uni0647" format="2">
  <advance width="425"/>
  <unicode hex="0647"/>
  <unicode hex="FEE9"/>
  <anchor x="215" y="-58" name="bottom"/>
  <anchor x="169" y="503" name="top"/>
  <outline>
    <contour>
      <point x="199" y="0" type="curve" smooth="yes"/>
      <point x="239" y="0"/>
      <point x="278" y="11"/>
      <point x="303" y="28" type="curve" smooth="yes"/>
      <point x="332" y="46"/>
      <point x="374" y="147"/>
      <point x="374" y="185" type="curve" smooth="yes"/>
      <point x="374" y="215"/>
      <point x="365" y="246"/>
      <point x="346" y="281" type="curve" smooth="yes"/>
      <point x="308" y="349"/>
      <point x="239" y="406"/>
      <point x="163" y="430" type="curve"/>
      <point x="144" y="420"/>
      <point x="132" y="392"/>
      <point x="132" y="364" type="curve" smooth="yes"/>
      <point x="132" y="344"/>
      <point x="137" y="323"/>
      <point x="159" y="310" type="curve"/>
      <point x="95" y="246"/>
      <point x="68" y="190"/>
      <point x="68" y="135" type="curve" smooth="yes"/>
      <point x="68" y="57"/>
      <point x="123" y="0"/>
    </contour>
    <contour>
      <point x="210" y="105" type="curve" smooth="yes"/>
      <point x="172" y="105"/>
      <point x="143" y="131"/>
      <point x="143" y="168" type="curve" smooth="yes"/>
      <point x="143" y="204"/>
      <point x="162" y="241"/>
      <point x="201" y="279" type="curve"/>
      <point x="256" y="238"/>
      <point x="289" y="192"/>
      <point x="309" y="133" type="curve"/>
      <point x="280" y="115"/>
      <point x="247" y="105"/>
    </contour>
  </outline>
</glyph>
<glyph name="uni0648" format="2">
  <advance width="497"/>
  <unicode hex="0648"/>
  <unicode hex="FEED"/>
  <anchor x="193" y="-244" name="bottom"/>
  <anchor x="271" y="439" name="top"/>
  <outline>
    <contour>
      <point x="195" y="-195" type="curve" smooth="yes"/>
      <point x="240" y="-195"/>
      <point x="282" y="-183"/>
      <point x="321" y="-157" type="curve" smooth="yes"/>
      <point x="398" y="-106"/>
      <point x="445" y="-12"/>
      <point x="445" y="89" type="curve" smooth="yes"/>
      <point x="445" y="131"/>
      <point x="437" y="174"/>
      <point x="421" y="219" type="curve" smooth="yes"/>
      <point x="388" y="309"/>
      <point x="333" y="366"/>
      <point x="276" y="366" type="curve" smooth="yes"/>
      <point x="252" y="366"/>
      <point x="228" y="355"/>
      <point x="206" y="333" type="curve" smooth="yes"/>
      <point x="160" y="290"/>
      <point x="130" y="213"/>
      <point x="130" y="138" type="curve" smooth="yes"/>
      <point x="130" y="50"/>
      <point x="177" y="0"/>
      <point x="260" y="0" type="curve" smooth="yes"/>
      <point x="306" y="0"/>
      <point x="353" y="25"/>
      <point x="392" y="65" type="curve"/>
      <point x="393" y="58" type="line"/>
      <point x="363" y="-31"/>
      <point x="281" y="-86"/>
      <point x="177" y="-86" type="curve" smooth="yes"/>
      <point x="139" y="-86"/>
      <point x="103" y="-81"/>
      <point x="67" y="-72" type="curve"/>
      <point x="51" y="-114" type="line"/>
      <point x="101" y="-156"/>
      <point x="170" y="-195"/>
    </contour>
    <contour>
      <point x="280" y="110" type="curve" smooth="yes"/>
      <point x="219" y="110"/>
      <point x="184" y="131"/>
      <point x="184" y="171" type="curve" smooth="yes"/>
      <point x="184" y="180"/>
      <point x="185" y="189"/>
      <point x="188" y="198" type="curve" smooth="yes"/>
      <point x="199" y="226"/>
      <point x="226" y="246"/>
      <point x="259" y="246" type="curve" smooth="yes"/>
      <point x="275" y="246"/>
      <point x="290" y="240"/>
      <point x="305" y="230" type="curve" smooth="yes"/>
      <point x="336" y="209"/>
      <point x="363" y="164"/>
      <point x="375" y="127" type="curve"/>
      <point x="342" y="116"/>
      <point x="310" y="110"/>
    </contour>
  </outline>
</glyph>
<glyph name="uni0649" format="2">
  <advance width="636"/>
  <unicode hex="0649"/>
  <unicode hex="FEEF"/>
  <anchor x="251" y="-301" name="bottom"/>
  <anchor x="215" y="310" name="top"/>
  <outline>
    <contour>
      <point x="251" y="-252" type="curve" smooth="yes"/>
      <point x="304" y="-252"/>
      <point x="357" y="-240"/>
      <point x="410" y="-215" type="curve" smooth="yes"/>
      <point x="518" y="-165"/>
      <point x="597" y="-80"/>
      <point x="597" y="-19" type="curve" smooth="yes"/>
      <point x="597" y="11"/>
      <point x="583" y="48"/>
      <point x="563" y="63" type="curve" smooth="yes"/>
      <point x="543" y="79"/>
      <point x="518" y="87"/>
      <point x="472" y="93" type="curve" smooth="yes"/>
      <point x="420" y="99"/>
      <point x="380" y="107"/>
      <point x="354" y="118" type="curve"/>
      <point x="365" y="145"/>
      <point x="380" y="170"/>
      <point x="400" y="192" type="curve" smooth="yes"/>
      <point x="441" y="238"/>
      <point x="490" y="266"/>
      <point x="526" y="266" type="curve" smooth="yes"/>
      <point x="538" y="266"/>
      <point x="548" y="260"/>
      <point x="558" y="247" type="curve"/>
      <point x="602" y="256" type="line"/>
      <point x="589" y="341"/>
      <point x="560" y="385"/>
      <point x="514" y="385" type="curve" smooth="yes"/>
      <point x="485" y="385"/>
      <point x="453" y="371"/>
      <point x="420" y="344" type="curve" smooth="yes"/>
      <point x="353" y="288"/>
      <point x="303" y="194"/>
      <point x="303" y="119" type="curve" smooth="yes"/>
      <point x="303" y="85"/>
      <point x="311" y="58"/>
      <point x="327" y="36" type="curve" smooth="yes"/>
      <point x="355" y="-1"/>
      <point x="411" y="-22"/>
      <point x="500" y="-27" type="curve" smooth="yes"/>
      <point x="514" y="-28"/>
      <point x="530" y="-28"/>
      <point x="546" y="-28" type="curve"/>
      <point x="519" y="-49"/>
      <point x="489" y="-67"/>
      <point x="458" y="-83" type="curve" smooth="yes"/>
      <point x="393" y="-115"/>
      <point x="322" y="-134"/>
      <point x="263" y="-134" type="curve" smooth="yes"/>
      <point x="170" y="-134"/>
      <point x="123" y="-86"/>
      <point x="123" y="7" type="curve" smooth="yes"/>
      <point x="123" y="30"/>
      <point x="128" y="57"/>
      <point x="137" y="87" type="curve"/>
      <point x="93" y="98" type="line"/>
      <point x="76" y="35"/>
      <point x="68" y="-13"/>
      <point x="68" y="-47" type="curve" smooth="yes"/>
      <point x="68" y="-180"/>
      <point x="132" y="-252"/>
    </contour>
  </outline>
</glyph>
<glyph name="uni064B" format="2">
  <unicode hex="064B"/>
  <anchor x="85" y="459" name="_top"/>
  <anchor x="85" y="459" name="_top2"/>
  <anchor x="85" y="459" name="_top3"/>
  <anchor x="63" y="650" name="top3"/>
  <outline>
    <contour>
      <point x="-11" y="458" type="line"/>
      <point x="56" y="479"/>
      <point x="109" y="498"/>
      <point x="148" y="516" type="curve" smooth="yes"/>
      <point x="163" y="523"/>
      <point x="171" y="535"/>
      <point x="171" y="552" type="curve"/>
      <point x="170" y="562" type="line"/>
      <point x="100" y="535"/>
      <point x="42" y="515"/>
      <point x="-7" y="500" type="curve"/>
    </contour>
    <contour>
      <point x="-21" y="529" type="line"/>
      <point x="42" y="547"/>
      <point x="95" y="564"/>
      <point x="137" y="583" type="curve" smooth="yes"/>
      <point x="152" y="589"/>
      <point x="159" y="602"/>
      <point x="159" y="620" type="curve"/>
      <point x="158" y="631" type="line"/>
      <point x="99" y="607"/>
      <point x="40" y="587"/>
      <point x="-18" y="569" type="curve"/>
    </contour>
  </outline>
</glyph>
<glyph name="uni064C" format="2">
  <unicode hex="064C"/>
  <anchor x="85" y="445" name="_top"/>
  <anchor x="85" y="445" name="_top2"/>
  <anchor x="85" y="445" name="_top3"/>
  <anchor x="77" y="639" name="top3"/>
  <outline>
    <contour>
      <point x="17" y="445" type="curve" smooth="yes"/>
      <point x="35" y="445"/>
      <point x="80" y="470"/>
      <point x="106" y="497" type="curve"/>
      <point x="120" y="496" type="line"/>
      <point x="147" y="496"/>
      <point x="159" y="503"/>
      <point x="160" y="523" type="curve"/>
      <point x="150" y="524"/>
      <point x="140" y="525"/>
      <point x="129" y="525" type="curve"/>
      <point x="132" y="531"/>
      <point x="133" y="540"/>
      <point x="133" y="551" type="curve" smooth="yes"/>
      <point x="133" y="574"/>
      <point x="130" y="590"/>
      <point x="123" y="600" type="curve" smooth="yes"/>
      <point x="115" y="610"/>
      <point x="108" y="615"/>
      <point x="99" y="615" type="curve" smooth="yes"/>
      <point x="72" y="615"/>
      <point x="41" y="584"/>
      <point x="41" y="554" type="curve" smooth="yes"/>
      <point x="41" y="533"/>
      <point x="58" y="515"/>
      <point x="78" y="506" type="curve"/>
      <point x="62" y="493"/>
      <point x="42" y="484"/>
      <point x="18" y="479" type="curve"/>
      <point x="21" y="488"/>
      <point x="22" y="497"/>
      <point x="22" y="505" type="curve" smooth="yes"/>
      <point x="22" y="529"/>
      <point x="13" y="541"/>
      <point x="-4" y="541" type="curve" smooth="yes"/>
      <point x="-18" y="541"/>
      <point x="-35" y="528"/>
      <point x="-55" y="502" type="curve"/>
      <point x="-47" y="492" type="line"/>
      <point x="-29" y="500"/>
      <point x="-18" y="505"/>
      <point x="-14" y="505" type="curve" smooth="yes"/>
      <point x="-7" y="505"/>
      <point x="-4" y="500"/>
      <point x="-4" y="490" type="curve"/>
      <point x="-8" y="464" type="line"/>
      <point x="-8" y="461"/>
      <point x="13" y="445"/>
    </contour>
    <contour>
      <point x="104" y="531" type="line"/>
      <point x="78" y="541"/>
      <point x="65" y="553"/>
      <point x="65" y="568" type="curve" smooth="yes"/>
      <point x="65" y="574"/>
      <point x="75" y="583"/>
      <point x="87" y="583" type="curve" smooth="yes"/>
      <point x="102" y="583"/>
      <point x="108" y="566"/>
      <point x="108" y="549" type="curve" smooth="yes"/>
      <point x="108" y="545"/>
      <point x="108" y="541"/>
      <point x="106" y="536" type="curve" smooth="yes"/>
    </contour>
  </outline>
</glyph>
<glyph name="uni064D" format="2">
  <unicode hex="064D"/>
  <anchor x="79" y="15" name="_bottom"/>
  <anchor x="79" y="15" name="_bottom2"/>
  <anchor x="79" y="15" name="_bottom3"/>
  <anchor x="102" y="-125" name="bottom3"/>
  <outline>
    <contour>
      <point x="0" y="-73" type="line"/>
      <point x="75" y="-50"/>
      <point x="115" y="-36"/>
      <point x="137" y="-26" type="curve" smooth="yes"/>
      <point x="165" y="-14"/>
      <point x="175" y="-9"/>
      <point x="175" y="11" type="curve" smooth="yes"/>
      <point x="174" y="17" type="line"/>
      <point x="124" y="-3"/>
      <point x="66" y="-22"/>
      <point x="3" y="-40" type="curve"/>
    </contour>
    <contour>
      <point x="7" y="-125" type="line"/>
      <point x="77" y="-103"/>
      <point x="119" y="-89"/>
      <point x="133" y="-83" type="curve" smooth="yes"/>
      <point x="166" y="-70"/>
      <point x="182" y="-65"/>
      <point x="182" y="-42" type="curve" smooth="yes"/>
      <point x="182" y="-35" type="line"/>
      <point x="131" y="-55"/>
      <point x="74" y="-74"/>
      <point x="10" y="-92" type="curve"/>
    </contour>
  </outline>
</glyph>
<glyph name="uni064E" format="2">
  <unicode hex="064E"/>
  <anchor x="90" y="460" name="_top"/>
  <anchor x="90" y="460" name="_top2"/>
  <anchor x="90" y="460" name="_top3"/>
  <anchor x="77" y="584" name="top3"/>
  <outline>
    <contour>
      <point x="-11" y="461" type="line"/>
      <point x="58" y="482"/>
      <point x="111" y="501"/>
      <point x="148" y="519" type="curve" smooth="yes"/>
      <point x="164" y="526"/>
      <point x="171" y="538"/>
      <point x="171" y="554" type="curve"/>
      <point x="170" y="565" type="line"/>
      <point x="137" y="552"/>
      <point x="78" y="531"/>
      <point x="-6" y="503" type="curve"/>
    </contour>
  </outline>
</glyph>
<glyph name="uni064F" format="2">
  <unicode hex="064F"/>
  <anchor x="74" y="443" name="_top"/>
  <anchor x="74" y="443" name="_top2"/>
  <anchor x="74" y="443" name="_top3"/>
  <anchor x="58" y="639" name="top3"/>
  <outline>
    <contour>
      <point x="0" y="443" type="curve" smooth="yes"/>
      <point x="25" y="443"/>
      <point x="61" y="463"/>
      <point x="95" y="497" type="curve"/>
      <point x="107" y="496" type="line"/>
      <point x="135" y="496"/>
      <point x="146" y="503"/>
      <point x="147" y="523" type="curve"/>
      <point x="116" y="525" type="line"/>
      <point x="119" y="534"/>
      <point x="121" y="542"/>
      <point x="121" y="551" type="curve" smooth="yes"/>
      <point x="121" y="574"/>
      <point x="117" y="590"/>
      <point x="110" y="600" type="curve" smooth="yes"/>
      <point x="103" y="610"/>
      <point x="95" y="615"/>
      <point x="86" y="615" type="curve" smooth="yes"/>
      <point x="60" y="615"/>
      <point x="28" y="585"/>
      <point x="28" y="553" type="curve" smooth="yes"/>
      <point x="28" y="533"/>
      <point x="41" y="517"/>
      <point x="65" y="506" type="curve"/>
      <point x="37" y="487"/>
      <point x="6" y="474"/>
      <point x="-28" y="468" type="curve"/>
      <point x="-28" y="452"/>
      <point x="-17" y="443"/>
    </contour>
    <contour>
      <point x="91" y="531" type="line"/>
      <point x="65" y="541"/>
      <point x="52" y="553"/>
      <point x="52" y="568" type="curve" smooth="yes"/>
      <point x="52" y="574"/>
      <point x="62" y="583"/>
      <point x="74" y="583" type="curve" smooth="yes"/>
      <point x="89" y="583"/>
      <point x="96" y="566"/>
      <point x="96" y="549" type="curve" smooth="yes"/>
      <point x="96" y="545"/>
      <point x="95" y="541"/>
      <point x="93" y="536" type="curve" smooth="yes"/>
    </contour>
  </outline>
</glyph>
<glyph name="uni0650" format="2">
  <unicode hex="0650"/>
  <anchor x="70" y="3" name="_bottom"/>
  <anchor x="70" y="3" name="_bottom2"/>
  <anchor x="70" y="3" name="_bottom3"/>
  <anchor x="86" y="-99" name="bottom3"/>
  <outline>
    <contour>
      <point x="-11" y="-100" type="line"/>
      <point x="58" y="-79"/>
      <point x="111" y="-60"/>
      <point x="148" y="-42" type="curve" smooth="yes"/>
      <point x="164" y="-35"/>
      <point x="171" y="-23"/>
      <point x="171" y="-6" type="curve"/>
      <point x="170" y="4" type="line"/>
      <point x="137" y="-9"/>
      <point x="78" y="-30"/>
      <point x="-6" y="-58" type="curve"/>
    </contour>
  </outline>
</glyph>
<glyph name="uni0651" format="2">
  <unicode hex="0651"/>
  <anchor x="69" y="447" name="_top"/>
  <anchor x="69" y="447" name="_top2"/>
  <anchor x="69" y="447" name="_top3"/>
  <anchor x="54" y="602" name="top3"/>
  <outline>
    <contour>
      <point x="24" y="457" type="curve" smooth="yes"/>
      <point x="42" y="457"/>
      <point x="59" y="468"/>
      <point x="68" y="491" type="curve"/>
      <point x="76" y="481"/>
      <point x="86" y="477"/>
      <point x="100" y="477" type="curve" smooth="yes"/>
      <point x="126" y="477"/>
      <point x="148" y="502"/>
      <point x="148" y="533" type="curve" smooth="yes"/>
      <point x="148" y="543"/>
      <point x="144" y="569"/>
      <point x="132" y="592" type="curve"/>
      <point x="120" y="589"/>
      <point x="108" y="576"/>
      <point x="108" y="565" type="curve"/>
      <point x="110" y="557" type="line"/>
      <point x="118" y="540"/>
      <point x="123" y="528"/>
      <point x="124" y="521" type="curve"/>
      <point x="122" y="516"/>
      <point x="114" y="510"/>
      <point x="106" y="510" type="curve" smooth="yes"/>
      <point x="80" y="510"/>
      <point x="73" y="529"/>
      <point x="69" y="562" type="curve"/>
      <point x="48" y="549" type="line"/>
      <point x="50" y="518" type="line" smooth="yes"/>
      <point x="50" y="501"/>
      <point x="40" y="490"/>
      <point x="26" y="490" type="curve" smooth="yes"/>
      <point x="12" y="490"/>
      <point x="5" y="499"/>
      <point x="5" y="515" type="curve" smooth="yes"/>
      <point x="5" y="524"/>
      <point x="6" y="532"/>
      <point x="8" y="539" type="curve"/>
      <point x="-5" y="542" type="line"/>
      <point x="-13" y="527"/>
      <point x="-17" y="513"/>
      <point x="-17" y="500" type="curve" smooth="yes"/>
      <point x="-17" y="471"/>
      <point x="0" y="457"/>
    </contour>
  </outline>
</glyph>
<glyph name="uni0652" format="2">
  <unicode hex="0652"/>
  <anchor x="66" y="458" name="_top"/>
  <anchor x="66" y="458" name="_top2"/>
  <anchor x="66" y="458" name="_top3"/>
  <anchor x="66" y="604" name="top3"/>
  <outline>
    <contour>
      <point x="65" y="468" type="curve" smooth="yes"/>
      <point x="92" y="468"/>
      <point x="118" y="493"/>
      <point x="118" y="524" type="curve" smooth="yes"/>
      <point x="118" y="562"/>
      <point x="93" y="590"/>
      <point x="66" y="590" type="curve" smooth="yes"/>
      <point x="40" y="590"/>
      <point x="16" y="562"/>
      <point x="16" y="524" type="curve" smooth="yes"/>
      <point x="16" y="492"/>
      <point x="36" y="468"/>
    </contour>
    <contour>
      <point x="66" y="503" type="curve" smooth="yes"/>
      <point x="42" y="503"/>
      <point x="36" y="518"/>
      <point x="36" y="530" type="curve" smooth="yes"/>
      <point x="36" y="545"/>
      <point x="50" y="554"/>
      <point x="61" y="554" type="curve" smooth="yes"/>
      <point x="79" y="554"/>
      <point x="98" y="536"/>
      <point x="98" y="524" type="curve" smooth="yes"/>
      <point x="98" y="515"/>
      <point x="82" y="503"/>
    </contour>
  </outline>
</glyph>
<glyph name="uni0653" format="2">
  <unicode hex="0653"/>
  <anchor x="67" y="561" name="_top"/>
  <anchor x="67" y="561" name="_top2"/>
  <anchor x="67" y="561" name="_top3"/>
  <anchor x="68" y="657" name="top3"/>
  <outline>
    <contour>
      <point x="-56" y="569" type="line"/>
      <point x="-8" y="592" type="line"/>
      <point x="30" y="578"/>
      <point x="64" y="571"/>
      <point x="95" y="571" type="curve" smooth="yes"/>
      <point x="119" y="571"/>
      <point x="160" y="590"/>
      <point x="187" y="617" type="curve"/>
      <point x="179" y="639" type="line"/>
      <point x="160" y="630"/>
      <point x="121" y="621"/>
      <point x="99" y="621" type="curve" smooth="yes"/>
      <point x="82" y="621"/>
      <point x="54" y="625"/>
      <point x="15" y="635" type="curve"/>
      <point x="-2" y="637" type="line"/>
      <point x="-7" y="637"/>
      <point x="-29" y="621"/>
      <point x="-68" y="589" type="curve"/>
    </contour>
  </outline>
</glyph>
<glyph name="uni0654" format="2">
  <unicode hex="0654"/>
  <anchor x="81" y="465" name="_top"/>
  <anchor x="81" y="465" name="_top2"/>
  <anchor x="81" y="465" name="_top3"/>
  <anchor x="60" y="680" name="top3"/>
  <outline>
    <contour>
      <point x="13" y="460" type="line"/>
      <point x="62" y="486"/>
      <point x="87" y="494"/>
      <point x="135" y="505" type="curve"/>
      <point x="139" y="549" type="line"/>
      <point x="124" y="546"/>
      <point x="111" y="545"/>
      <point x="100" y="545" type="curve" smooth="yes"/>
      <point x="79" y="545"/>
      <point x="62" y="551"/>
      <point x="50" y="563" type="curve"/>
      <point x="59" y="580"/>
      <point x="71" y="588"/>
      <point x="85" y="588" type="curve" smooth="yes"/>
      <point x="93" y="588"/>
      <point x="97" y="585"/>
      <point x="97" y="579" type="curve" smooth="yes"/>
      <point x="97" y="576" type="line"/>
      <point x="117" y="573" type="line"/>
      <point x="120" y="579"/>
      <point x="121" y="587"/>
      <point x="121" y="596" type="curve" smooth="yes"/>
      <point x="121" y="626"/>
      <point x="109" y="641"/>
      <point x="84" y="641" type="curve" smooth="yes"/>
      <point x="53" y="641"/>
      <point x="14" y="597"/>
      <point x="14" y="562" type="curve" smooth="yes"/>
      <point x="14" y="544"/>
      <point x="25" y="531"/>
      <point x="46" y="523" type="curve"/>
      <point x="10" y="502" type="line"/>
    </contour>
  </outline>
</glyph>
<glyph name="uni0655" format="2">
  <unicode hex="0655"/>
  <anchor x="84" y="54" name="_bottom"/>
  <anchor x="84" y="54" name="_bottom2"/>
  <anchor x="84" y="54" name="_bottom3"/>
  <anchor x="102" y="-126" name="bottom3"/>
  <outline>
    <contour>
      <point x="28" y="-137" type="line"/>
      <point x="77" y="-112"/>
      <point x="102" y="-104"/>
      <point x="150" y="-93" type="curve"/>
      <point x="154" y="-48" type="line"/>
      <point x="140" y="-51"/>
      <point x="127" y="-53"/>
      <point x="115" y="-53" type="curve" smooth="yes"/>
      <point x="94" y="-53"/>
      <point x="78" y="-47"/>
      <point x="66" y="-35" type="curve"/>
      <point x="75" y="-18"/>
      <point x="86" y="-10"/>
      <point x="101" y="-10" type="curve" smooth="yes"/>
      <point x="109" y="-10"/>
      <point x="113" y="-13"/>
      <point x="113" y="-19" type="curve" smooth="yes"/>
      <point x="113" y="-21" type="line"/>
      <point x="132" y="-25" type="line"/>
      <point x="135" y="-18"/>
      <point x="137" y="-11"/>
      <point x="137" y="-1" type="curve" smooth="yes"/>
      <point x="137" y="28"/>
      <point x="124" y="43"/>
      <point x="100" y="43" type="curve" smooth="yes"/>
      <point x="69" y="43"/>
      <point x="30" y="0"/>
      <point x="30" y="-36" type="curve" smooth="yes"/>
      <point x="30" y="-54"/>
      <point x="41" y="-67"/>
      <point x="62" y="-74" type="curve"/>
      <point x="26" y="-96" type="line"/>
    </contour>
  </outline>
</glyph>
<glyph name="uni0656" format="2">
  <unicode hex="0656"/>
  <anchor x="9" y="6" name="_bottom"/>
  <anchor x="9" y="6" name="_bottom2"/>
  <anchor x="9" y="6" name="_bottom3"/>
  <anchor x="11" y="-253" name="bottom3"/>
  <outline>
    <contour>
      <point x="11" y="-244" type="line"/>
      <point x="28" y="-220"/>
      <point x="37" y="-191"/>
      <point x="37" y="-158" type="curve" smooth="yes"/>
      <point x="37" y="-94"/>
      <point x="32" y="-59"/>
      <point x="22" y="-8" type="curve"/>
      <point x="0" y="-17"/>
      <point x="-15" y="-38"/>
      <point x="-15" y="-64" type="curve" smooth="yes"/>
      <point x="-15" y="-71"/>
      <point x="-14" y="-78"/>
      <point x="-12" y="-87" type="curve" smooth="yes"/>
      <point x="-1" y="-132"/>
      <point x="5" y="-184"/>
      <point x="5" y="-242" type="curve"/>
    </contour>
  </outline>
</glyph>
<glyph name="uni0657" format="2">
  <unicode hex="0657"/>
  <anchor x="75" y="465" name="_top"/>
  <anchor x="75" y="465" name="_top2"/>
  <anchor x="75" y="465" name="_top3"/>
  <anchor x="78" y="694" name="top3"/>
  <outline>
    <contour>
      <point x="70" y="475" type="curve" smooth="yes"/>
      <point x="102" y="475"/>
      <point x="139" y="511"/>
      <point x="139" y="548" type="curve" smooth="yes"/>
      <point x="139" y="572"/>
      <point x="121" y="592"/>
      <point x="94" y="604" type="curve"/>
      <point x="96" y="605" type="line" smooth="yes"/>
      <point x="127" y="627"/>
      <point x="164" y="641"/>
      <point x="206" y="648" type="curve"/>
      <point x="206" y="668"/>
      <point x="192" y="679"/>
      <point x="171" y="679" type="curve" smooth="yes"/>
      <point x="143" y="679"/>
      <point x="100" y="656"/>
      <point x="59" y="615" type="curve"/>
      <point x="45" y="616" type="line"/>
      <point x="14" y="616"/>
      <point x="0" y="608"/>
      <point x="-3" y="584" type="curve"/>
      <point x="9" y="584"/>
      <point x="21" y="583"/>
      <point x="34" y="581" type="curve"/>
      <point x="31" y="573"/>
      <point x="29" y="563"/>
      <point x="29" y="551" type="curve" smooth="yes"/>
      <point x="29" y="504"/>
      <point x="46" y="475"/>
    </contour>
    <contour>
      <point x="84" y="513" type="curve" smooth="yes"/>
      <point x="67" y="513"/>
      <point x="59" y="533"/>
      <point x="59" y="554" type="curve" smooth="yes"/>
      <point x="59" y="562"/>
      <point x="60" y="568"/>
      <point x="64" y="574" type="curve"/>
      <point x="87" y="569"/>
      <point x="110" y="552"/>
      <point x="110" y="531" type="curve" smooth="yes"/>
      <point x="110" y="524"/>
      <point x="98" y="513"/>
    </contour>
  </outline>
</glyph>
<glyph name="uni0658" format="2">
  <unicode hex="0658"/>
  <anchor x="92" y="513" name="_top"/>
  <anchor x="92" y="513" name="_top2"/>
  <anchor x="92" y="513" name="_top3"/>
  <anchor x="102" y="670" name="top3"/>
  <outline>
    <contour>
      <point x="92" y="523" type="curve" smooth="yes"/>
      <point x="135" y="523"/>
      <point x="165" y="564"/>
      <point x="176" y="643" type="curve"/>
      <point x="160" y="646" type="line"/>
      <point x="149" y="592"/>
      <point x="127" y="564"/>
      <point x="95" y="564" type="curve" smooth="yes"/>
      <point x="61" y="564"/>
      <point x="40" y="592"/>
      <point x="34" y="646" type="curve"/>
      <point x="22" y="646"/>
      <point x="10" y="633"/>
      <point x="10" y="618" type="curve" smooth="yes"/>
      <point x="10" y="603"/>
      <point x="14" y="587"/>
      <point x="21" y="571" type="curve" smooth="yes"/>
      <point x="36" y="539"/>
      <point x="61" y="523"/>
    </contour>
  </outline>
</glyph>
<glyph name="uni0659" format="2">
  <unicode hex="0659"/>
  <anchor x="125" y="461" name="_top"/>
  <anchor x="125" y="461" name="_top2"/>
  <anchor x="125" y="461" name="_top3"/>
  <anchor x="122" y="541" name="top3"/>
  <outline>
    <contour>
      <point x="26" y="471" type="line"/>
      <point x="100" y="472"/>
      <point x="170" y="480"/>
      <point x="208" y="483" type="curve" smooth="yes"/>
      <point x="218" y="484"/>
      <point x="226" y="501"/>
      <point x="226" y="516" type="curve"/>
      <point x="132" y="509"/>
      <point x="69" y="505"/>
      <point x="34" y="505" type="curve"/>
    </contour>
  </outline>
</glyph>
<glyph name="uni065A" format="2">
  <unicode hex="065A"/>
  <anchor x="138" y="318" name="_top"/>
  <anchor x="138" y="318" name="_top2"/>
  <anchor x="138" y="318" name="_top3"/>
  <anchor x="125" y="506" name="top3"/>
  <outline>
    <contour>
      <point x="108" y="328" type="curve"/>
      <point x="128" y="331"/>
      <point x="144" y="336"/>
      <point x="157" y="344" type="curve"/>
      <point x="176" y="403"/>
      <point x="207" y="451"/>
      <point x="207" y="463" type="curve" smooth="yes"/>
      <point x="207" y="480"/>
      <point x="196" y="490"/>
      <point x="185" y="491" type="curve"/>
      <point x="171" y="474"/>
      <point x="146" y="414"/>
      <point x="139" y="376" type="curve"/>
      <point x="130" y="398"/>
      <point x="121" y="417"/>
      <point x="112" y="433" type="curve" smooth="yes"/>
      <point x="92" y="467"/>
      <point x="80" y="478"/>
      <point x="60" y="478" type="curve" smooth="yes"/>
      <point x="55" y="478"/>
      <point x="50" y="477"/>
      <point x="45" y="476" type="curve" smooth="yes"/>
      <point x="29" y="472" type="line"/>
      <point x="62" y="427"/>
      <point x="84" y="378"/>
    </contour>
  </outline>
</glyph>
<glyph name="uni065B" format="2">
  <unicode hex="065B"/>
  <anchor x="119" y="339" name="_top"/>
  <anchor x="119" y="339" name="_top2"/>
  <anchor x="119" y="339" name="_top3"/>
  <anchor x="93" y="527" name="top3"/>
  <outline>
    <contour>
      <point x="51" y="349" type="curve"/>
      <point x="67" y="371"/>
      <point x="91" y="428"/>
      <point x="97" y="464" type="curve"/>
      <point x="113" y="425"/>
      <point x="129" y="396"/>
      <point x="145" y="377" type="curve" smooth="yes"/>
      <point x="153" y="367"/>
      <point x="163" y="362"/>
      <point x="176" y="362" type="curve" smooth="yes"/>
      <point x="186" y="362"/>
      <point x="200" y="366"/>
      <point x="207" y="369" type="curve"/>
      <point x="182" y="403"/>
      <point x="156" y="451"/>
      <point x="128" y="513" type="curve"/>
      <point x="109" y="510"/>
      <point x="93" y="504"/>
      <point x="80" y="496" type="curve"/>
      <point x="59" y="438"/>
      <point x="29" y="387"/>
      <point x="29" y="377" type="curve" smooth="yes"/>
      <point x="29" y="359"/>
      <point x="40" y="350"/>
    </contour>
  </outline>
</glyph>
<glyph name="uni065C" format="2">
  <unicode hex="065C"/>
  <anchor x="0" y="-165" name="_bottom"/>
  <anchor x="0" y="-165" name="_bottom2"/>
  <anchor x="0" y="-165" name="_bottom3"/>
  <anchor x="0" y="-336" name="bottom3"/>
  <outline>
    <contour>
      <point x="0" y="-326" type="curve" smooth="yes"/>
      <point x="40" y="-326"/>
      <point x="73" y="-293"/>
      <point x="73" y="-253" type="curve" smooth="yes"/>
      <point x="73" y="-213"/>
      <point x="40" y="-180"/>
      <point x="0" y="-180" type="curve" smooth="yes"/>
      <point x="-40" y="-180"/>
      <point x="-73" y="-213"/>
      <point x="-73" y="-253" type="curve" smooth="yes"/>
      <point x="-73" y="-293"/>
      <point x="-40" y="-326"/>
    </contour>
  </outline>
</glyph>
<glyph name="uni065D" format="2">
  <unicode hex="065D"/>
  <anchor x="79" y="483" name="_top"/>
  <anchor x="79" y="483" name="_top2"/>
  <anchor x="79" y="483" name="_top3"/>
  <anchor x="86" y="712" name="top3"/>
  <outline>
    <contour>
      <point x="186" y="493" type="curve" smooth="yes"/>
      <point x="207" y="493"/>
      <point x="221" y="504"/>
      <point x="221" y="524" type="curve"/>
      <point x="180" y="531"/>
      <point x="145" y="545"/>
      <point x="109" y="568" type="curve"/>
      <point x="141" y="585"/>
      <point x="153" y="601"/>
      <point x="153" y="625" type="curve" smooth="yes"/>
      <point x="153" y="661"/>
      <point x="117" y="697"/>
      <point x="84" y="697" type="curve" smooth="yes"/>
      <point x="61" y="697"/>
      <point x="44" y="670"/>
      <point x="44" y="622" type="curve" smooth="yes"/>
      <point x="44" y="610"/>
      <point x="46" y="599"/>
      <point x="49" y="591" type="curve"/>
      <point x="36" y="589"/>
      <point x="23" y="588"/>
      <point x="12" y="588" type="curve"/>
      <point x="14" y="564"/>
      <point x="29" y="557"/>
      <point x="60" y="557" type="curve"/>
      <point x="74" y="558" type="line"/>
      <point x="113" y="518"/>
      <point x="157" y="493"/>
    </contour>
    <contour>
      <point x="79" y="598" type="curve"/>
      <point x="76" y="605"/>
      <point x="74" y="612"/>
      <point x="74" y="619" type="curve" smooth="yes"/>
      <point x="74" y="640"/>
      <point x="82" y="660"/>
      <point x="99" y="660" type="curve" smooth="yes"/>
      <point x="113" y="660"/>
      <point x="125" y="648"/>
      <point x="125" y="641" type="curve" smooth="yes"/>
      <point x="125" y="624"/>
      <point x="110" y="609"/>
    </contour>
  </outline>
</glyph>
<glyph name="uni065E" format="2">
  <unicode hex="065E"/>
  <anchor x="104" y="496" name="_top"/>
  <anchor x="104" y="496" name="_top2"/>
  <anchor x="104" y="496" name="_top3"/>
  <anchor x="133" y="688" name="top3"/>
  <outline>
    <contour>
      <point x="24" y="518" type="line"/>
      <point x="76" y="541"/>
      <point x="154" y="588"/>
      <point x="205" y="625" type="curve" smooth="yes"/>
      <point x="208" y="628"/>
      <point x="210" y="633"/>
      <point x="210" y="641" type="curve" smooth="yes"/>
      <point x="210" y="650"/>
      <point x="208" y="659"/>
      <point x="204" y="669" type="curve"/>
      <point x="187" y="659"/>
      <point x="153" y="632"/>
      <point x="128" y="614" type="curve" smooth="yes"/>
      <point x="98" y="592"/>
      <point x="64" y="569"/>
      <point x="34" y="558" type="curve"/>
    </contour>
    <contour>
      <point x="167" y="506" type="line"/>
      <point x="174" y="512"/>
      <point x="183" y="523"/>
      <point x="193" y="540" type="curve"/>
      <point x="177" y="555"/>
      <point x="165" y="565"/>
      <point x="156" y="571" type="curve"/>
      <point x="143" y="555" type="line"/>
      <point x="130" y="537" type="line"/>
    </contour>
    <contour>
      <point x="78" y="608" type="line"/>
      <point x="85" y="614"/>
      <point x="94" y="625"/>
      <point x="104" y="642" type="curve"/>
      <point x="91" y="655"/>
      <point x="79" y="666"/>
      <point x="67" y="674" type="curve"/>
      <point x="53" y="656"/>
      <point x="44" y="644"/>
      <point x="42" y="640" type="curve"/>
    </contour>
  </outline>
</glyph>
<glyph name="uni065F" format="2">
  <unicode hex="065F"/>
  <anchor x="54" y="78" name="_bottom"/>
  <anchor x="54" y="78" name="_bottom2"/>
  <anchor x="54" y="78" name="_bottom3"/>
  <anchor x="48" y="-123" name="bottom3"/>
  <outline>
    <contour>
      <point x="-58" y="-117" type="line"/>
      <point x="-46" y="-105"/>
      <point x="-35" y="-100"/>
      <point x="-25" y="-100" type="curve" smooth="yes"/>
      <point x="-21" y="-100"/>
      <point x="-13" y="-102"/>
      <point x="-3" y="-107" type="curve" smooth="yes"/>
      <point x="6" y="-112"/>
      <point x="16" y="-114"/>
      <point x="25" y="-114" type="curve" smooth="yes"/>
      <point x="48" y="-114"/>
      <point x="90" y="-96"/>
      <point x="120" y="-75" type="curve"/>
      <point x="122" y="-31" type="line"/>
      <point x="102" y="-37"/>
      <point x="89" y="-40"/>
      <point x="82" y="-40" type="curve" smooth="yes"/>
      <point x="66" y="-40"/>
      <point x="50" y="-32"/>
      <point x="35" y="-17" type="curve"/>
      <point x="43" y="0"/>
      <point x="55" y="9"/>
      <point x="70" y="9" type="curve" smooth="yes"/>
      <point x="81" y="9"/>
      <point x="82" y="4"/>
      <point x="82" y="-3" type="curve"/>
      <point x="101" y="-6" type="line"/>
      <point x="104" y="1"/>
      <point x="106" y="9"/>
      <point x="106" y="18" type="curve" smooth="yes"/>
      <point x="106" y="48"/>
      <point x="94" y="63"/>
      <point x="69" y="63" type="curve" smooth="yes"/>
      <point x="57" y="63"/>
      <point x="44" y="57"/>
      <point x="33" y="46" type="curve" smooth="yes"/>
      <point x="14" y="30"/>
      <point x="-1" y="5"/>
      <point x="-1" y="-17" type="curve" smooth="yes"/>
      <point x="-1" y="-39"/>
      <point x="12" y="-54"/>
      <point x="37" y="-62" type="curve"/>
      <point x="33" y="-64"/>
      <point x="28" y="-65"/>
      <point x="22" y="-65" type="curve" smooth="yes"/>
      <point x="14" y="-65"/>
      <point x="6" y="-64"/>
      <point x="-2" y="-62" type="curve" smooth="yes"/>
      <point x="-10" y="-59"/>
      <point x="-16" y="-58"/>
      <point x="-24" y="-58" type="curve" smooth="yes"/>
      <point x="-44" y="-58"/>
      <point x="-65" y="-77"/>
      <point x="-77" y="-102" type="curve"/>
    </contour>
  </outline>
</glyph>
<glyph name="uni0660" format="2">
  <advance width="358"/>
  <unicode hex="0660"/>
  <outline>
    <contour>
      <point x="211" y="118" type="curve"/>
      <point x="259" y="186"/>
      <point x="282" y="226"/>
      <point x="282" y="238" type="curve" smooth="yes"/>
      <point x="282" y="247"/>
      <point x="270" y="261"/>
      <point x="246" y="281" type="curve" smooth="yes"/>
      <point x="222" y="300"/>
      <point x="191" y="320"/>
      <point x="153" y="341" type="curve"/>
      <point x="139" y="319"/>
      <point x="125" y="297"/>
      <point x="114" y="275" type="curve" smooth="yes"/>
      <point x="102" y="253"/>
      <point x="90" y="230"/>
      <point x="76" y="208" type="curve"/>
      <point x="122" y="182"/>
      <point x="152" y="163"/>
    </contour>
  </outline>
</glyph>
<glyph name="uni0661" format="2">
  <advance width="343"/>
  <unicode hex="0661"/>
  <outline>
    <contour>
      <point x="246" y="0" type="line"/>
      <point x="261" y="69"/>
      <point x="267" y="122"/>
      <point x="267" y="196" type="curve" smooth="yes"/>
      <point x="267" y="312"/>
      <point x="223" y="477"/>
      <point x="156" y="598" type="curve"/>
      <point x="107" y="578"/>
      <point x="77" y="543"/>
      <point x="77" y="499" type="curve" smooth="yes"/>
      <point x="77" y="483"/>
      <point x="81" y="466"/>
      <point x="89" y="449" type="curve" smooth="yes"/>
      <point x="121" y="382"/>
      <point x="142" y="330"/>
      <point x="153" y="292" type="curve" smooth="yes"/>
      <point x="175" y="217"/>
      <point x="188" y="122"/>
      <point x="189" y="10" type="curve"/>
    </contour>
  </outline>
</glyph>
<glyph name="uni0662" format="2">
  <advance width="453"/>
  <unicode hex="0662"/>
  <outline>
    <contour>
      <point x="246" y="0" type="line"/>
      <point x="261" y="66"/>
      <point x="268" y="119"/>
      <point x="268" y="196" type="curve" smooth="yes"/>
      <point x="268" y="237"/>
      <point x="262" y="282"/>
      <point x="251" y="333" type="curve"/>
      <point x="259" y="331"/>
      <point x="266" y="330"/>
      <point x="273" y="330" type="curve" smooth="yes"/>
      <point x="368" y="330"/>
      <point x="417" y="405"/>
      <point x="427" y="586" type="curve"/>
      <point x="379" y="596" type="line"/>
      <point x="370" y="509"/>
      <point x="332" y="457"/>
      <point x="272" y="457" type="curve" smooth="yes"/>
      <point x="243" y="457"/>
      <point x="229" y="459"/>
      <point x="214" y="470" type="curve"/>
      <point x="197" y="517"/>
      <point x="178" y="560"/>
      <point x="157" y="598" type="curve"/>
      <point x="107" y="578"/>
      <point x="77" y="543"/>
      <point x="77" y="499" type="curve" smooth="yes"/>
      <point x="77" y="483"/>
      <point x="81" y="466"/>
      <point x="90" y="449" type="curve" smooth="yes"/>
      <point x="132" y="362"/>
      <point x="146" y="325"/>
      <point x="161" y="264" type="curve" smooth="yes"/>
      <point x="179" y="184"/>
      <point x="188" y="100"/>
      <point x="189" y="10" type="curve"/>
    </contour>
  </outline>
</glyph>
<glyph name="uni0663" format="2">
  <advance width="507"/>
  <unicode hex="0663"/>
  <outline>
    <contour>
      <point x="247" y="0" type="line"/>
      <point x="262" y="74"/>
      <point x="268" y="124"/>
      <point x="268" y="196" type="curve" smooth="yes"/>
      <point x="268" y="235"/>
      <point x="262" y="280"/>
      <point x="252" y="331" type="curve"/>
      <point x="256" y="331"/>
      <point x="261" y="331"/>
      <point x="265" y="330" type="curve" smooth="yes"/>
      <point x="296" y="330"/>
      <point x="322" y="342"/>
      <point x="345" y="374" type="curve"/>
      <point x="366" y="362"/>
      <point x="382" y="356"/>
      <point x="394" y="356" type="curve" smooth="yes"/>
      <point x="444" y="356"/>
      <point x="481" y="413"/>
      <point x="481" y="497" type="curve" smooth="yes"/>
      <point x="481" y="529"/>
      <point x="479" y="560"/>
      <point x="474" y="591" type="curve"/>
      <point x="424" y="597" type="line"/>
      <point x="426" y="581"/>
      <point x="427" y="565"/>
      <point x="427" y="550" type="curve" smooth="yes"/>
      <point x="427" y="503"/>
      <point x="411" y="478"/>
      <point x="385" y="478" type="curve" smooth="yes"/>
      <point x="379" y="478"/>
      <point x="373" y="478"/>
      <point x="367" y="480" type="curve"/>
      <point x="363" y="515"/>
      <point x="353" y="554"/>
      <point x="336" y="595" type="curve"/>
      <point x="299" y="582" type="line"/>
      <point x="302" y="552"/>
      <point x="303" y="535"/>
      <point x="303" y="531" type="curve" smooth="yes"/>
      <point x="303" y="481"/>
      <point x="285" y="456"/>
      <point x="249" y="456" type="curve" smooth="yes"/>
      <point x="239" y="456"/>
      <point x="228" y="458"/>
      <point x="216" y="463" type="curve"/>
      <point x="200" y="511"/>
      <point x="180" y="556"/>
      <point x="157" y="598" type="curve"/>
      <point x="107" y="578"/>
      <point x="77" y="543"/>
      <point x="77" y="499" type="curve" smooth="yes"/>
      <point x="77" y="483"/>
      <point x="81" y="466"/>
      <point x="90" y="449" type="curve" smooth="yes"/>
      <point x="140" y="343"/>
      <point x="151" y="310"/>
      <point x="167" y="235" type="curve" smooth="yes"/>
      <point x="183" y="160"/>
      <point x="188" y="98"/>
      <point x="190" y="10" type="curve"/>
    </contour>
  </outline>
</glyph>
<glyph name="uni0664" format="2">
  <advance width="450"/>
  <unicode hex="0664"/>
  <outline>
    <contour>
      <point x="292" y="-1" type="curve" smooth="yes"/>
      <point x="316" y="-1"/>
      <point x="333" y="8"/>
      <point x="355" y="31" type="curve" smooth="yes"/>
      <point x="369" y="45"/>
      <point x="383" y="64"/>
      <point x="412" y="104" type="curve"/>
      <point x="397" y="130" type="line"/>
      <point x="372" y="123"/>
      <point x="336" y="120"/>
      <point x="290" y="120" type="curve" smooth="yes"/>
      <point x="242" y="120"/>
      <point x="183" y="127"/>
      <point x="183" y="160" type="curve" smooth="yes"/>
      <point x="183" y="168"/>
      <point x="194" y="187"/>
      <point x="216" y="216" type="curve" smooth="yes"/>
      <point x="239" y="245"/>
      <point x="265" y="275"/>
      <point x="295" y="308" type="curve"/>
      <point x="264" y="373" type="line"/>
      <point x="204" y="389"/>
      <point x="177" y="402"/>
      <point x="138" y="424" type="curve"/>
      <point x="149" y="431"/>
      <point x="161" y="437"/>
      <point x="172" y="444" type="curve" smooth="yes"/>
      <point x="203" y="460"/>
      <point x="229" y="479"/>
      <point x="253" y="498" type="curve" smooth="yes"/>
      <point x="271" y="513"/>
      <point x="286" y="552"/>
      <point x="286" y="590" type="curve" smooth="yes"/>
      <point x="286" y="609"/>
      <point x="283" y="625"/>
      <point x="275" y="639" type="curve"/>
      <point x="214" y="609"/>
      <point x="148" y="555"/>
      <point x="118" y="519" type="curve" smooth="yes"/>
      <point x="94" y="494"/>
      <point x="68" y="399"/>
      <point x="68" y="351" type="curve" smooth="yes"/>
      <point x="68" y="317"/>
      <point x="134" y="284"/>
      <point x="181" y="266" type="curve"/>
      <point x="141" y="207"/>
      <point x="122" y="161"/>
      <point x="122" y="128" type="curve" smooth="yes"/>
      <point x="122" y="42"/>
      <point x="182" y="-1"/>
    </contour>
  </outline>
</glyph>
<glyph name="uni0665" format="2">
  <advance width="402"/>
  <unicode hex="0665"/>
  <outline>
    <contour>
      <point x="184" y="42" type="curve" smooth="yes"/>
      <point x="242" y="42"/>
      <point x="297" y="81"/>
      <point x="333" y="152" type="curve" smooth="yes"/>
      <point x="347" y="178"/>
      <point x="355" y="234"/>
      <point x="355" y="290" type="curve" smooth="yes"/>
      <point x="355" y="338"/>
      <point x="350" y="383"/>
      <point x="338" y="424" type="curve" smooth="yes"/>
      <point x="314" y="507"/>
      <point x="274" y="548"/>
      <point x="220" y="548" type="curve" smooth="yes"/>
      <point x="196" y="548"/>
      <point x="170" y="531"/>
      <point x="143" y="496" type="curve" smooth="yes"/>
      <point x="88" y="425"/>
      <point x="47" y="303"/>
      <point x="47" y="205" type="curve" smooth="yes"/>
      <point x="47" y="94"/>
      <point x="88" y="42"/>
    </contour>
    <contour>
      <point x="198" y="172" type="curve" smooth="yes"/>
      <point x="137" y="172"/>
      <point x="106" y="196"/>
      <point x="106" y="243" type="curve" smooth="yes"/>
      <point x="106" y="264"/>
      <point x="111" y="288"/>
      <point x="122" y="315" type="curve" smooth="yes"/>
      <point x="142" y="370"/>
      <point x="173" y="409"/>
      <point x="198" y="409" type="curve" smooth="yes"/>
      <point x="253" y="409"/>
      <point x="297" y="343"/>
      <point x="297" y="251" type="curve" smooth="yes"/>
      <point x="297" y="227"/>
      <point x="259" y="172"/>
    </contour>
  </outline>
</glyph>
<glyph name="uni0666" format="2">
  <advance width="476"/>
  <unicode hex="0666"/>
  <outline>
    <contour>
      <point x="325" y="0" type="curve"/>
      <point x="412" y="92" type="line"/>
      <point x="349" y="217"/>
      <point x="328" y="301"/>
      <point x="328" y="415" type="curve" smooth="yes"/>
      <point x="328" y="463"/>
      <point x="334" y="510"/>
      <point x="346" y="554" type="curve"/>
      <point x="322" y="587" type="line"/>
      <point x="270" y="580"/>
      <point x="225" y="577"/>
      <point x="188" y="577" type="curve" smooth="yes"/>
      <point x="147" y="577"/>
      <point x="87" y="591"/>
      <point x="57" y="602" type="curve"/>
      <point x="25" y="484" type="line"/>
      <point x="56" y="465"/>
      <point x="115" y="450"/>
      <point x="172" y="450" type="curve" smooth="yes"/>
      <point x="208" y="450"/>
      <point x="242" y="455"/>
      <point x="273" y="463" type="curve"/>
      <point x="266" y="430"/>
      <point x="259" y="369"/>
      <point x="259" y="328" type="curve" smooth="yes"/>
      <point x="259" y="208"/>
      <point x="278" y="117"/>
    </contour>
  </outline>
</glyph>
<glyph name="uni0667" format="2">
  <advance width="485"/>
  <unicode hex="0667"/>
  <outline>
    <contour>
      <point x="222" y="1" type="curve"/>
      <point x="245" y="17"/>
      <point x="267" y="33"/>
      <point x="289" y="49" type="curve"/>
      <point x="338" y="214"/>
      <point x="383" y="330"/>
      <point x="477" y="501" type="curve"/>
      <point x="400" y="595" type="line"/>
      <point x="345" y="494"/>
      <point x="284" y="299"/>
      <point x="261" y="144" type="curve"/>
      <point x="218" y="309"/>
      <point x="137" y="515"/>
      <point x="85" y="596" type="curve"/>
      <point x="39" y="575"/>
      <point x="9" y="534"/>
      <point x="9" y="491" type="curve" smooth="yes"/>
      <point x="9" y="477"/>
      <point x="12" y="464"/>
      <point x="20" y="450" type="curve" smooth="yes"/>
      <point x="144" y="218"/>
      <point x="159" y="186"/>
    </contour>
  </outline>
</glyph>
<glyph name="uni0668" format="2">
  <advance width="485"/>
  <unicode hex="0668"/>
  <outline>
    <contour>
      <point x="86" y="2" type="line"/>
      <point x="135" y="91"/>
      <point x="197" y="280"/>
      <point x="224" y="450" type="curve"/>
      <point x="233" y="414"/>
      <point x="249" y="364"/>
      <point x="271" y="298" type="curve" smooth="yes"/>
      <point x="316" y="166"/>
      <point x="364" y="58"/>
      <point x="400" y="1" type="curve"/>
      <point x="447" y="21"/>
      <point x="476" y="62"/>
      <point x="476" y="105" type="curve" smooth="yes"/>
      <point x="476" y="119"/>
      <point x="473" y="133"/>
      <point x="466" y="146" type="curve" smooth="yes"/>
      <point x="344" y="373"/>
      <point x="326" y="412"/>
      <point x="264" y="596" type="curve"/>
      <point x="196" y="548" type="line"/>
      <point x="141" y="362"/>
      <point x="105" y="278"/>
      <point x="8" y="95" type="curve"/>
    </contour>
  </outline>
</glyph>
<glyph name="uni0669" format="2">
  <advance width="456"/>
  <unicode hex="0669"/>
  <outline>
    <contour>
      <point x="304" y="-1" type="curve"/>
      <point x="392" y="91" type="line"/>
      <point x="328" y="216"/>
      <point x="311" y="277"/>
      <point x="311" y="394" type="curve" smooth="yes"/>
      <point x="311" y="532"/>
      <point x="265" y="611"/>
      <point x="179" y="611" type="curve" smooth="yes"/>
      <point x="161" y="611"/>
      <point x="142" y="602"/>
      <point x="121" y="583" type="curve" smooth="yes"/>
      <point x="79" y="545"/>
      <point x="42" y="472"/>
      <point x="42" y="424" type="curve" smooth="yes"/>
      <point x="42" y="326"/>
      <point x="95" y="273"/>
      <point x="191" y="273" type="curve" smooth="yes"/>
      <point x="206" y="273"/>
      <point x="221" y="276"/>
      <point x="238" y="280" type="curve"/>
      <point x="244" y="183"/>
      <point x="263" y="104"/>
    </contour>
    <contour>
      <point x="206" y="393" type="curve" smooth="yes"/>
      <point x="146" y="393"/>
      <point x="101" y="416"/>
      <point x="101" y="448" type="curve" smooth="yes"/>
      <point x="101" y="469"/>
      <point x="123" y="492"/>
      <point x="151" y="492" type="curve" smooth="yes"/>
      <point x="195" y="492"/>
      <point x="222" y="460"/>
      <point x="232" y="396" type="curve"/>
      <point x="222" y="394"/>
      <point x="214" y="393"/>
    </contour>
  </outline>
</glyph>
<glyph name="uni066A" format="2">
  <advance width="471"/>
  <unicode hex="066A"/>
  <outline>
    <contour>
      <point x="111" y="-49" type="curve"/>
      <point x="187" y="111"/>
      <point x="297" y="325"/>
      <point x="352" y="426" type="curve" smooth="yes"/>
      <point x="360" y="441"/>
      <point x="364" y="456"/>
      <point x="364" y="472" type="curve" smooth="yes"/>
      <point x="363" y="498"/>
      <point x="353" y="521"/>
      <point x="334" y="533" type="curve"/>
      <point x="255" y="389"/>
      <point x="167" y="217"/>
      <point x="71" y="17" type="curve"/>
      <point x="78" y="-11"/>
      <point x="91" y="-33"/>
    </contour>
    <contour>
      <point x="378" y="11" type="curve"/>
      <point x="421" y="74"/>
      <point x="442" y="110"/>
      <point x="442" y="121" type="curve" smooth="yes"/>
      <point x="442" y="129"/>
      <point x="432" y="141"/>
      <point x="411" y="158" type="curve" smooth="yes"/>
      <point x="390" y="174"/>
      <point x="361" y="193"/>
      <point x="324" y="214" type="curve"/>
      <point x="311" y="195"/>
      <point x="299" y="175"/>
      <point x="289" y="155" type="curve" smooth="yes"/>
      <point x="278" y="135"/>
      <point x="267" y="114"/>
      <point x="255" y="93" type="curve"/>
      <point x="301" y="67"/>
      <point x="313" y="60"/>
    </contour>
    <contour>
      <point x="149" y="322" type="curve"/>
      <point x="192" y="384"/>
      <point x="213" y="421"/>
      <point x="213" y="432" type="curve" smooth="yes"/>
      <point x="213" y="440"/>
      <point x="202" y="452"/>
      <point x="182" y="469" type="curve" smooth="yes"/>
      <point x="161" y="486"/>
      <point x="132" y="504"/>
      <point x="96" y="525" type="curve"/>
      <point x="82" y="505"/>
      <point x="70" y="486"/>
      <point x="60" y="465" type="curve" smooth="yes"/>
      <point x="49" y="445"/>
      <point x="38" y="424"/>
      <point x="26" y="403" type="curve"/>
      <point x="59" y="386"/>
      <point x="100" y="359"/>
    </contour>
  </outline>
</glyph>
<glyph name="uni066B" format="2">
  <advance width="250"/>
  <unicode hex="066B"/>
  <outline>
    <contour>
      <point x="38" y="-89" type="line"/>
      <point x="135" y="-63"/>
      <point x="190" y="-6"/>
      <point x="190" y="77" type="curve" smooth="yes"/>
      <point x="190" y="135"/>
      <point x="160" y="170"/>
      <point x="112" y="170" type="curve" smooth="yes"/>
      <point x="77" y="170"/>
      <point x="51" y="151"/>
      <point x="51" y="112" type="curve" smooth="yes"/>
      <point x="51" y="78"/>
      <point x="63" y="65"/>
      <point x="97" y="44" type="curve" smooth="yes"/>
      <point x="107" y="37"/>
      <point x="113" y="29"/>
      <point x="113" y="21" type="curve" smooth="yes"/>
      <point x="113" y="-8"/>
      <point x="95" y="-24"/>
      <point x="38" y="-45" type="curve"/>
    </contour>
  </outline>
</glyph>
<glyph name="uni066C" format="2">
  <advance width="238"/>
  <unicode hex="066C"/>
  <outline>
    <contour>
      <point x="126" y="9" type="curve" smooth="yes"/>
      <point x="161" y="9"/>
      <point x="187" y="29"/>
      <point x="187" y="67" type="curve" smooth="yes"/>
      <point x="187" y="94"/>
      <point x="177" y="114"/>
      <point x="156" y="126" type="curve" smooth="yes"/>
      <point x="135" y="139"/>
      <point x="125" y="145"/>
      <point x="125" y="158" type="curve" smooth="yes"/>
      <point x="125" y="191"/>
      <point x="150" y="207"/>
      <point x="200" y="225" type="curve"/>
      <point x="200" y="269" type="line"/>
      <point x="101" y="242"/>
      <point x="48" y="185"/>
      <point x="48" y="103" type="curve" smooth="yes"/>
      <point x="48" y="45"/>
      <point x="78" y="9"/>
    </contour>
  </outline>
</glyph>
<glyph name="uni066D" format="2">
  <advance width="400"/>
  <unicode hex="066D"/>
  <outline>
    <contour>
      <point x="90" y="83" type="line"/>
      <point x="199" y="155" type="line"/>
      <point x="308" y="83" type="line"/>
      <point x="313" y="86" type="line"/>
      <point x="278" y="213" type="line"/>
      <point x="383" y="293" type="line"/>
      <point x="380" y="300" type="line"/>
      <point x="248" y="306" type="line"/>
      <point x="203" y="429" type="line"/>
      <point x="196" y="429" type="line"/>
      <point x="150" y="306" type="line"/>
      <point x="21" y="300" type="line"/>
      <point x="18" y="293" type="line"/>
      <point x="121" y="213" type="line"/>
      <point x="85" y="86" type="line"/>
    </contour>
  </outline>
</glyph>
<glyph name="uni066E" format="2">
  <advance width="806"/>
  <unicode hex="066E"/>
  <anchor x="378" y="-58" name="bottom"/>
  <anchor x="365" y="458" name="top"/>
  <outline>
    <contour>
      <point x="314" y="0" type="curve" smooth="yes"/>
      <point x="458" y="0"/>
      <point x="606" y="37"/>
      <point x="694" y="90" type="curve"/>
      <point x="715" y="128"/>
      <point x="733" y="180"/>
      <point x="733" y="211" type="curve" smooth="yes"/>
      <point x="733" y="234"/>
      <point x="723" y="293"/>
      <point x="692" y="443" type="curve"/>
      <point x="642" y="418"/>
      <point x="601" y="374"/>
      <point x="601" y="342" type="curve" smooth="yes"/>
      <point x="601" y="324"/>
      <point x="611" y="304"/>
      <point x="625" y="278" type="curve" smooth="yes"/>
      <point x="637" y="256"/>
      <point x="661" y="212"/>
      <point x="675" y="182" type="curve"/>
      <point x="583" y="141"/>
      <point x="467" y="119"/>
      <point x="351" y="119" type="curve" smooth="yes"/>
      <point x="299" y="119"/>
      <point x="256" y="125"/>
      <point x="224" y="135" type="curve" smooth="yes"/>
      <point x="160" y="157"/>
      <point x="131" y="195"/>
      <point x="131" y="273" type="curve" smooth="yes"/>
      <point x="131" y="286"/>
      <point x="133" y="317"/>
      <point x="134" y="323" type="curve"/>
      <point x="89" y="323" type="line"/>
      <point x="76" y="277"/>
      <point x="70" y="241"/>
      <point x="70" y="213" type="curve" smooth="yes"/>
      <point x="70" y="75"/>
      <point x="153" y="0"/>
    </contour>
  </outline>
</glyph>
<glyph name="uni066F" format="2">
  <advance width="652"/>
  <unicode hex="066F"/>
  <anchor x="251" y="-301" name="bottom"/>
  <anchor x="398" y="439" name="top"/>
  <outline>
    <contour>
      <point x="251" y="-252" type="curve" smooth="yes"/>
      <point x="334" y="-252"/>
      <point x="434" y="-216"/>
      <point x="499" y="-162" type="curve" smooth="yes"/>
      <point x="564" y="-108"/>
      <point x="601" y="-35"/>
      <point x="601" y="50" type="curve" smooth="yes"/>
      <point x="601" y="109"/>
      <point x="593" y="162"/>
      <point x="576" y="211" type="curve" smooth="yes"/>
      <point x="542" y="308"/>
      <point x="478" y="366"/>
      <point x="411" y="366" type="curve" smooth="yes"/>
      <point x="386" y="366"/>
      <point x="363" y="355"/>
      <point x="340" y="333" type="curve" smooth="yes"/>
      <point x="294" y="290"/>
      <point x="264" y="213"/>
      <point x="264" y="138" type="curve" smooth="yes"/>
      <point x="264" y="50"/>
      <point x="311" y="0"/>
      <point x="394" y="0" type="curve" smooth="yes"/>
      <point x="437" y="0"/>
      <point x="479" y="20"/>
      <point x="521" y="61" type="curve"/>
      <point x="528" y="31"/>
      <point x="532" y="0"/>
      <point x="535" y="-31" type="curve"/>
      <point x="512" y="-49"/>
      <point x="488" y="-64"/>
      <point x="465" y="-77" type="curve" smooth="yes"/>
      <point x="396" y="-115"/>
      <point x="327" y="-134"/>
      <point x="263" y="-134" type="curve" smooth="yes"/>
      <point x="170" y="-134"/>
      <point x="123" y="-86"/>
      <point x="123" y="7" type="curve" smooth="yes"/>
      <point x="123" y="30"/>
      <point x="128" y="57"/>
      <point x="137" y="87" type="curve"/>
      <point x="93" y="98" type="line"/>
      <point x="76" y="35"/>
      <point x="68" y="-13"/>
      <point x="68" y="-47" type="curve" smooth="yes"/>
      <point x="68" y="-180"/>
      <point x="132" y="-252"/>
    </contour>
    <contour>
      <point x="414" y="110" type="curve" smooth="yes"/>
      <point x="353" y="110"/>
      <point x="318" y="131"/>
      <point x="318" y="171" type="curve" smooth="yes"/>
      <point x="318" y="184"/>
      <point x="321" y="195"/>
      <point x="326" y="206" type="curve" smooth="yes"/>
      <point x="338" y="229"/>
      <point x="363" y="246"/>
      <point x="393" y="246" type="curve" smooth="yes"/>
      <point x="406" y="246"/>
      <point x="419" y="242"/>
      <point x="432" y="234" type="curve" smooth="yes"/>
      <point x="459" y="217"/>
      <point x="483" y="181"/>
      <point x="503" y="125" type="curve"/>
      <point x="472" y="115"/>
      <point x="442" y="110"/>
    </contour>
  </outline>
</glyph>
<glyph name="uni0670" format="2">
  <unicode hex="0670"/>
  <anchor x="11" y="418" name="_top"/>
  <anchor x="11" y="418" name="_top2"/>
  <anchor x="11" y="418" name="_top3"/>
  <anchor x="9" y="678" name="top3"/>
  <outline>
    <contour>
      <point x="11" y="428" type="line"/>
      <point x="28" y="452"/>
      <point x="37" y="480"/>
      <point x="37" y="513" type="curve" smooth="yes"/>
      <point x="37" y="578"/>
      <point x="32" y="612"/>
      <point x="22" y="663" type="curve"/>
      <point x="0" y="655"/>
      <point x="-15" y="633"/>
      <point x="-15" y="607" type="curve" smooth="yes"/>
      <point x="-15" y="600"/>
      <point x="-14" y="593"/>
      <point x="-12" y="584" type="curve" smooth="yes"/>
      <point x="-1" y="539"/>
      <point x="5" y="488"/>
      <point x="5" y="430" type="curve"/>
    </contour>
  </outline>
</glyph>
<glyph name="uni06A9" format="2">
  <advance width="741"/>
  <unicode hex="06A9"/>
  <unicode hex="FB8E"/>
  <anchor x="412" y="-58" name="bottom"/>
  <anchor x="355" y="602" name="top"/>
  <outline>
    <contour>
      <point x="301" y="0" type="curve" smooth="yes"/>
      <point x="520" y="0"/>
      <point x="654" y="63"/>
      <point x="654" y="173" type="curve" smooth="yes"/>
      <point x="654" y="206"/>
      <point x="641" y="241"/>
      <point x="615" y="277" type="curve" smooth="yes"/>
      <point x="563" y="349"/>
      <point x="472" y="410"/>
      <point x="373" y="435" type="curve"/>
      <point x="496" y="469"/>
      <point x="572" y="498"/>
      <point x="669" y="546" type="curve" smooth="yes"/>
      <point x="703" y="563"/>
      <point x="724" y="596"/>
      <point x="724" y="630" type="curve" smooth="yes"/>
      <point x="724" y="650"/>
      <point x="717" y="667"/>
      <point x="704" y="680" type="curve"/>
      <point x="573" y="626"/>
      <point x="501" y="594"/>
      <point x="342" y="514" type="curve" smooth="yes"/>
      <point x="335" y="511"/>
      <point x="316" y="418"/>
      <point x="316" y="389" type="curve" smooth="yes"/>
      <point x="316" y="353"/>
      <point x="349" y="324"/>
      <point x="385" y="324" type="curve" smooth="yes"/>
      <point x="395" y="324"/>
      <point x="404" y="325"/>
      <point x="412" y="328" type="curve"/>
      <point x="455" y="302"/>
      <point x="488" y="280"/>
      <point x="510" y="262" type="curve" smooth="yes"/>
      <point x="555" y="228"/>
      <point x="588" y="191"/>
      <point x="604" y="160" type="curve"/>
      <point x="522" y="131"/>
      <point x="459" y="119"/>
      <point x="337" y="119" type="curve" smooth="yes"/>
      <point x="281" y="119"/>
      <point x="238" y="122"/>
      <point x="208" y="129" type="curve" smooth="yes"/>
      <point x="146" y="143"/>
      <point x="124" y="172"/>
      <point x="123" y="227" type="curve" smooth="yes"/>
      <point x="123" y="240"/>
      <point x="125" y="252"/>
      <point x="126" y="265" type="curve"/>
      <point x="82" y="266" type="line"/>
      <point x="78" y="254"/>
      <point x="68" y="189"/>
      <point x="68" y="161" type="curve" smooth="yes"/>
      <point x="68" y="121"/>
      <point x="75" y="89"/>
      <point x="90" y="66" type="curve" smooth="yes"/>
      <point x="120" y="20"/>
      <point x="174" y="0"/>
    </contour>
  </outline>
</glyph>
<glyph name="uni06AA" format="2">
  <advance width="1015"/>
  <unicode hex="06AA"/>
  <anchor x="760" y="-58" name="bottom"/>
  <anchor x="392" y="637" name="top"/>
  <outline>
    <contour>
      <point x="286" y="9" type="curve" smooth="yes"/>
      <point x="510" y="9"/>
      <point x="782" y="26"/>
      <point x="956" y="53" type="curve"/>
      <point x="970" y="85"/>
      <point x="977" y="112"/>
      <point x="977" y="134" type="curve" smooth="yes"/>
      <point x="977" y="249"/>
      <point x="903" y="324"/>
      <point x="791" y="324" type="curve" smooth="yes"/>
      <point x="755" y="324"/>
      <point x="687" y="321"/>
      <point x="586" y="316" type="curve" smooth="yes"/>
      <point x="499" y="312"/>
      <point x="433" y="310"/>
      <point x="389" y="310" type="curve" smooth="yes"/>
      <point x="364" y="310"/>
      <point x="341" y="313"/>
      <point x="319" y="320" type="curve" smooth="yes"/>
      <point x="298" y="326"/>
      <point x="287" y="334"/>
      <point x="287" y="342" type="curve" smooth="yes"/>
      <point x="287" y="351"/>
      <point x="299" y="362"/>
      <point x="324" y="376" type="curve" smooth="yes"/>
      <point x="352" y="392"/>
      <point x="396" y="410"/>
      <point x="483" y="444" type="curve" smooth="yes"/>
      <point x="518" y="458"/>
      <point x="538" y="492"/>
      <point x="539" y="540" type="curve" smooth="yes"/>
      <point x="539" y="555"/>
      <point x="537" y="571"/>
      <point x="534" y="588" type="curve"/>
      <point x="461" y="569"/>
      <point x="376" y="528"/>
      <point x="319" y="477" type="curve" smooth="yes"/>
      <point x="263" y="426"/>
      <point x="235" y="374"/>
      <point x="235" y="325" type="curve" smooth="yes"/>
      <point x="235" y="239"/>
      <point x="275" y="198"/>
      <point x="371" y="198" type="curve" smooth="yes"/>
      <point x="419" y="198"/>
      <point x="491" y="201"/>
      <point x="585" y="207" type="curve" smooth="yes"/>
      <point x="679" y="212"/>
      <point x="748" y="214"/>
      <point x="791" y="214" type="curve" smooth="yes"/>
      <point x="867" y="214"/>
      <point x="901" y="201"/>
      <point x="923" y="157" type="curve"/>
      <point x="766" y="138"/>
      <point x="500" y="127"/>
      <point x="271" y="127" type="curve" smooth="yes"/>
      <point x="173" y="127"/>
      <point x="86" y="135"/>
      <point x="10" y="151" type="curve"/>
      <point x="9" y="71"/>
      <point x="40" y="26"/>
      <point x="96" y="16" type="curve" smooth="yes"/>
      <point x="127" y="11"/>
      <point x="182" y="9"/>
    </contour>
  </outline>
</glyph>
<glyph name="uni06BE" format="2">
  <advance width="670"/>
  <unicode hex="06BE"/>
  <unicode hex="FBAA"/>
  <anchor x="340" y="-72" name="bottom"/>
  <anchor x="287" y="552" name="top"/>
  <outline>
    <contour>
      <point x="568" y="-9" type="curve"/>
      <point x="602" y="48"/>
      <point x="619" y="93"/>
      <point x="619" y="125" type="curve" smooth="yes"/>
      <point x="619" y="174"/>
      <point x="604" y="224"/>
      <point x="576" y="274" type="curve" smooth="yes"/>
      <point x="520" y="375"/>
      <point x="417" y="452"/>
      <point x="309" y="479" type="curve"/>
      <point x="280" y="375" type="line"/>
      <point x="235" y="344"/>
      <point x="198" y="269"/>
      <point x="198" y="216" type="curve" smooth="yes"/>
      <point x="198" y="185"/>
      <point x="210" y="154"/>
      <point x="233" y="123" type="curve"/>
      <point x="212" y="120"/>
      <point x="188" y="119"/>
      <point x="164" y="119" type="curve" smooth="yes"/>
      <point x="126" y="119"/>
      <point x="90" y="123"/>
      <point x="54" y="130" type="curve"/>
      <point x="34" y="90" type="line"/>
      <point x="68" y="52"/>
      <point x="133" y="9"/>
      <point x="154" y="9" type="curve" smooth="yes"/>
      <point x="223" y="9"/>
      <point x="281" y="22"/>
      <point x="329" y="48" type="curve"/>
      <point x="392" y="15"/>
      <point x="475" y="-7"/>
    </contour>
    <contour>
      <point x="337" y="153" type="curve"/>
      <point x="304" y="169"/>
      <point x="274" y="190"/>
      <point x="249" y="217" type="curve"/>
      <point x="256" y="236"/>
      <point x="264" y="251"/>
      <point x="273" y="264" type="curve" smooth="yes"/>
      <point x="290" y="289"/>
      <point x="310" y="301"/>
      <point x="333" y="301" type="curve" smooth="yes"/>
      <point x="356" y="301"/>
      <point x="383" y="272"/>
      <point x="383" y="240" type="curve" smooth="yes"/>
      <point x="383" y="203"/>
      <point x="363" y="166"/>
    </contour>
    <contour>
      <point x="563" y="100" type="curve"/>
      <point x="500" y="108"/>
      <point x="451" y="116"/>
      <point x="417" y="125" type="curve"/>
      <point x="437" y="157"/>
      <point x="448" y="194"/>
      <point x="448" y="237" type="curve" smooth="yes"/>
      <point x="448" y="258"/>
      <point x="444" y="277"/>
      <point x="437" y="296" type="curve"/>
      <point x="490" y="253"/>
      <point x="528" y="193"/>
    </contour>
  </outline>
</glyph>
<glyph name="uni06C5" format="2">
  <advance width="505"/>
  <unicode hex="06C5"/>
  <unicode hex="FBE0"/>
  <anchor x="206" y="-304" name="bottom"/>
  <anchor x="271" y="439" name="top"/>
  <outline>
    <contour>
      <point x="195" y="-255" type="curve" smooth="yes"/>
      <point x="240" y="-255"/>
      <point x="282" y="-239"/>
      <point x="322" y="-207" type="curve" smooth="yes"/>
      <point x="401" y="-143"/>
      <point x="454" y="-24"/>
      <point x="454" y="89" type="curve" smooth="yes"/>
      <point x="454" y="131"/>
      <point x="446" y="175"/>
      <point x="429" y="220" type="curve" smooth="yes"/>
      <point x="396" y="310"/>
      <point x="341" y="366"/>
      <point x="285" y="366" type="curve" smooth="yes"/>
      <point x="260" y="366"/>
      <point x="237" y="355"/>
      <point x="214" y="334" type="curve" smooth="yes"/>
      <point x="169" y="291"/>
      <point x="139" y="213"/>
      <point x="139" y="138" type="curve" smooth="yes"/>
      <point x="139" y="50"/>
      <point x="186" y="0"/>
      <point x="269" y="0" type="curve" smooth="yes"/>
      <point x="315" y="0"/>
      <point x="361" y="25"/>
      <point x="400" y="65" type="curve"/>
      <point x="401" y="58" type="line"/>
      <point x="386" y="9"/>
      <point x="362" y="-33"/>
      <point x="329" y="-68" type="curve"/>
      <point x="299" y="-59"/>
      <point x="274" y="-51"/>
      <point x="254" y="-45" type="curve" smooth="yes"/>
      <point x="229" y="-38"/>
      <point x="210" y="-35"/>
      <point x="200" y="-35" type="curve" smooth="yes"/>
      <point x="177" y="-35"/>
      <point x="164" y="-45"/>
      <point x="137" y="-64" type="curve"/>
      <point x="152" y="-99" type="line"/>
      <point x="172" y="-90"/>
      <point x="187" y="-86"/>
      <point x="199" y="-86" type="curve" smooth="yes"/>
      <point x="220" y="-86"/>
      <point x="249" y="-93"/>
      <point x="286" y="-106" type="curve"/>
      <point x="253" y="-130"/>
      <point x="214" y="-145"/>
      <point x="177" y="-145" type="curve" smooth="yes"/>
      <point x="139" y="-145"/>
      <point x="103" y="-140"/>
      <point x="67" y="-131" type="curve"/>
      <point x="51" y="-173" type="line"/>
      <point x="101" y="-216"/>
      <point x="170" y="-255"/>
    </contour>
    <contour>
      <point x="288" y="110" type="curve" smooth="yes"/>
      <point x="228" y="110"/>
      <point x="192" y="131"/>
      <point x="192" y="171" type="curve" smooth="yes"/>
      <point x="192" y="187"/>
      <point x="197" y="202"/>
      <point x="206" y="213" type="curve" smooth="yes"/>
      <point x="219" y="233"/>
      <point x="241" y="246"/>
      <point x="267" y="246" type="curve" smooth="yes"/>
      <point x="313" y="246"/>
      <point x="355" y="201"/>
      <point x="383" y="127" type="curve"/>
      <point x="350" y="116"/>
      <point x="319" y="110"/>
    </contour>
  </outline>
</glyph>
<glyph name="uni06CD" format="2">
  <advance width="777"/>
  <unicode hex="06CD"/>
  <anchor x="393" y="-301" name="bottom"/>
  <anchor x="356" y="310" name="top"/>
  <outline>
    <contour>
      <point x="393" y="-252" type="curve" smooth="yes"/>
      <point x="445" y="-252"/>
      <point x="498" y="-240"/>
      <point x="552" y="-215" type="curve" smooth="yes"/>
      <point x="659" y="-165"/>
      <point x="738" y="-80"/>
      <point x="738" y="-19" type="curve" smooth="yes"/>
      <point x="738" y="11"/>
      <point x="724" y="48"/>
      <point x="704" y="63" type="curve" smooth="yes"/>
      <point x="684" y="79"/>
      <point x="660" y="87"/>
      <point x="613" y="93" type="curve" smooth="yes"/>
      <point x="561" y="99"/>
      <point x="521" y="107"/>
      <point x="495" y="118" type="curve"/>
      <point x="506" y="145"/>
      <point x="521" y="170"/>
      <point x="542" y="192" type="curve" smooth="yes"/>
      <point x="582" y="238"/>
      <point x="631" y="266"/>
      <point x="667" y="266" type="curve" smooth="yes"/>
      <point x="679" y="266"/>
      <point x="689" y="260"/>
      <point x="699" y="247" type="curve"/>
      <point x="743" y="256" type="line"/>
      <point x="730" y="341"/>
      <point x="701" y="385"/>
      <point x="655" y="385" type="curve" smooth="yes"/>
      <point x="626" y="385"/>
      <point x="594" y="371"/>
      <point x="561" y="344" type="curve" smooth="yes"/>
      <point x="494" y="288"/>
      <point x="444" y="194"/>
      <point x="444" y="119" type="curve" smooth="yes"/>
      <point x="444" y="86"/>
      <point x="451" y="60"/>
      <point x="467" y="38" type="curve" smooth="yes"/>
      <point x="494" y="0"/>
      <point x="548" y="-21"/>
      <point x="637" y="-27" type="curve" smooth="yes"/>
      <point x="652" y="-28"/>
      <point x="669" y="-28"/>
      <point x="687" y="-28" type="curve"/>
      <point x="665" y="-45"/>
      <point x="641" y="-61"/>
      <point x="615" y="-74" type="curve" smooth="yes"/>
      <point x="545" y="-112"/>
      <point x="468" y="-134"/>
      <point x="404" y="-134" type="curve" smooth="yes"/>
      <point x="313" y="-134"/>
      <point x="268" y="-89"/>
      <point x="268" y="0" type="curve" smooth="yes"/>
      <point x="268" y="25"/>
      <point x="276" y="62"/>
      <point x="286" y="90" type="curve"/>
      <point x="246" y="110" type="line"/>
      <point x="191" y="83"/>
      <point x="96" y="25"/>
      <point x="86" y="13" type="curve" smooth="yes"/>
      <point x="75" y="2"/>
      <point x="69" y="-16"/>
      <point x="69" y="-35" type="curve" smooth="yes"/>
      <point x="69" y="-54"/>
      <point x="73" y="-71"/>
      <point x="83" y="-86" type="curve"/>
      <point x="138" y="-56"/>
      <point x="180" y="-34"/>
      <point x="210" y="-21" type="curve"/>
      <point x="209" y="-29"/>
      <point x="209" y="-38"/>
      <point x="209" y="-47" type="curve" smooth="yes"/>
      <point x="209" y="-180"/>
      <point x="273" y="-252"/>
    </contour>
  </outline>
</glyph>
<glyph name="uni06D2" format="2">
  <advance width="808"/>
  <unicode hex="06D2"/>
  <unicode hex="FBAE"/>
  <anchor x="459" y="-58" name="bottom"/>
  <anchor x="247" y="417" name="top"/>
  <outline>
    <contour>
      <point x="418" y="0" type="curve" smooth="yes"/>
      <point x="497" y="0"/>
      <point x="680" y="21"/>
      <point x="729" y="46" type="curve" smooth="yes"/>
      <point x="756" y="60"/>
      <point x="773" y="84"/>
      <point x="773" y="112" type="curve" smooth="yes"/>
      <point x="773" y="132"/>
      <point x="766" y="149"/>
      <point x="753" y="165" type="curve"/>
      <point x="659" y="137"/>
      <point x="533" y="119"/>
      <point x="431" y="119" type="curve" smooth="yes"/>
      <point x="304" y="119"/>
      <point x="225" y="128"/>
      <point x="144" y="161" type="curve"/>
      <point x="165" y="170"/>
      <point x="193" y="180"/>
      <point x="227" y="190" type="curve" smooth="yes"/>
      <point x="257" y="200"/>
      <point x="284" y="210"/>
      <point x="305" y="219" type="curve" smooth="yes"/>
      <point x="350" y="239"/>
      <point x="383" y="279"/>
      <point x="402" y="338" type="curve"/>
      <point x="359" y="357" type="line"/>
      <point x="346" y="329"/>
      <point x="318" y="307"/>
      <point x="256" y="289" type="curve" smooth="yes"/>
      <point x="233" y="282"/>
      <point x="216" y="276"/>
      <point x="205" y="271" type="curve" smooth="yes"/>
      <point x="165" y="253"/>
      <point x="136" y="235"/>
      <point x="117" y="214" type="curve" smooth="yes"/>
      <point x="104" y="202"/>
      <point x="68" y="83"/>
      <point x="68" y="59" type="curve" smooth="yes"/>
      <point x="68" y="50"/>
      <point x="85" y="42"/>
      <point x="119" y="32" type="curve" smooth="yes"/>
      <point x="192" y="12"/>
      <point x="316" y="0"/>
    </contour>
  </outline>
</glyph>
<glyph name="uni06D6" format="2">
  <unicode hex="06D6"/>
  <anchor x="9" y="488" name="_top"/>
  <anchor x="9" y="488" name="_top2"/>
  <anchor x="9" y="488" name="_top3"/>
  <anchor x="50" y="842" name="top3"/>
  <outline>
    <contour>
      <point x="-123" y="498" type="curve" smooth="yes"/>
      <point x="-79" y="498"/>
      <point x="3" y="494"/>
      <point x="3" y="523" type="curve" smooth="yes"/>
      <point x="3" y="527"/>
      <point x="1" y="531"/>
      <point x="-2" y="536" type="curve"/>
      <point x="-31" y="530"/>
      <point x="-70" y="527"/>
      <point x="-121" y="527" type="curve" smooth="yes"/>
      <point x="-164" y="527"/>
      <point x="-211" y="532"/>
      <point x="-231" y="538" type="curve"/>
      <point x="-202" y="556"/>
      <point x="-135" y="576"/>
      <point x="-96" y="583" type="curve" smooth="yes"/>
      <point x="-73" y="588" type="line"/>
      <point x="-63" y="579"/>
      <point x="-49" y="575"/>
      <point x="-30" y="575" type="curve" smooth="yes"/>
      <point x="-11" y="575"/>
      <point x="3" y="579"/>
      <point x="12" y="588" type="curve"/>
      <point x="18" y="596" type="line"/>
      <point x="39" y="584"/>
      <point x="79" y="575"/>
      <point x="120" y="575" type="curve" smooth="yes"/>
      <point x="142" y="575"/>
      <point x="162" y="578"/>
      <point x="180" y="584" type="curve" smooth="yes"/>
      <point x="217" y="597"/>
      <point x="241" y="620"/>
      <point x="241" y="655" type="curve" smooth="yes"/>
      <point x="241" y="675"/>
      <point x="198" y="709"/>
      <point x="174" y="709" type="curve" smooth="yes"/>
      <point x="140" y="709"/>
      <point x="99" y="677"/>
      <point x="52" y="613" type="curve"/>
      <point x="33" y="621" type="line"/>
      <point x="44" y="646" type="line"/>
      <point x="42" y="649"/>
      <point x="39" y="650"/>
      <point x="35" y="650" type="curve" smooth="yes"/>
      <point x="30" y="650"/>
      <point x="26" y="648"/>
      <point x="23" y="644" type="curve" smooth="yes"/>
      <point x="12" y="625" type="line" smooth="yes"/>
      <point x="5" y="613"/>
      <point x="-6" y="604"/>
      <point x="-30" y="604" type="curve" smooth="yes"/>
      <point x="-43" y="604"/>
      <point x="-56" y="607"/>
      <point x="-69" y="613" type="curve"/>
      <point x="-71" y="721" type="line" smooth="yes"/>
      <point x="-71" y="766"/>
      <point x="-72" y="802"/>
      <point x="-74" y="828" type="curve"/>
      <point x="-82" y="822"/>
      <point x="-90" y="815"/>
      <point x="-99" y="807" type="curve"/>
      <point x="-92" y="706"/>
      <point x="-87" y="641"/>
      <point x="-84" y="613" type="curve"/>
      <point x="-169" y="598"/>
      <point x="-206" y="581"/>
      <point x="-239" y="552" type="curve"/>
      <point x="-243" y="546"/>
      <point x="-249" y="524"/>
      <point x="-249" y="521" type="curve" smooth="yes"/>
      <point x="-249" y="516"/>
      <point x="-235" y="511"/>
      <point x="-207" y="505" type="curve" smooth="yes"/>
      <point x="-179" y="500"/>
      <point x="-151" y="498"/>
    </contour>
    <contour>
      <point x="124" y="604" type="curve" smooth="yes"/>
      <point x="105" y="604"/>
      <point x="87" y="605"/>
      <point x="69" y="609" type="curve"/>
      <point x="106" y="654"/>
      <point x="141" y="678"/>
      <point x="166" y="678" type="curve" smooth="yes"/>
      <point x="183" y="678"/>
      <point x="208" y="664"/>
      <point x="224" y="636" type="curve"/>
      <point x="190" y="614"/>
      <point x="157" y="604"/>
    </contour>
  </outline>
</glyph>
<glyph name="uni06D7" format="2">
  <unicode hex="06D7"/>
  <anchor x="0" y="488" name="_top"/>
  <anchor x="0" y="488" name="_top2"/>
  <anchor x="0" y="488" name="_top3"/>
  <anchor x="-94" y="838" name="top3"/>
  <outline>
    <contour>
      <point x="-50" y="498" type="curve" smooth="yes"/>
      <point x="-11" y="498"/>
      <point x="20" y="499"/>
      <point x="42" y="501" type="curve" smooth="yes"/>
      <point x="65" y="504"/>
      <point x="77" y="511"/>
      <point x="77" y="522" type="curve" smooth="yes"/>
      <point x="77" y="527"/>
      <point x="75" y="531"/>
      <point x="71" y="536" type="curve"/>
      <point x="42" y="530"/>
      <point x="3" y="527"/>
      <point x="-47" y="527" type="curve" smooth="yes"/>
      <point x="-90" y="527"/>
      <point x="-137" y="532"/>
      <point x="-158" y="538" type="curve"/>
      <point x="-142" y="548"/>
      <point x="-115" y="558"/>
      <point x="-77" y="570" type="curve" smooth="yes"/>
      <point x="-65" y="574"/>
      <point x="-39" y="580"/>
      <point x="0" y="588" type="curve"/>
      <point x="11" y="579"/>
      <point x="25" y="575"/>
      <point x="44" y="575" type="curve" smooth="yes"/>
      <point x="95" y="575"/>
      <point x="133" y="579"/>
      <point x="168" y="602" type="curve"/>
      <point x="178" y="620"/>
      <point x="182" y="633"/>
      <point x="182" y="640" type="curve" smooth="yes"/>
      <point x="182" y="698"/>
      <point x="156" y="749"/>
      <point x="115" y="749" type="curve" smooth="yes"/>
      <point x="90" y="749"/>
      <point x="68" y="716"/>
      <point x="68" y="676" type="curve" smooth="yes"/>
      <point x="68" y="652"/>
      <point x="83" y="632"/>
      <point x="105" y="632" type="curve" smooth="yes"/>
      <point x="124" y="632"/>
      <point x="146" y="641"/>
      <point x="159" y="653" type="curve"/>
      <point x="164" y="624" type="line"/>
      <point x="135" y="610"/>
      <point x="95" y="604"/>
      <point x="44" y="604" type="curve" smooth="yes"/>
      <point x="31" y="604"/>
      <point x="17" y="607"/>
      <point x="4" y="613" type="curve"/>
      <point x="0" y="828" type="line"/>
      <point x="-10" y="821"/>
      <point x="-18" y="814"/>
      <point x="-26" y="807" type="curve"/>
      <point x="-23" y="774"/>
      <point x="-21" y="741"/>
      <point x="-19" y="708" type="curve" smooth="yes"/>
      <point x="-17" y="675"/>
      <point x="-14" y="643"/>
      <point x="-11" y="613" type="curve"/>
      <point x="-98" y="597"/>
      <point x="-134" y="580"/>
      <point x="-166" y="552" type="curve"/>
      <point x="-169" y="548"/>
      <point x="-175" y="527"/>
      <point x="-175" y="521" type="curve" smooth="yes"/>
      <point x="-175" y="516"/>
      <point x="-162" y="511"/>
      <point x="-134" y="505" type="curve" smooth="yes"/>
      <point x="-107" y="500"/>
      <point x="-78" y="498"/>
    </contour>
    <contour>
      <point x="114" y="661" type="curve" smooth="yes"/>
      <point x="93" y="661"/>
      <point x="83" y="668"/>
      <point x="83" y="683" type="curve" smooth="yes"/>
      <point x="83" y="701"/>
      <point x="94" y="717"/>
      <point x="110" y="717" type="curve" smooth="yes"/>
      <point x="129" y="717"/>
      <point x="146" y="698"/>
      <point x="154" y="670" type="curve"/>
      <point x="139" y="664"/>
      <point x="126" y="661"/>
    </contour>
    <contour>
      <point x="77" y="767" type="curve"/>
      <point x="89" y="779"/>
      <point x="96" y="788"/>
      <point x="99" y="793" type="curve"/>
      <point x="76" y="815" type="line"/>
      <point x="52" y="791" type="line"/>
      <point x="57" y="784"/>
      <point x="65" y="776"/>
    </contour>
    <contour>
      <point x="133" y="773" type="curve"/>
      <point x="144" y="782"/>
      <point x="151" y="791"/>
      <point x="156" y="798" type="curve"/>
      <point x="133" y="821" type="line"/>
      <point x="108" y="795" type="line"/>
      <point x="117" y="786"/>
      <point x="125" y="779"/>
    </contour>
  </outline>
</glyph>
<glyph name="uni06D8" format="2">
  <unicode hex="06D8"/>
  <anchor x="-1" y="449" name="_top"/>
  <anchor x="-1" y="449" name="_top2"/>
  <anchor x="-1" y="449" name="_top3"/>
  <anchor x="-9" y="611" name="top3"/>
  <outline>
    <contour>
      <point x="-160" y="407" type="curve" smooth="yes"/>
      <point x="-104" y="407"/>
      <point x="-61" y="439"/>
      <point x="-33" y="480" type="curve"/>
      <point x="-10" y="467"/>
      <point x="23" y="459"/>
      <point x="51" y="459" type="curve"/>
      <point x="62" y="467"/>
      <point x="70" y="478"/>
      <point x="70" y="498" type="curve" smooth="yes"/>
      <point x="70" y="536"/>
      <point x="49" y="586"/>
      <point x="24" y="586" type="curve" smooth="yes"/>
      <point x="-7" y="586"/>
      <point x="-19" y="548"/>
      <point x="-36" y="520" type="curve" smooth="yes"/>
      <point x="-73" y="458"/>
      <point x="-120" y="420"/>
      <point x="-194" y="420" type="curve"/>
      <point x="-194" y="411" type="line"/>
      <point x="-182" y="409"/>
      <point x="-170" y="407"/>
    </contour>
    <contour>
      <point x="43" y="487" type="curve"/>
      <point x="20" y="489"/>
      <point x="2" y="495"/>
      <point x="-19" y="506" type="curve"/>
      <point x="-11" y="521"/>
      <point x="-4" y="533"/>
      <point x="1" y="541" type="curve" smooth="yes"/>
      <point x="6" y="549"/>
      <point x="12" y="553"/>
      <point x="18" y="553" type="curve" smooth="yes"/>
      <point x="30" y="553"/>
      <point x="42" y="514"/>
    </contour>
  </outline>
</glyph>
<glyph name="uni06D9" format="2">
  <unicode hex="06D9"/>
  <anchor x="0" y="464" name="_top"/>
  <anchor x="0" y="464" name="_top2"/>
  <anchor x="0" y="464" name="_top3"/>
  <anchor x="-38" y="753" name="top3"/>
  <outline>
    <contour>
      <point x="-64" y="474" type="line"/>
      <point x="-44" y="474" type="line" smooth="yes"/>
      <point x="-5" y="474"/>
      <point x="26" y="476"/>
      <point x="48" y="480" type="curve"/>
      <point x="52" y="482"/>
      <point x="60" y="499"/>
      <point x="60" y="506" type="curve" smooth="yes"/>
      <point x="60" y="511"/>
      <point x="50" y="530"/>
      <point x="31" y="562" type="curve"/>
      <point x="41" y="579"/>
      <point x="46" y="598"/>
      <point x="46" y="618" type="curve" smooth="yes"/>
      <point x="43" y="680" type="line"/>
      <point x="53" y="688" type="line"/>
      <point x="46" y="711"/>
      <point x="42" y="726"/>
      <point x="40" y="733" type="curve"/>
      <point x="23" y="730"/>
      <point x="14" y="722"/>
      <point x="14" y="709" type="curve"/>
      <point x="19" y="680" type="line" smooth="yes"/>
      <point x="24" y="645"/>
      <point x="27" y="622"/>
      <point x="27" y="610" type="curve" smooth="yes"/>
      <point x="27" y="600"/>
      <point x="25" y="589"/>
      <point x="20" y="580" type="curve" smooth="yes"/>
      <point x="20" y="578" type="line"/>
      <point x="-3" y="606"/>
      <point x="-50" y="650"/>
      <point x="-90" y="679" type="curve"/>
      <point x="-98" y="675"/>
      <point x="-103" y="667"/>
      <point x="-103" y="657" type="curve" smooth="yes"/>
      <point x="-102" y="648"/>
      <point x="-96" y="637"/>
      <point x="-84" y="625" type="curve"/>
      <point x="-71" y="626" type="line"/>
      <point x="-45" y="611"/>
      <point x="-18" y="589"/>
      <point x="9" y="560" type="curve"/>
      <point x="-2" y="545"/>
      <point x="-22" y="526"/>
      <point x="-51" y="503" type="curve"/>
      <point x="-60" y="503" type="line" smooth="yes"/>
      <point x="-62" y="503"/>
      <point x="-65" y="487"/>
      <point x="-65" y="479" type="curve"/>
    </contour>
    <contour>
      <point x="-21" y="503" type="line"/>
      <point x="-5" y="516"/>
      <point x="9" y="530"/>
      <point x="21" y="545" type="curve"/>
      <point x="31" y="532"/>
      <point x="39" y="520"/>
      <point x="44" y="510" type="curve"/>
      <point x="27" y="507"/>
      <point x="9" y="505"/>
      <point x="-10" y="504" type="curve" smooth="yes"/>
    </contour>
  </outline>
</glyph>
<glyph name="uni06DA" format="2">
  <unicode hex="06DA"/>
  <anchor x="0" y="384" name="_top"/>
  <anchor x="0" y="384" name="_top2"/>
  <anchor x="0" y="384" name="_top3"/>
  <anchor x="-7" y="678" name="top3"/>
  <outline>
    <contour>
      <point x="2" y="394" type="curve" smooth="yes"/>
      <point x="31" y="394"/>
      <point x="63" y="404"/>
      <point x="100" y="423" type="curve"/>
      <point x="95" y="436" type="line"/>
      <point x="64" y="429"/>
      <point x="33" y="425"/>
      <point x="3" y="425" type="curve" smooth="yes"/>
      <point x="-47" y="425"/>
      <point x="-83" y="451"/>
      <point x="-83" y="490" type="curve" smooth="yes"/>
      <point x="-83" y="508"/>
      <point x="-76" y="525"/>
      <point x="-63" y="541" type="curve" smooth="yes"/>
      <point x="-37" y="572"/>
      <point x="18" y="595"/>
      <point x="62" y="597" type="curve" smooth="yes"/>
      <point x="81" y="599" type="line"/>
      <point x="91" y="628" type="line"/>
      <point x="78" y="627" type="line"/>
      <point x="66" y="627" type="line" smooth="yes"/>
      <point x="51" y="627"/>
      <point x="29" y="631"/>
      <point x="1" y="640" type="curve" smooth="yes"/>
      <point x="-28" y="649"/>
      <point x="-49" y="653"/>
      <point x="-62" y="653" type="curve" smooth="yes"/>
      <point x="-89" y="653"/>
      <point x="-108" y="641"/>
      <point x="-108" y="622" type="curve" smooth="yes"/>
      <point x="-108" y="619"/>
      <point x="-106" y="614"/>
      <point x="-103" y="606" type="curve"/>
      <point x="-90" y="615"/>
      <point x="-81" y="622"/>
      <point x="-61" y="622" type="curve" smooth="yes"/>
      <point x="-54" y="622"/>
      <point x="-47" y="621"/>
      <point x="-39" y="618" type="curve" smooth="yes"/>
      <point x="-8" y="608" type="line"/>
      <point x="-58" y="589"/>
      <point x="-95" y="542"/>
      <point x="-95" y="490" type="curve" smooth="yes"/>
      <point x="-95" y="429"/>
      <point x="-59" y="394"/>
    </contour>
    <contour>
      <point x="1" y="462" type="curve"/>
      <point x="11" y="471"/>
      <point x="19" y="481"/>
      <point x="26" y="490" type="curve"/>
      <point x="19" y="495"/>
      <point x="11" y="503"/>
      <point x="1" y="514" type="curve"/>
      <point x="-25" y="487" type="line"/>
      <point x="-19" y="479"/>
      <point x="-10" y="471"/>
    </contour>
  </outline>
</glyph>
<glyph name="uni06DB" format="2">
  <unicode hex="06DB"/>
  <anchor x="0" y="283" name="_top"/>
  <anchor x="0" y="283" name="_top2"/>
  <anchor x="0" y="283" name="_top3"/>
  <anchor x="-1" y="475" name="top3"/>
  <outline>
    <contour>
      <point x="54" y="301" type="curve"/>
      <point x="67" y="313"/>
      <point x="80" y="328"/>
      <point x="93" y="346" type="curve"/>
      <point x="53" y="386" type="line"/>
      <point x="33" y="365" type="line"/>
      <point x="10" y="342" type="line"/>
      <point x="19" y="332"/>
      <point x="33" y="319"/>
    </contour>
    <contour>
      <point x="-51" y="292" type="curve"/>
      <point x="-37" y="305"/>
      <point x="-24" y="320"/>
      <point x="-12" y="337" type="curve"/>
      <point x="-52" y="376" type="line"/>
      <point x="-76" y="351"/>
      <point x="-90" y="337"/>
      <point x="-95" y="333" type="curve"/>
      <point x="-82" y="319"/>
      <point x="-68" y="305"/>
    </contour>
    <contour>
      <point x="0" y="375" type="curve"/>
      <point x="5" y="377"/>
      <point x="17" y="390"/>
      <point x="37" y="411" type="curve"/>
      <point x="20" y="425"/>
      <point x="7" y="439"/>
      <point x="-2" y="451" type="curve"/>
      <point x="-13" y="438"/>
      <point x="-26" y="425"/>
      <point x="-42" y="411" type="curve"/>
      <point x="-29" y="395"/>
      <point x="-15" y="383"/>
    </contour>
  </outline>
</glyph>
<glyph name="uni06DC" format="2">
  <unicode hex="06DC"/>
  <anchor x="75" y="431" name="_top"/>
  <anchor x="75" y="431" name="_top2"/>
  <anchor x="75" y="431" name="_top3"/>
  <anchor x="5" y="656" name="top3"/>
  <outline>
    <contour>
      <point x="-92" y="431" type="curve" smooth="yes"/>
      <point x="-37" y="431"/>
      <point x="16" y="475"/>
      <point x="16" y="523" type="curve" smooth="yes"/>
      <point x="16" y="537" type="line"/>
      <point x="18" y="537" type="line"/>
      <point x="29" y="537" type="line" smooth="yes"/>
      <point x="59" y="537"/>
      <point x="75" y="540"/>
      <point x="79" y="547" type="curve" smooth="yes"/>
      <point x="82" y="552" type="line"/>
      <point x="110" y="540"/>
      <point x="132" y="537"/>
      <point x="162" y="537" type="curve"/>
      <point x="167" y="548"/>
      <point x="176" y="572"/>
      <point x="176" y="583" type="curve" smooth="yes"/>
      <point x="176" y="594"/>
      <point x="174" y="607"/>
      <point x="171" y="621" type="curve" smooth="yes"/>
      <point x="167" y="635"/>
      <point x="164" y="650"/>
      <point x="162" y="665" type="curve"/>
      <point x="145" y="655"/>
      <point x="137" y="644"/>
      <point x="137" y="633" type="curve" smooth="yes"/>
      <point x="137" y="627"/>
      <point x="139" y="619"/>
      <point x="144" y="608" type="curve" smooth="yes"/>
      <point x="149" y="597"/>
      <point x="154" y="583"/>
      <point x="158" y="566" type="curve"/>
      <point x="131" y="566"/>
      <point x="118" y="569"/>
      <point x="92" y="581" type="curve"/>
      <point x="93" y="584" type="line" smooth="yes"/>
      <point x="99" y="605"/>
      <point x="104" y="620"/>
      <point x="108" y="628" type="curve"/>
      <point x="106" y="630"/>
      <point x="103" y="631"/>
      <point x="100" y="631" type="curve" smooth="yes"/>
      <point x="94" y="631"/>
      <point x="90" y="628"/>
      <point x="86" y="623" type="curve" smooth="yes"/>
      <point x="83" y="617"/>
      <point x="78" y="603"/>
      <point x="71" y="580" type="curve"/>
      <point x="66" y="569" type="line"/>
      <point x="59" y="567"/>
      <point x="48" y="565"/>
      <point x="34" y="565" type="curve" smooth="yes"/>
      <point x="25" y="565"/>
      <point x="17" y="567"/>
      <point x="10" y="569" type="curve"/>
      <point x="7" y="583"/>
      <point x="4" y="598"/>
      <point x="1" y="615" type="curve"/>
      <point x="-12" y="607"/>
      <point x="-23" y="598"/>
      <point x="-23" y="582" type="curve" smooth="yes"/>
      <point x="-23" y="568"/>
      <point x="-15" y="544"/>
      <point x="1" y="509" type="curve"/>
      <point x="-12" y="482"/>
      <point x="-53" y="462"/>
      <point x="-91" y="462" type="curve" smooth="yes"/>
      <point x="-122" y="462"/>
      <point x="-144" y="481"/>
      <point x="-144" y="521" type="curve" smooth="yes"/>
      <point x="-144" y="527"/>
      <point x="-142" y="536"/>
      <point x="-139" y="547" type="curve"/>
      <point x="-153" y="550" type="line"/>
      <point x="-158" y="533"/>
      <point x="-160" y="516"/>
      <point x="-160" y="501" type="curve" smooth="yes"/>
      <point x="-160" y="460"/>
      <point x="-139" y="431"/>
    </contour>
  </outline>
</glyph>
<glyph name="uni06DD" format="2">
  <advance width="189"/>
  <unicode hex="06DD"/>
  <outline>
    <contour>
      <point x="630" y="-262" type="curve"/>
      <point x="652" y="-231"/>
      <point x="692" y="-196"/>
      <point x="738" y="-185" type="curve" smooth="yes"/>
      <point x="932" y="-140"/>
      <point x="1072" y="-38"/>
      <point x="1160" y="118" type="curve"/>
      <point x="1154" y="122"/>
      <point x="1148" y="126"/>
      <point x="1140" y="126" type="curve" smooth="yes"/>
      <point x="1135" y="126"/>
      <point x="1128" y="124"/>
      <point x="1120" y="118" type="curve"/>
      <point x="1168" y="207"/>
      <point x="1189" y="297"/>
      <point x="1189" y="401" type="curve" smooth="yes"/>
      <point x="1189" y="501"/>
      <point x="1168" y="592"/>
      <point x="1120" y="679" type="curve"/>
      <point x="1129" y="677"/>
      <point x="1135" y="676"/>
      <point x="1141" y="676" type="curve" smooth="yes"/>
      <point x="1145" y="676"/>
      <point x="1148" y="676"/>
      <point x="1151" y="677" type="curve" smooth="yes"/>
      <point x="1154" y="678"/>
      <point x="1157" y="679"/>
      <point x="1160" y="679" type="curve"/>
      <point x="1116" y="757"/>
      <point x="1056" y="823"/>
      <point x="984" y="875" type="curve" smooth="yes"/>
      <point x="912" y="926"/>
      <point x="828" y="963"/>
      <point x="738" y="982" type="curve" smooth="yes"/>
      <point x="688" y="993"/>
      <point x="652" y="1032"/>
      <point x="630" y="1065" type="curve"/>
      <point x="604" y="1030"/>
      <point x="570" y="987"/>
      <point x="529" y="982" type="curve" smooth="yes"/>
      <point x="441" y="969"/>
      <point x="358" y="932"/>
      <point x="286" y="879" type="curve" smooth="yes"/>
      <point x="214" y="826"/>
      <point x="153" y="757"/>
      <point x="111" y="679" type="curve"/>
      <point x="113" y="679"/>
      <point x="116" y="678"/>
      <point x="119" y="677" type="curve" smooth="yes"/>
      <point x="122" y="676"/>
      <point x="125" y="676"/>
      <point x="129" y="676" type="curve" smooth="yes"/>
      <point x="134" y="676"/>
      <point x="141" y="677"/>
      <point x="148" y="679" type="curve"/>
      <point x="103" y="592"/>
      <point x="71" y="501"/>
      <point x="71" y="401" type="curve" smooth="yes"/>
      <point x="71" y="349"/>
      <point x="79" y="301"/>
      <point x="93" y="254" type="curve" smooth="yes"/>
      <point x="106" y="207"/>
      <point x="126" y="162"/>
      <point x="148" y="118" type="curve"/>
      <point x="141" y="124"/>
      <point x="134" y="126"/>
      <point x="129" y="126" type="curve" smooth="yes"/>
      <point x="122" y="126"/>
      <point x="115" y="122"/>
      <point x="111" y="118" type="curve"/>
      <point x="154" y="40"/>
      <point x="208" y="-26"/>
      <point x="277" y="-78" type="curve" smooth="yes"/>
      <point x="345" y="-129"/>
      <point x="428" y="-167"/>
      <point x="529" y="-185" type="curve" smooth="yes"/>
      <point x="572" y="-191"/>
      <point x="607" y="-231"/>
    </contour>
    <contour>
      <point x="482" y="-137" type="curve"/>
      <point x="413" y="-114"/>
      <point x="351" y="-84"/>
      <point x="296" y="-45" type="curve"/>
      <point x="287" y="-39"/>
      <point x="282" y="-30"/>
      <point x="282" y="-20" type="curve" smooth="yes"/>
      <point x="282" y="-3"/>
      <point x="296" y="13"/>
      <point x="312" y="13" type="curve" smooth="yes"/>
      <point x="320" y="13"/>
      <point x="328" y="10"/>
      <point x="335" y="3" type="curve"/>
      <point x="380" y="-27"/>
      <point x="447" y="-61"/>
      <point x="499" y="-77" type="curve"/>
      <point x="512" y="-83"/>
      <point x="523" y="-93"/>
      <point x="523" y="-107" type="curve" smooth="yes"/>
      <point x="523" y="-108"/>
      <point x="523" y="-110"/>
      <point x="522" y="-114" type="curve" smooth="yes"/>
      <point x="517" y="-132"/>
      <point x="499" y="-137"/>
    </contour>
    <contour>
      <point x="630" y="-175" type="curve" smooth="yes"/>
      <point x="599" y="-175"/>
      <point x="578" y="-153"/>
      <point x="578" y="-121" type="curve" smooth="yes"/>
      <point x="578" y="-89"/>
      <point x="599" y="-68"/>
      <point x="630" y="-68" type="curve" smooth="yes"/>
      <point x="662" y="-68"/>
      <point x="686" y="-91"/>
      <point x="686" y="-121" type="curve" smooth="yes"/>
      <point x="686" y="-153"/>
      <point x="663" y="-175"/>
    </contour>
    <contour>
      <point x="780" y="-136" type="curve"/>
      <point x="760" y="-136"/>
      <point x="739" y="-127"/>
      <point x="739" y="-103" type="curve" smooth="yes"/>
      <point x="739" y="-88"/>
      <point x="751" y="-79"/>
      <point x="764" y="-73" type="curve"/>
      <point x="818" y="-58"/>
      <point x="881" y="-26"/>
      <point x="928" y="4" type="curve"/>
      <point x="936" y="12"/>
      <point x="944" y="16"/>
      <point x="951" y="16" type="curve" smooth="yes"/>
      <point x="959" y="16"/>
      <point x="966" y="12"/>
      <point x="973" y="4" type="curve" smooth="yes"/>
      <point x="977" y="-1"/>
      <point x="980" y="-8"/>
      <point x="980" y="-15" type="curve" smooth="yes"/>
      <point x="980" y="-26"/>
      <point x="975" y="-35"/>
      <point x="965" y="-42" type="curve" smooth="yes"/>
      <point x="911" y="-79"/>
      <point x="850" y="-111"/>
    </contour>
    <contour>
      <point x="716" y="-49" type="curve" smooth="yes"/>
      <point x="684" y="-49"/>
      <point x="653" y="-31"/>
      <point x="630" y="-12" type="curve"/>
      <point x="608" y="-31"/>
      <point x="582" y="-47"/>
      <point x="548" y="-47" type="curve" smooth="yes"/>
      <point x="542" y="-47"/>
      <point x="536" y="-46"/>
      <point x="529" y="-45" type="curve" smooth="yes"/>
      <point x="433" y="-21"/>
      <point x="365" y="18"/>
      <point x="312" y="80" type="curve"/>
      <point x="305" y="77"/>
      <point x="292" y="74"/>
      <point x="280" y="74" type="curve"/>
      <point x="186" y="159"/>
      <point x="140" y="273"/>
      <point x="140" y="401" type="curve" smooth="yes"/>
      <point x="140" y="533"/>
      <point x="187" y="640"/>
      <point x="280" y="733" type="curve"/>
      <point x="292" y="725"/>
      <point x="306" y="724"/>
      <point x="312" y="724" type="curve"/>
      <point x="366" y="780"/>
      <point x="443" y="826"/>
      <point x="529" y="843" type="curve" smooth="yes"/>
      <point x="540" y="845"/>
      <point x="551" y="846"/>
      <point x="561" y="846" type="curve" smooth="yes"/>
      <point x="596" y="846"/>
      <point x="617" y="834"/>
      <point x="630" y="819" type="curve"/>
      <point x="647" y="835"/>
      <point x="671" y="846"/>
      <point x="707" y="846" type="curve" smooth="yes"/>
      <point x="717" y="846"/>
      <point x="727" y="845"/>
      <point x="738" y="843" type="curve" smooth="yes"/>
      <point x="815" y="827"/>
      <point x="895" y="779"/>
      <point x="950" y="724" type="curve"/>
      <point x="956" y="724"/>
      <point x="967" y="725"/>
      <point x="980" y="733" type="curve"/>
      <point x="1074" y="640"/>
      <point x="1118" y="533"/>
      <point x="1120" y="401" type="curve" smooth="yes"/>
      <point x="1120" y="340"/>
      <point x="1108" y="279"/>
      <point x="1085" y="224" type="curve" smooth="yes"/>
      <point x="1062" y="168"/>
      <point x="1027" y="117"/>
      <point x="980" y="74" type="curve"/>
      <point x="967" y="74"/>
      <point x="957" y="77"/>
      <point x="950" y="80" type="curve"/>
      <point x="922" y="49"/>
      <point x="892" y="26"/>
      <point x="858" y="6" type="curve" smooth="yes"/>
      <point x="824" y="-13"/>
      <point x="785" y="-29"/>
      <point x="738" y="-45" type="curve" smooth="yes"/>
      <point x="730" y="-47"/>
      <point x="723" y="-49"/>
    </contour>
    <contour>
      <point x="313" y="787" type="curve" smooth="yes"/>
      <point x="299" y="787"/>
      <point x="284" y="802"/>
      <point x="284" y="818" type="curve" smooth="yes"/>
      <point x="284" y="829"/>
      <point x="289" y="840"/>
      <point x="299" y="845" type="curve"/>
      <point x="352" y="884"/>
      <point x="414" y="915"/>
      <point x="483" y="939" type="curve"/>
      <point x="500" y="939"/>
      <point x="518" y="934"/>
      <point x="522" y="916" type="curve" smooth="yes"/>
      <point x="523" y="913"/>
      <point x="523" y="911"/>
      <point x="523" y="909" type="curve" smooth="yes"/>
      <point x="523" y="895"/>
      <point x="514" y="883"/>
      <point x="500" y="877" type="curve"/>
      <point x="446" y="861"/>
      <point x="382" y="829"/>
      <point x="336" y="799" type="curve"/>
      <point x="329" y="791"/>
      <point x="321" y="787"/>
    </contour>
    <contour>
      <point x="630" y="865" type="curve" smooth="yes"/>
      <point x="599" y="865"/>
      <point x="578" y="887"/>
      <point x="578" y="920" type="curve" smooth="yes"/>
      <point x="578" y="951"/>
      <point x="599" y="972"/>
      <point x="630" y="972" type="curve" smooth="yes"/>
      <point x="663" y="972"/>
      <point x="686" y="951"/>
      <point x="686" y="920" type="curve" smooth="yes"/>
      <point x="686" y="887"/>
      <point x="663" y="865"/>
    </contour>
    <contour>
      <point x="952" y="785" type="curve" smooth="yes"/>
      <point x="944" y="785"/>
      <point x="936" y="789"/>
      <point x="929" y="796" type="curve"/>
      <point x="881" y="827"/>
      <point x="821" y="858"/>
      <point x="765" y="875" type="curve" smooth="yes"/>
      <point x="752" y="879"/>
      <point x="741" y="895"/>
      <point x="741" y="910" type="curve" smooth="yes"/>
      <point x="741" y="933"/>
      <point x="762" y="936"/>
      <point x="781" y="936" type="curve"/>
      <point x="850" y="911"/>
      <point x="911" y="881"/>
      <point x="967" y="843" type="curve"/>
      <point x="976" y="838"/>
      <point x="981" y="828"/>
      <point x="981" y="817" type="curve" smooth="yes"/>
      <point x="981" y="809"/>
      <point x="978" y="802"/>
      <point x="973" y="796" type="curve" smooth="yes"/>
      <point x="967" y="789"/>
      <point x="959" y="785"/>
    </contour>
  </outline>
</glyph>
<glyph name="uni06DE" format="2">
  <advance width="921"/>
  <unicode hex="06DE"/>
  <outline>
    <contour>
      <point x="460" y="-180" type="line"/>
      <point x="590" y="-51" type="line"/>
      <point x="773" y="-51" type="line"/>
      <point x="773" y="130" type="line"/>
      <point x="901" y="260" type="line"/>
      <point x="773" y="389" type="line"/>
      <point x="773" y="571" type="line"/>
      <point x="590" y="571" type="line"/>
      <point x="460" y="700" type="line"/>
      <point x="333" y="571" type="line"/>
      <point x="149" y="571" type="line"/>
      <point x="149" y="389" type="line"/>
      <point x="21" y="260" type="line"/>
      <point x="149" y="130" type="line"/>
      <point x="149" y="-51" type="line"/>
      <point x="333" y="-51" type="line"/>
    </contour>
    <contour>
      <point x="181" y="-20" type="line"/>
      <point x="181" y="100" type="line"/>
      <point x="301" y="-20" type="line"/>
    </contour>
    <contour>
      <point x="460" y="-136" type="line"/>
      <point x="375" y="-51" type="line"/>
      <point x="546" y="-51" type="line"/>
    </contour>
    <contour>
      <point x="149" y="175" type="line"/>
      <point x="65" y="260" type="line"/>
      <point x="149" y="345" type="line"/>
    </contour>
    <contour>
      <point x="181" y="420" type="line"/>
      <point x="181" y="539" type="line"/>
      <point x="301" y="539" type="line"/>
    </contour>
    <contour>
      <point x="621" y="-20" type="line"/>
      <point x="741" y="100" type="line"/>
      <point x="741" y="-20" type="line"/>
    </contour>
    <contour>
      <point x="345" y="-20" type="line"/>
      <point x="181" y="144" type="line"/>
      <point x="181" y="376" type="line"/>
      <point x="345" y="539" type="line"/>
      <point x="577" y="539" type="line"/>
      <point x="741" y="376" type="line"/>
      <point x="741" y="144" type="line"/>
      <point x="577" y="-20" type="line"/>
    </contour>
    <contour>
      <point x="460" y="169" type="curve" smooth="yes"/>
      <point x="511" y="169"/>
      <point x="551" y="210"/>
      <point x="551" y="260" type="curve" smooth="yes"/>
      <point x="551" y="310"/>
      <point x="511" y="350"/>
      <point x="460" y="350" type="curve" smooth="yes"/>
      <point x="412" y="350"/>
      <point x="371" y="310"/>
      <point x="371" y="260" type="curve" smooth="yes"/>
      <point x="371" y="210"/>
      <point x="412" y="169"/>
    </contour>
    <contour>
      <point x="460" y="200" type="curve" smooth="yes"/>
      <point x="428" y="200"/>
      <point x="402" y="227"/>
      <point x="402" y="260" type="curve" smooth="yes"/>
      <point x="402" y="293"/>
      <point x="428" y="319"/>
      <point x="460" y="319" type="curve" smooth="yes"/>
      <point x="494" y="319"/>
      <point x="520" y="293"/>
      <point x="520" y="260" type="curve" smooth="yes"/>
      <point x="520" y="227"/>
      <point x="494" y="200"/>
    </contour>
    <contour>
      <point x="375" y="571" type="line"/>
      <point x="460" y="657" type="line"/>
      <point x="546" y="571" type="line"/>
    </contour>
    <contour>
      <point x="773" y="175" type="line"/>
      <point x="773" y="345" type="line"/>
      <point x="856" y="260" type="line"/>
    </contour>
    <contour>
      <point x="741" y="420" type="line"/>
      <point x="621" y="539" type="line"/>
      <point x="741" y="539" type="line"/>
    </contour>
  </outline>
</glyph>
<glyph name="uni06DF" format="2">
  <unicode hex="06DF"/>
  <anchor x="0" y="451" name="_top"/>
  <anchor x="0" y="451" name="_top2"/>
  <anchor x="0" y="451" name="_top3"/>
  <anchor x="0" y="591" name="top3"/>
  <outline>
    <contour>
      <point x="0" y="461" type="curve" smooth="yes"/>
      <point x="32" y="461"/>
      <point x="54" y="481"/>
      <point x="54" y="519" type="curve" smooth="yes"/>
      <point x="54" y="556"/>
      <point x="32" y="576"/>
      <point x="0" y="576" type="curve" smooth="yes"/>
      <point x="-30" y="576"/>
      <point x="-54" y="559"/>
      <point x="-54" y="519" type="curve" smooth="yes"/>
      <point x="-54" y="478"/>
      <point x="-30" y="461"/>
    </contour>
    <contour>
      <point x="0" y="487" type="curve" smooth="yes"/>
      <point x="-20" y="487"/>
      <point x="-30" y="497"/>
      <point x="-30" y="519" type="curve" smooth="yes"/>
      <point x="-30" y="540"/>
      <point x="-20" y="550"/>
      <point x="0" y="550" type="curve" smooth="yes"/>
      <point x="16" y="550"/>
      <point x="30" y="541"/>
      <point x="30" y="519" type="curve" smooth="yes"/>
      <point x="30" y="496"/>
      <point x="16" y="487"/>
    </contour>
  </outline>
</glyph>
<glyph name="uni06E0" format="2">
  <unicode hex="06E0"/>
  <anchor x="0" y="412" name="_top"/>
  <anchor x="0" y="412" name="_top2"/>
  <anchor x="0" y="412" name="_top3"/>
  <anchor x="0" y="591" name="top3"/>
  <outline>
    <contour>
      <point x="0" y="422" type="curve" smooth="yes"/>
      <point x="36" y="422"/>
      <point x="54" y="448"/>
      <point x="54" y="499" type="curve" smooth="yes"/>
      <point x="54" y="550"/>
      <point x="36" y="576"/>
      <point x="0" y="576" type="curve" smooth="yes"/>
      <point x="-36" y="576"/>
      <point x="-54" y="550"/>
      <point x="-54" y="499" type="curve" smooth="yes"/>
      <point x="-54" y="448"/>
      <point x="-36" y="422"/>
    </contour>
    <contour>
      <point x="0" y="448" type="curve" smooth="yes"/>
      <point x="-21" y="448"/>
      <point x="-30" y="463"/>
      <point x="-30" y="499" type="curve" smooth="yes"/>
      <point x="-30" y="535"/>
      <point x="-21" y="550"/>
      <point x="0" y="550" type="curve" smooth="yes"/>
      <point x="21" y="550"/>
      <point x="30" y="535"/>
      <point x="30" y="499" type="curve" smooth="yes"/>
      <point x="30" y="463"/>
      <point x="21" y="448"/>
    </contour>
  </outline>
</glyph>
<glyph name="uni06E1" format="2">
  <unicode hex="06E1"/>
  <anchor x="0" y="451" name="_top"/>
  <anchor x="0" y="451" name="_top2"/>
  <anchor x="0" y="451" name="_top3"/>
  <anchor x="0" y="613" name="top3"/>
  <outline>
    <contour>
      <point x="-53" y="460" type="line"/>
      <point x="-49" y="460" type="line" smooth="yes"/>
      <point x="25" y="460"/>
      <point x="64" y="508"/>
      <point x="84" y="573" type="curve"/>
      <point x="53" y="583"/>
      <point x="28" y="589"/>
      <point x="-6" y="589" type="curve" smooth="yes"/>
      <point x="-47" y="589"/>
      <point x="-64" y="571"/>
      <point x="-64" y="554" type="curve" smooth="yes"/>
      <point x="-64" y="546"/>
      <point x="-61" y="541"/>
      <point x="-59" y="538" type="curve"/>
      <point x="-49" y="549"/>
      <point x="-34" y="555"/>
      <point x="-11" y="555" type="curve" smooth="yes"/>
      <point x="9" y="555"/>
      <point x="29" y="554"/>
      <point x="47" y="550" type="curve"/>
      <point x="20" y="499"/>
      <point x="-15" y="484"/>
      <point x="-81" y="479" type="curve"/>
    </contour>
  </outline>
</glyph>
<glyph name="uni06E2" format="2">
  <unicode hex="06E2"/>
  <anchor x="15" y="412" name="_top"/>
  <anchor x="15" y="412" name="_top2"/>
  <anchor x="15" y="412" name="_top3"/>
  <anchor x="-7" y="649" name="top3"/>
  <outline>
    <contour>
      <point x="-58" y="391" type="curve"/>
      <point x="-47" y="399"/>
      <point x="-38" y="406"/>
      <point x="-33" y="412" type="curve"/>
      <point x="-35" y="429"/>
      <point x="-37" y="447"/>
      <point x="-41" y="468" type="curve" smooth="yes"/>
      <point x="-47" y="503" type="line"/>
      <point x="-12" y="516"/>
      <point x="13" y="518"/>
      <point x="53" y="518" type="curve"/>
      <point x="67" y="557" type="line"/>
      <point x="39" y="580"/>
      <point x="23" y="625"/>
      <point x="0" y="625" type="curve" smooth="yes"/>
      <point x="-21" y="625"/>
      <point x="-38" y="607"/>
      <point x="-52" y="573" type="curve"/>
      <point x="-40" y="567" type="line"/>
      <point x="-28" y="583"/>
      <point x="-18" y="591"/>
      <point x="-9" y="591" type="curve" smooth="yes"/>
      <point x="-5" y="591"/>
      <point x="-1" y="589"/>
      <point x="4" y="584" type="curve" smooth="yes"/>
      <point x="8" y="580"/>
      <point x="15" y="571"/>
      <point x="24" y="558" type="curve"/>
      <point x="32" y="549" type="line"/>
      <point x="-8" y="547"/>
      <point x="-9" y="547"/>
      <point x="-51" y="536" type="curve"/>
      <point x="-59" y="516"/>
      <point x="-63" y="503"/>
      <point x="-63" y="498" type="curve" smooth="yes"/>
      <point x="-63" y="487"/>
      <point x="-63" y="473"/>
      <point x="-61" y="456" type="curve" smooth="yes"/>
      <point x="-59" y="439"/>
      <point x="-58" y="417"/>
    </contour>
  </outline>
</glyph>
<glyph name="uni06E3" format="2">
  <unicode hex="06E3"/>
  <anchor x="0" y="-34" name="_bottom"/>
  <anchor x="0" y="-34" name="_bottom2"/>
  <anchor x="0" y="-34" name="_bottom3"/>
  <anchor x="75" y="-249" name="bottom3"/>
  <outline>
    <contour>
      <point x="-92" y="-249" type="curve" smooth="yes"/>
      <point x="-38" y="-249"/>
      <point x="16" y="-206"/>
      <point x="16" y="-157" type="curve" smooth="yes"/>
      <point x="16" y="-143" type="line"/>
      <point x="29" y="-144" type="line" smooth="yes"/>
      <point x="42" y="-144"/>
      <point x="53" y="-143"/>
      <point x="62" y="-141" type="curve" smooth="yes"/>
      <point x="71" y="-139"/>
      <point x="77" y="-136"/>
      <point x="79" y="-133" type="curve" smooth="yes"/>
      <point x="82" y="-127" type="line"/>
      <point x="114" y="-141"/>
      <point x="133" y="-144"/>
      <point x="162" y="-144" type="curve"/>
      <point x="166" y="-134"/>
      <point x="176" y="-108"/>
      <point x="176" y="-97" type="curve" smooth="yes"/>
      <point x="176" y="-85"/>
      <point x="174" y="-73"/>
      <point x="171" y="-59" type="curve" smooth="yes"/>
      <point x="167" y="-45"/>
      <point x="164" y="-30"/>
      <point x="162" y="-16" type="curve"/>
      <point x="145" y="-25"/>
      <point x="137" y="-36"/>
      <point x="137" y="-47" type="curve" smooth="yes"/>
      <point x="137" y="-53"/>
      <point x="139" y="-61"/>
      <point x="144" y="-72" type="curve" smooth="yes"/>
      <point x="149" y="-83"/>
      <point x="154" y="-97"/>
      <point x="158" y="-114" type="curve"/>
      <point x="135" y="-114"/>
      <point x="113" y="-109"/>
      <point x="92" y="-99" type="curve"/>
      <point x="97" y="-81"/>
      <point x="102" y="-65"/>
      <point x="108" y="-51" type="curve"/>
      <point x="106" y="-50"/>
      <point x="103" y="-49"/>
      <point x="100" y="-49" type="curve" smooth="yes"/>
      <point x="94" y="-49"/>
      <point x="89" y="-52"/>
      <point x="85" y="-58" type="curve" smooth="yes"/>
      <point x="82" y="-65"/>
      <point x="77" y="-79"/>
      <point x="71" y="-100" type="curve"/>
      <point x="66" y="-111" type="line"/>
      <point x="59" y="-113"/>
      <point x="48" y="-115"/>
      <point x="34" y="-115" type="curve" smooth="yes"/>
      <point x="27" y="-115"/>
      <point x="19" y="-114"/>
      <point x="10" y="-111" type="curve"/>
      <point x="7" y="-98"/>
      <point x="4" y="-82"/>
      <point x="1" y="-65" type="curve"/>
      <point x="-15" y="-75"/>
      <point x="-23" y="-86"/>
      <point x="-23" y="-99" type="curve" smooth="yes"/>
      <point x="-23" y="-112"/>
      <point x="-15" y="-136"/>
      <point x="1" y="-170" type="curve"/>
      <point x="-11" y="-196"/>
      <point x="-52" y="-218"/>
      <point x="-91" y="-218" type="curve" smooth="yes"/>
      <point x="-122" y="-218"/>
      <point x="-144" y="-199"/>
      <point x="-144" y="-160" type="curve" smooth="yes"/>
      <point x="-144" y="-153"/>
      <point x="-142" y="-144"/>
      <point x="-139" y="-133" type="curve"/>
      <point x="-153" y="-130" type="line"/>
      <point x="-158" y="-149"/>
      <point x="-160" y="-165"/>
      <point x="-160" y="-179" type="curve" smooth="yes"/>
      <point x="-160" y="-224"/>
      <point x="-134" y="-249"/>
    </contour>
  </outline>
</glyph>
<glyph name="uni06E4" format="2">
  <unicode hex="06E4"/>
  <anchor x="0" y="474" name="_top"/>
  <anchor x="0" y="474" name="_top2"/>
  <anchor x="0" y="474" name="_top3"/>
  <anchor x="1" y="552" name="top3"/>
  <outline>
    <contour>
      <point x="-120" y="480" type="line"/>
      <point x="-61" y="512" type="line"/>
      <point x="-20" y="495"/>
      <point x="9" y="483"/>
      <point x="34" y="483" type="curve" smooth="yes"/>
      <point x="55" y="483"/>
      <point x="90" y="502"/>
      <point x="118" y="529" type="curve"/>
      <point x="111" y="540" type="line"/>
      <point x="89" y="524"/>
      <point x="69" y="512"/>
      <point x="35" y="512" type="curve" smooth="yes"/>
      <point x="22" y="512"/>
      <point x="4" y="516"/>
      <point x="-17" y="525" type="curve" smooth="yes"/>
      <point x="-39" y="533"/>
      <point x="-53" y="538"/>
      <point x="-58" y="538" type="curve" smooth="yes"/>
      <point x="-65" y="538"/>
      <point x="-110" y="507"/>
      <point x="-127" y="490" type="curve"/>
    </contour>
  </outline>
</glyph>
